<?xml version="1.0" encoding="utf-8"?>
<!-- Generator: Adobe Illustrator 16.0.0, SVG Export Plug-In . SVG Version: 6.00 Build 0)  -->
<!DOCTYPE svg PUBLIC "-//W3C//DTD SVG 1.1//EN" "http://www.w3.org/Graphics/SVG/1.1/DTD/svg11.dtd">
<svg version="1.1" id="Layer_1" xmlns="http://www.w3.org/2000/svg" xmlns:xlink="http://www.w3.org/1999/xlink" x="0px" y="0px"
	 width="295.167px" height="295.104px" viewBox="0 0 295.167 295.104" enable-background="new 0 0 295.167 295.104"
	 xml:space="preserve">
<rect x="-7734.337" y="-1757.574" fill="#A6DDDB" width="5000" height="5000"/>
<g>
	<path fill="#C1E5E2" d="M-7256.949,647.463l38.128-0.253l-0.371-55.765l-38.005,0.253c-3.762-18.97-11.323-37.32-22.659-53.828
		l25.659-26.002l-39.673-39.15l-25.735,26.08c-16.213-10.726-34.106-17.862-52.557-21.413l-0.249-37.392l-55.764,0.37l0.247,37.092
		c-18.95,3.695-37.293,11.172-53.812,22.419l-26.079-25.735l-39.15,39.673l26.002,25.659
		c-11.116,16.658-18.432,35.107-21.942,54.124l-36.014,0.239l0.37,55.764l36.137-0.24c3.767,18.565,11.174,36.523,22.206,52.727
		l-26.736,27.094l39.673,39.149l26.66-27.016c16.792,11.206,35.404,18.545,54.584,22.022l0.244,36.762l55.764-0.37l-0.247-37.062
		c18.583-3.832,36.549-11.314,52.743-22.434l27.016,26.659l39.15-39.673l-27.093-26.736
		C-7267.638,684.132-7260.469,666.077-7256.949,647.463z M-7333.287,686.17c-35.891,36.37-94.471,36.76-130.841,0.869
		c-36.371-35.891-36.76-94.47-0.869-130.84c35.891-36.371,94.47-36.76,130.84-0.869S-7297.396,649.799-7333.287,686.17z"/>
</g>
<g>
	<path fill="#C1E5E2" d="M-2904.062,1552.055l38.129-0.254l-0.371-55.764l-38.005,0.252c-3.763-18.969-11.323-37.319-22.659-53.828
		l25.659-26.002l-39.674-39.149l-25.734,26.079c-16.214-10.727-34.106-17.862-52.558-21.412l-0.248-37.393l-55.764,0.371
		l0.246,37.092c-18.949,3.695-37.294,11.172-53.812,22.418l-26.079-25.734l-39.149,39.673l26.002,25.659
		c-11.116,16.658-18.433,35.106-21.943,54.124l-36.014,0.239l0.371,55.764l36.137-0.239c3.767,18.564,11.174,36.522,22.205,52.726
		l-26.736,27.094l39.674,39.15l26.66-27.017c16.792,11.205,35.404,18.546,54.584,22.022l0.244,36.762l55.764-0.37l-0.246-37.062
		c18.584-3.833,36.549-11.315,52.742-22.435l27.018,26.66l39.149-39.673l-27.094-26.736
		C-2914.75,1588.723-2907.581,1570.668-2904.062,1552.055z M-2980.398,1590.762c-35.892,36.37-94.47,36.759-130.841,0.868
		s-36.76-94.47-0.869-130.841c35.891-36.37,94.471-36.76,130.841-0.869S-2944.508,1554.391-2980.398,1590.762z"/>
</g>
<g>
	<path fill="#C1E5E2" d="M-2920-1116.854l6.115-33.875l-30.159-5.445c0.408-8.476,0.146-17.758-0.956-26.509l31.911-7.493
		l-7.904-33.101l-32.188,7.69c-2.439-6.536-5.334-12.863-8.648-18.963l27.26-18.916l-19.436-27.995l-27.417,19.033
		c-5.851-6.576-12.295-12.645-19.271-18.116l17.547-28.515l-29.027-17.862l-17.979,28.518c-6.207-2.869-12.359-5.276-19.746-7.417
		l5.99-33.176l-33.122-5.98l-5.991,33.182c-9.213-0.632-17.507-0.303-26.125,0.687l-7.239-30.756l-33.111,7.903l7.323,30.665
		c-6.537,2.358-12.873,5.169-18.984,8.4l-17.946-25.86l-27.995,19.435l17.84,25.7c-6.684,5.811-12.859,12.229-18.438,19.188
		l-26.451-16.277l-17.861,29.027l26.262,15.915c-2.979,6.27-5.523,12.738-7.598,19.359l-30.58-5.521l-6.117,33.875l30.314,5.473
		c-0.678,9.206-0.485,18.225,0.501,27.079l-27.599,6.597l7.892,33.169l27.37-6.511c2.396,6.711,5.268,13.226,8.581,19.491
		l-23.058,16.007l19.434,28l22.902-15.896c5.967,6.86,12.573,13.185,19.75,18.876l-14.53,23.611l29.027,17.862l14.301-23.559
		c6.411,3.005,13.226,5.601,19.854,7.636l-4.926,27.283l33.121,5.98l4.926-27.277c9.975,0.726,18.855,0.389,27.842-0.712
		l7.038,28.785l33.253-7.877l-6.831-28.881c6.71-2.478,13.239-5.429,19.493-8.828l16.988,24.46l28.006-19.434l-17.087-24.619
		c6.75-6.007,12.968-12.643,18.551-19.836l25.681,15.803l17.863-29.027l-25.889-15.99c2.896-6.348,5.413-13.223,7.379-19.864
		L-2920-1116.854z M-3113.786-1049.096c-63.613-11.485-105.872-72.365-94.387-135.979c11.484-63.614,72.365-105.873,135.979-94.387
		c63.614,11.485,105.873,72.365,94.388,135.979C-2989.292-1079.869-3050.173-1037.61-3113.786-1049.096z"/>
</g>
<g>
	<path fill="#C1E5E2" d="M-7030.471-1214.487l41.338-14.004l-20.482-60.457l-41.204,13.958
		c-10.918-19.256-25.741-36.472-44.002-50.328l18.517-37.491l-57.204-28.253l-18.572,37.603c-21.479-5.816-43.49-7.126-64.815-4.34
		l-13.733-40.539l-60.457,20.481l13.623,40.213c-19.259,10.838-36.499,25.568-50.397,43.735l-37.603-18.572l-28.253,57.204
		l37.491,18.517c-6.08,22.102-7.387,44.782-4.353,66.709l-39.044,13.228l20.481,60.457l39.178-13.273
		c10.777,18.816,25.292,35.661,43.113,49.294l-19.294,39.065l57.204,28.253l19.24-38.954c22.28,6.129,45.146,7.403,67.237,4.274
		l13.502,39.856l60.457-20.481l-13.612-40.181c18.812-10.856,35.638-25.455,49.229-43.368l38.954,19.24l28.253-57.204
		l-39.065-19.294C-7028.88-1170.796-7027.593-1192.996-7030.471-1214.487z M-7196.459-1131.695
		c-32.76-0.214-59.144-26.944-58.93-59.704s26.943-59.145,59.704-58.931c32.76,0.214,59.144,26.944,58.93,59.704
		S-7163.699-1131.481-7196.459-1131.695z"/>
</g>
<g>
	<g>
		<path fill="#1C92A5" d="M-7053.712,336.259c7.516,25.381,17.137,51.659,28.203,75.919l-98.944,61.115l68.271,110.941
			l98.153-60.399c21.343,27.492,45.104,52.853,70.902,75.811l-65.304,94.096l107.034,74.275l64.932-93.487
			c23.899,12.99,48.856,24.269,74.502,33.739l-26.106,110.383l127.09,30.108l26.901-110.014
			c34.347,4.207,68.291,5.497,106.411,2.721l18.823,104.253l126.593-22.855l-18.826-104.275
			c25.333-7.78,51.379-17.699,75.882-29.187l54.658,90.042l110.941-68.27l-55.531-90.242c27.426-21.75,52.679-45.926,75.483-72.146
			l87.531,60.758l74.279-107.014l-88.13-61.181c12.665-23.943,23.639-48.846,32.795-74.495l104.611,24.885l30.165-126.772
			l-105.485-25.216c3.769-33.837,4.504-68.311,1.917-103.494l115.858-20.918l-23.375-129.471l-116.881,21.103
			c-7.926-25.307-17.655-50.03-29.035-73.991l100.372-60.827l-68.27-110.942l-101.096,62.213
			c-21.314-26.603-44.922-51.132-70.467-73.339l68.187-98.227l-107-74.282l-68.589,98.839
			c-23.358-12.349-47.574-23.093-72.557-32.107l27.988-117.202l-126.553-30.205l-27.667,117.55
			c-32.939-3.783-64.638-5.041-99.853-2.626l-22.897-126.822l-126.593,22.857l22.894,126.798
			c-28.232,8.183-51.747,17.383-75.468,28.348l-68.711-108.996l-110.942,68.269l67.065,108.981
			c-26.665,20.914-51.298,44.109-73.656,69.241l-104.79-72.744l-74.282,106.997l104.187,72.297
			c-12.667,23.315-23.73,47.496-33.051,72.479l-123.021-29.395l-30.211,126.511l121.963,28.636
			c-4.211,33.445-5.215,68.92-3.651,101.318l-115.272,20.812l23.375,129.471L-7053.712,336.259z M-6947.024,255.111
			c-43.897-243.132,117.616-475.814,360.748-519.711c243.132-43.897,475.814,117.616,519.711,360.748
			c43.897,243.133-117.615,475.815-360.748,519.711C-6670.444,659.756-6903.127,498.244-6947.024,255.111z"/>
	</g>
	<g>
		<g>
			<path fill="#3D6D7A" d="M-6234.441,395.322l77.37,40.137l61.24-118.049l-77.599-40.254
				c13.372-45.767,16.844-92.902,11.288-138.631l84.366-26.735l-40.193-126.839l-85.047,26.952
				c-21.636-39.266-50.996-74.623-87.271-103.531l40.254-77.601l-118.05-61.238l-40.133,77.372
				c-45.809-13.583-93.024-17.243-138.844-11.823l-27.392-86.446l-126.839,40.191l27.481,86.725
				c-28.098,15.366-54.198,34.701-77.402,57.666l96.6,79.379c66.269-65.5,159.556-74.824,246.722-29.607
				c108.223,56.141,150.443,189.384,94.302,297.603c-56.14,108.222-189.381,150.442-297.599,94.305
				c-74.753-38.779-117.993-114.343-119.102-193.038l-124.236-5.854c-1.468,20.903,0.349,20.888,2.628,41.504l-84.296,26.714
				l40.189,126.838l83.617-26.495c22.004,40.973,52.358,77.813,90.147,107.683l-41.702,80.387l118.048,61.238l41.819-80.619
				c44.894,13.116,91.104,16.716,136.013,11.605l26.045,82.195l126.837-40.194l-25.957-81.915
				C-6300.559,462.99-6264.069,432.81-6234.441,395.322z"/>
		</g>
		<path fill="#A3A3A3" d="M-6463.09,309.489l-145.909-47.327l-24.079-118.067l85.381-87.366l156.585,39.59
			c-4.712-22.21-9.796-16.549-23.34-36.492c-55.971-82.41-168.009-103.632-250.419-47.661c-8.933,6.066-17.103,12.83-24.58,20.11
			l0,0l-685.54-330.12c-44.65-20.065-97.112-0.136-117.177,44.515l-0.39,0.867c-20.065,44.649-0.135,97.112,44.515,117.177
			l704.227,294.638c-0.433,35.644,9.609,71.771,31.144,103.479c55.972,82.409,168.188,103.896,250.598,47.924
			C-6456.444,306.931-6468.146,313.81-6463.09,309.489z"/>
	</g>
	<polygon fill="#324758" points="-6574.373,249.163 -6467,278.763 -6399.613,209.238 -6421.856,115.004 -6529.229,85.404 
		-6592.1,156.174 	"/>
</g>
<g>
	<path fill="#273942" d="M-7255.803,2639.163c0,0-87.85,131.31,203.245,131.31c291.095,0,3704.574,8.438,3704.574,8.438
		s200.417,8.621,168.014-129.652L-7255.803,2639.163z"/>
	<path fill="#E6E6E8" d="M-3179.909,2649.474c13.827,48.674-19.744,73.103-69.717,73.103l-3936.959-8.439
		c-49.972,0-80.867-33.902-69.218-74.975l575.246-598.697c46.31-42.355,53.516-62.106,98.598-62.106h2717.779
		c21.692,0,58.781,16.841,102.129,62.106L-3179.909,2649.474z"/>
	<g>
		<path fill="#354F5C" d="M-6537.783,350.099c-45.083,0-81.121,36.91-81.121,83.252v1545.936c0,0,36.039-2.403,81.121-2.403h101.869
			l2460.583-1626.785H-6537.783z"/>
		<path fill="#273942" d="M-3924.682,350.099h-50.649l-2460.583,1626.785h2511.232c45.083,0,82.194,2.403,82.194,2.403V433.352
			C-3842.487,387.009-3879.599,350.099-3924.682,350.099z"/>
	</g>
	<path fill="#E2E2F7" d="M-5184.262,400.3c0,10.454-8.244,18.928-18.413,18.928h-36.827c-10.17,0-18.413-8.474-18.413-18.928l0,0
		c0-10.454,8.243-18.928,18.413-18.928h36.827C-5192.506,381.373-5184.262,389.847-5184.262,400.3L-5184.262,400.3z"/>
	<g>
		<polygon fill="#354F5C" points="-5780.139,2452.649 -5738.534,2349.34 -5936.994,2349.34 -5994.849,2452.649 		"/>
		<polygon fill="#354F5C" points="-5712.902,2315.998 -5679.749,2234.633 -5864.226,2234.633 -5910.437,2315.998 		"/>
		<polygon fill="#354F5C" points="-5670.012,2207.494 -5639.328,2131.093 -5810.978,2131.093 -5853.777,2207.494 		"/>
		<polygon fill="#354F5C" points="-5935.186,2207.494 -5891.499,2131.093 -6050.645,2131.093 -6105.564,2207.494 		"/>
		<polygon fill="#354F5C" points="-6085.268,2452.649 -6026.125,2349.34 -6210.127,2349.34 -6284.337,2452.649 		"/>
		<polygon fill="#354F5C" points="-5999.306,2315.998 -5952.08,2234.633 -6123.119,2234.633 -6182.45,2315.998 		"/>
		<polygon fill="#354F5C" points="-5436.799,2207.494 -5417.229,2131.093 -5562.734,2131.093 -5592.574,2207.494 		"/>
		<polygon fill="#354F5C" points="-6183.995,2207.494 -6128.22,2131.093 -6298.733,2131.093 -6366.544,2207.494 		"/>
		<polygon fill="#354F5C" points="-6293.183,2349.34 -6484.105,2349.34 -6581.879,2452.649 -6368.591,2452.649 		"/>
		<polygon fill="#354F5C" points="-6269.166,2317.711 -6205.077,2236.307 -6384.389,2236.307 -6457.61,2317.711 		"/>
		<polygon fill="#354F5C" points="-5455.759,2315.998 -5436.435,2234.633 -5609.081,2234.633 -5634.326,2315.998 		"/>
		<polygon fill="#354F5C" points="-6464.21,2236.22 -6624.386,2236.22 -6719.787,2311.547 -6537.965,2311.547 		"/>
		<polygon fill="#354F5C" points="-6577.842,2346.723 -6750.905,2346.723 -6869.629,2445.76 -6674.021,2445.76 		"/>
		<polygon fill="#354F5C" points="-6432.268,2202.348 -6367.256,2131.174 -6515.812,2131.174 -6590.953,2202.348 		"/>
		<polygon fill="#354F5C" points="-4105.957,2452.649 -3892.669,2452.649 -3990.83,2349.34 -4187.975,2349.34 		"/>
		<polygon fill="#354F5C" points="-4281.272,2234.633 -4215.639,2315.998 -4019.413,2315.998 -4098.017,2234.633 		"/>
		<polygon fill="#354F5C" points="-4113.54,2207.494 -4186.352,2131.093 -4356.864,2131.093 -4296.089,2207.494 		"/>
		<polygon fill="#354F5C" points="-4603.333,2315.998 -4654.381,2234.633 -4816.868,2234.633 -4777.32,2315.998 		"/>
		<polygon fill="#354F5C" points="-4521.393,2452.649 -4590.345,2349.34 -4765.147,2349.34 -4715.841,2452.649 		"/>
		<polygon fill="#354F5C" points="-4396.43,2207.494 -4446.601,2131.093 -4612.519,2131.093 -4558.289,2207.494 		"/>
		<polygon fill="#354F5C" points="-4305.669,2315.998 -4370.273,2234.633 -4543.756,2234.633 -4491.429,2315.998 		"/>
		<polygon fill="#354F5C" points="-4411.646,2452.649 -4209.733,2452.649 -4290.274,2349.34 -4476.904,2349.34 		"/>
		<polygon fill="#354F5C" points="-4662.427,2207.494 -4719.211,2131.093 -4880.631,2131.093 -4835.239,2207.494 		"/>
		<polygon fill="#354F5C" points="-3882.453,2349.34 -3782.728,2452.649 -3558.063,2452.649 -3674.794,2349.34 		"/>
		<polygon fill="#354F5C" points="-3822.97,2207.494 -3909.53,2131.093 -4089.137,2131.093 -4015.255,2207.494 		"/>
		<polygon fill="#354F5C" points="-3912.854,2315.998 -3706.163,2315.998 -3799.647,2234.633 -3992.676,2234.633 		"/>
		<polygon fill="#354F5C" points="-4914.698,2207.494 -4950.315,2131.093 -5120.829,2131.093 -5097.248,2207.494 		"/>
		<polygon fill="#354F5C" points="-4875.263,2315.998 -4913.691,2234.633 -5096.946,2234.633 -5071.489,2315.998 		"/>
		<polygon fill="#354F5C" points="-5180.779,2207.494 -5190.319,2131.093 -5347.913,2131.093 -5356.154,2207.494 		"/>
		<polygon fill="#354F5C" points="-5169.389,2315.998 -5183.571,2234.633 -5357.053,2234.633 -5368.941,2315.998 		"/>
		<polygon fill="#354F5C" points="-4864.747,2349.34 -5070.932,2349.34 -5256.55,2349.34 -5257.562,2349.34 -5449.341,2349.34 
			-5452.38,2349.34 -5654.371,2349.34 -5686.081,2452.649 -5464.678,2452.649 -5461.595,2452.649 -5253.838,2452.649 
			-5252.811,2452.649 -5051.925,2452.649 -4825.126,2452.649 		"/>
	</g>
	<g>
		<path fill="#273942" d="M-5690.697,2594.646l-12.432,7.546c-40.063,42.878-11.112,54.609,77.812,54.609h706.553
			c88.924,0,119.55-17.005,76.405-54.609l-12.312-7.546H-5690.697z"/>
		<path fill="#354F5C" d="M-4939.513,2521.977c-24.19-16.938-40.713-26.022-89.234-26.022l-489.836-0.774
			c-48.518,0-61.805,9.859-86.264,26.797l-85.789,72.669h836.06L-4939.513,2521.977z"/>
	</g>
	<g>
		<path fill="#6FADBC" d="M-4010.152,453.478h-2432.557c-45.083,0-81.723,37.243-81.723,82.658v1324.396
			c0,45.415,36.641,82.603,81.723,82.603h10.628l2424.297-1489.108C-4008.573,454.003-4009.357,453.478-4010.152,453.478z"/>
		<path fill="#589EA5" d="M-4008.067,454.329l-2424.014,1488.806h2421.929c45.083,0,81.064-37.188,81.064-82.603V536.136
			C-3929.088,491.521-3964.083,455.588-4008.067,454.329z"/>
	</g>
</g>
<g>
	<rect x="-6424.35" y="520.927" fill="#FEC524" width="2401.733" height="1338.116"/>
	<polygon points="-6238.499,520.927 -6424.35,719.163 -6424.35,520.927 	"/>
	<polygon points="-5998.803,520.927 -6424.35,973.146 -6424.35,1209.04 -5799.543,520.927 	"/>
	<polygon points="-5525.659,520.927 -6424.35,1493.283 -6424.35,1729.176 -5326.399,520.927 	"/>
	<polygon points="-5052.515,520.927 -6293.801,1863.493 -6072.595,1863.493 -4853.255,520.927 	"/>
	<polygon points="-4578.007,520.927 -5820.281,1858.842 -5595.619,1863.601 -4378.747,520.927 	"/>
	<polygon points="-4091.228,520.927 -5326.399,1859.043 -5104.817,1859.043 -4022.617,665.196 -4022.617,520.927 	"/>
	<polygon points="-4020.323,951.283 -4854.013,1859.043 -4640.317,1859.043 -4023.051,1179.639 	"/>
	<polygon points="-4022.617,1415.476 -4436.951,1863.601 -4224.618,1863.262 -4022.617,1636.642 	"/>
	<rect x="-6254.067" y="658.245" fill="#E5E7E9" width="2063.461" height="1036.363"/>
</g>
<g>
	<g>
		<path fill="#1C92A5" d="M27.78,175.048c1.184,5.597,2.806,11.423,4.774,16.838L10.19,203.355l12.805,25.071l22.181-11.328
			c4.127,6.289,8.811,12.16,13.975,17.548l-15.682,19.151l21.783,17.836l15.592-19.026c4.925,3.208,10.108,6.066,15.471,8.546
			l-7.518,23.332l26.862,8.666l7.683-23.238c7.326,1.496,14.617,2.355,22.877,2.411l2.267,22.782l27.663-2.752l-2.267-22.786
			c5.591-1.242,11.372-2.932,16.847-4.986l10.231,20.335l25.07-12.805l-10.416-20.393c6.282-4.215,12.137-8.99,17.499-14.247
			l17.814,14.59l17.837-21.779l-17.937-14.691c3.14-4.941,5.931-10.117,8.344-15.486l22.108,7.155l8.673-26.792l-22.292-7.242
			c1.393-7.225,2.143-14.639,2.188-22.262l25.317-2.519l-2.815-28.292l-25.541,2.541c-1.272-5.588-2.945-11.081-4.985-16.438
			l22.666-11.382l-12.805-25.071L248.841,81.47c-4.136-6.097-8.801-11.786-13.923-17.008l16.374-19.991l-21.776-17.837
			L213.044,46.75c-4.82-3.061-9.852-5.791-15.079-8.161l8.039-24.768L179.26,5.143l-7.977,24.849
			c-7.031-1.38-13.839-2.194-21.466-2.278L147.06,0l-27.663,2.753l2.757,27.708c-6.223,1.278-11.445,2.857-16.744,4.812
			L92.477,10.615l-25.07,12.804l12.578,24.627c-6.103,4.048-11.808,8.623-17.055,13.653L41.603,44.231L23.766,66.007L44.97,83.368
			c-3.129,4.806-5.927,9.825-8.363,15.047l-25.998-8.442l-8.678,26.735l25.783,8.261c-1.481,7.133-2.306,14.758-2.524,21.764
			L0,149.24l2.814,28.292L27.78,175.048z M52.156,159.396c-5.287-53.129,33.498-100.485,86.628-105.771
			c53.13-5.287,100.485,33.498,105.772,86.628c5.286,53.13-33.499,100.486-86.629,105.772
			C104.799,251.311,57.442,212.526,52.156,159.396z"/>
	</g>
	<g>
		<path fill="none" d="M-831.315-137.284c-23.571-2.757-47.149,9.992-57.099,32.882c-12.169,27.999,0.663,60.562,28.661,72.731
			c6.417,2.789,13.072,4.261,19.668,4.542"/>
		<path fill="#707B8F" d="M-687.199-41.895l40.552,3.123l4.566-59.309l-40.421-3.113c-2.312-20.499-8.716-40.676-19.298-59.233
			l29.589-25.357l-38.689-45.145l-29.676,25.432c-16.28-12.844-34.665-22.021-53.962-27.436l3.02-39.772l-28.924-2.228
			l-10.959,137.64c5.284,0.617,10.566,2.003,15.676,4.224c27.999,12.17,40.809,44.731,28.64,72.729
			c-9.381,21.583-30.644,34.168-53.085,33.202l-10.727,134.726l29.918,2.304l3.057-39.416c20.095-2.421,39.867-8.776,58.069-19.155
			l26.353,30.742l45.146-38.688l-26.42-30.83C-701.824-3.868-692.597-22.422-687.199-41.895z"/>
		<path fill="#8992A0" d="M-859.796-31.674c-27.998-12.17-40.852-44.734-28.683-72.732c9.948-22.89,33.593-35.634,57.077-32.884
			l10.959-137.64l-30.385-2.34l-3.016,39.452c-20.473,2.242-40.625,8.56-59.185,19.044l-25.427-29.675l-45.143,38.689l25.359,29.588
			c-13.298,16.717-22.716,35.677-28.138,55.58l-38.304-2.949l-4.566,59.308l38.434,2.959c2.354,20.069,8.63,39.817,18.914,58.022
			l-30.83,26.421l38.689,45.145l30.741-26.346c16.853,13.404,35.984,22.862,56.062,28.264l-3.054,39.096l29.391,2.263
			l10.727-134.726C-846.668-27.409-853.38-28.885-859.796-31.674z"/>
	</g>
</g>
<g>
	<g>
		<g>
			<path fill="#1C92A5" d="M-5432.487-210.221l429.612-429.612c64.938,22.535,139.916,7.874,191.782-43.993
				c38.571-38.571,56.562-89.924,53.987-140.424l-100.625,89.051l-127.399-33.142l-29.627-148.548l99.595-81.094
				c-55.891-8.151-114.793,9.274-157.803,52.284c-51.68,51.68-66.416,126.305-44.229,191.081l-430.078,430.078
				c-64.776-22.188-139.4-7.451-191.081,44.229c-38.818,38.818-56.787,90.583-53.93,141.395l101.501-82.645l126.153,26.893
				l29.627,148.548l-91.449,80.93c53.514,5.498,108.965-12.245,149.969-53.25C-5424.614-70.305-5409.953-145.283-5432.487-210.221z"
				/>
		</g>
		<path fill="#18818C" d="M-5547.351-324.459c0,0,80.317,48.935,114.754,114.349l30.742-30.742c0,0-20.051-59.819-114.552-114.551
			L-5547.351-324.459z"/>
		<path fill="#18818C" d="M-5117.953-753.857c0,0,48.935,80.317,114.349,114.754l-30.742,30.742c0,0-59.819-20.051-114.551-114.551
			L-5117.953-753.857z"/>
		<path fill="#18818C" d="M-5381.677-333.156c-11.661,11.66-30.565,11.66-42.226,0l-0.201-0.201c-11.66-11.66-11.66-30.565,0-42.226
			l255.466-255.466c11.66-11.661,30.566-11.661,42.227,0l0.2,0.2c11.66,11.661,11.66,30.565,0,42.226L-5381.677-333.156z"/>
	</g>
	<g>
		<polygon fill="#A3A3A3" points="-5061.174,-383.755 -5103.271,-341.658 -5601.306,-839.692 -5636.696,-840.471 
			-5671.722,-927.123 -5647.452,-951.393 -5557.617,-917.363 -5558.824,-881.405 		"/>
		<g>
			<path fill="#F9A52B" d="M-5194.207-341.233l25.456,25.456l-0.096,0.095c0,0,48.065-42.997,46.629,0.344l0.129-0.111
				c-8.646,18.958-7.983,38.35,3.542,49.876l319.612,319.612c16.793,16.792,50.282,10.529,74.801-13.989l19.199-19.199
				l-425.678-425.678L-5194.207-341.233z"/>
			<path fill="#EA9524" d="M-5034.397-450.13l0.896-0.896l-25.456-25.456l-71.655,71.655l425.678,425.678l27.261-27.26
				c24.519-24.519,30.782-58.008,13.989-74.801l-319.612-319.612c-11.878-11.878-32.108-12.207-51.609-2.714
				C-5076.72-402.806-5034.397-450.13-5034.397-450.13z"/>
		</g>
		<path fill="#EA9524" d="M-4775.812,28.795c2.539,2.539,1.99,7.203-1.226,10.418l0,0c-3.216,3.215-7.88,3.764-10.418,1.226
			l-322.44-322.441c-2.539-2.539-1.99-7.203,1.226-10.418l0,0c3.216-3.215,7.88-3.764,10.418-1.226L-4775.812,28.795z"/>
		<path fill="#EA9524" d="M-4750.731,3.716c2.538,2.538,1.989,7.203-1.227,10.418l0,0c-3.215,3.216-7.879,3.765-10.418,1.226
			l-322.44-322.441c-2.538-2.538-1.989-7.203,1.226-10.418l0,0c3.215-3.215,7.88-3.764,10.418-1.226L-4750.731,3.716z"/>
		<path fill="#D18619" d="M-4724.757-22.259c2.539,2.539,1.99,7.203-1.226,10.418l0,0c-3.216,3.215-7.88,3.764-10.418,1.226
			l-322.44-322.44c-2.539-2.539-1.99-7.203,1.226-10.418l0,0c3.215-3.215,7.88-3.764,10.418-1.226L-4724.757-22.259z"/>
		<path fill="#D18619" d="M-4699.678-47.338c2.539,2.539,1.99,7.203-1.226,10.418l0,0c-3.215,3.215-7.88,3.764-10.418,1.226
			l-322.441-322.441c-2.538-2.539-1.989-7.203,1.227-10.418l0,0c3.215-3.215,7.88-3.764,10.418-1.226L-4699.678-47.338z"/>
		<path fill="#D18619" d="M-4675.494-71.522c2.539,2.539,1.99,7.203-1.226,10.418l0,0c-3.215,3.215-7.88,3.764-10.418,1.226
			l-322.44-322.44c-2.538-2.539-1.989-7.203,1.226-10.418l0,0c3.215-3.215,7.88-3.764,10.418-1.226L-4675.494-71.522z"/>
	</g>
</g>
<g>
	<path fill="#354F5C" d="M-5753.613,784.256v186.489c0,24.296,5.19,42.158,15.573,53.589c10.38,11.435,23.359,17.148,38.932,17.148
		s28.549-5.714,38.932-17.148c10.379-11.431,15.573-29.293,15.573-53.589V784.256h46.718v203.638c0,32.87-9.604,60.736-28.81,83.599
		c-19.208,22.865-43.346,34.297-72.413,34.297c-29.07,0-53.208-11.432-72.414-34.297c-19.208-22.862-28.81-50.729-28.81-83.599
		V784.256H-5753.613z"/>
	<path fill="#354F5C" d="M-5547.43,1105.79V784.256h15.573l146.384,201.494V784.256h46.719v321.533h-17.13l-144.827-199.351v199.351
		H-5547.43z"/>
	<path fill="#354F5C" d="M-5290.322,1053.79V732.042h90.011c72.67,0,109.01,53.662,109.01,160.98
		c0,107.178-36.34,160.767-109.01,160.767H-5290.322z M-5200.311,989.698c41.422-0.142,62.186-32.368,62.291-96.675
		c-0.105-64.307-20.869-96.46-62.291-96.46h-43.293v193.135H-5200.311z"/>
	<path fill="#354F5C" d="M-5041.78,1105.79V784.471l171.613-0.215v60.02h-124.895v68.594h93.593v59.806h-93.593v73.095h124.583
		v60.02H-5041.78z"/>
	<path fill="#354F5C" d="M-4682.515,965.601l58.242,140.188h-53.57l-55.906-132.9h-42.67v132.9h-46.719V784.256h101.847
		c54.505,0,81.757,30.867,81.757,92.602C-4639.534,923.303-4653.86,952.884-4682.515,965.601z M-4776.419,912.87h65.406
		c18.789-0.429,28.444-12.218,28.965-35.368c-0.521-21.147-10.02-32.153-28.498-33.011h-65.873V912.87z"/>
</g>
<g>
	<g>
		<path fill="#D18619" d="M-3928.198-1336.472c-10.039,7.661-12.594,20.368-6.192,28.755l475.411,623.016
			c6.4,8.387,19.396,9.364,29.435,1.703l20.378-15.55l-498.654-653.474L-3928.198-1336.472z"/>
		<path fill="#C17A1B" d="M-3887.616-1367.439l-20.205,15.418l498.654,653.474l20.204-15.418
			c10.039-7.66,12.702-20.585,6.302-28.973l-475.412-623.015C-3864.473-1374.341-3877.577-1375.1-3887.616-1367.439z"/>
	</g>
	<g>
		<path fill="#354F5C" d="M-3612.206-1414.649c-104.89,70.248-199.789,25.983-199.789,25.983l-78.233,59.699l107.375,140.711
			l217.029-165.611L-3612.206-1414.649z"/>
		
			<rect x="-4010.899" y="-1301.095" transform="matrix(-0.6066 -0.795 0.795 -0.6066 -5353.3887 -5035.0938)" fill="#405B66" width="177" height="216"/>
	</g>
</g>
<g>
	<g>
		<path fill="#354F5C" d="M-3093.251,1952.049c-0.104,3.448-0.312,6.934-0.619,10.361l-9.154-0.821
			c0.291-3.245,0.488-6.548,0.586-9.813L-3093.251,1952.049z M-3094.354,1967.104c-0.4,3.423-0.91,6.878-1.516,10.27l-9.047-1.612
			c0.572-3.212,1.055-6.484,1.434-9.726L-3094.354,1967.104z M-3096.764,1982.025c-0.698,3.38-1.508,6.784-2.407,10.117
			l-8.873-2.395c0.852-3.157,1.618-6.38,2.279-9.581L-3096.764,1982.025z M-3100.465,1996.693c-0.989,3.306-2.091,6.624-3.276,9.864
			l-8.632-3.155c1.122-3.069,2.165-6.213,3.103-9.344L-3100.465,1996.693z M-3105.423,2010.975
			c-1.271,3.205-2.656,6.414-4.116,9.539l-8.327-3.89c1.383-2.961,2.695-6.002,3.898-9.038L-3105.423,2010.975z M-3111.595,2024.767
			c-1.543,3.083-3.197,6.159-4.921,9.146l-7.962-4.593c1.633-2.829,3.201-5.745,4.662-8.665L-3111.595,2024.767z M-3118.929,2037.97
			c-1.801,2.936-3.714,5.858-5.686,8.686l-7.539-5.259c1.869-2.68,3.683-5.449,5.389-8.231L-3118.929,2037.97z M-3127.366,2050.489
			c-2.045,2.77-4.2,5.516-6.406,8.163l-7.061-5.885c2.092-2.509,4.135-5.112,6.072-7.737L-3127.366,2050.489z M-3136.841,2062.233
			c-2.276,2.586-4.658,5.138-7.082,7.583l-6.529-6.469c2.297-2.317,4.555-4.735,6.711-7.186L-3136.841,2062.233z M-3147.284,2073.12
			c-2.488,2.381-5.081,4.717-7.703,6.944l-5.949-7.007c2.484-2.109,4.941-4.323,7.299-6.58L-3147.284,2073.12z M-3158.618,2083.065
			c-2.686,2.158-5.468,4.262-8.271,6.253l-5.322-7.492c2.654-1.887,5.291-3.88,7.834-5.925L-3158.618,2083.065z M-3170.763,2091.993
			c-2.859,1.918-5.812,3.773-8.775,5.515l-4.656-7.925c2.807-1.649,5.604-3.407,8.312-5.223L-3170.763,2091.993z
			 M-3183.626,2099.834c-3.015,1.664-6.121,3.259-9.234,4.741l-3.951-8.299c2.947-1.403,5.891-2.914,8.746-4.489L-3183.626,2099.834
			z M-3197.148,2106.546c-3.148,1.396-6.382,2.714-9.611,3.92l-3.216-8.61c3.059-1.143,6.121-2.392,9.104-3.713L-3197.148,2106.546z
			 M-3211.202,2112.057c-3.258,1.116-6.594,2.149-9.915,3.07l-2.457-8.855c3.146-0.873,6.306-1.853,9.391-2.91L-3211.202,2112.057z
			 M-3225.68,2116.329c-3.338,0.829-6.749,1.571-10.14,2.204l-1.687-9.035c3.212-0.6,6.445-1.303,9.608-2.089L-3225.68,2116.329z
			 M-3240.467,2119.337c-1.942,0.31-3.923,0.591-5.885,0.837c-1.46,0.183-2.942,0.35-4.404,0.496l-0.915-9.146
			c1.387-0.139,2.791-0.297,4.177-0.471c1.86-0.233,3.739-0.5,5.581-0.794L-3240.467,2119.337z M-3256.126,2111.911l0.672,9.167
			c-3.442,0.252-6.93,0.404-10.367,0.453l-0.129-9.19C-3262.694,2112.294-3259.389,2112.15-3256.126,2111.911z M-3270.421,2112.343
			l-0.117,9.19c-3.449-0.044-6.938-0.192-10.369-0.441l0.664-9.166C-3276.993,2112.162-3273.688,2112.301-3270.421,2112.343z
			 M-3284.696,2111.542l-0.913,9.146c-3.429-0.342-6.892-0.792-10.294-1.338l1.457-9.076
			C-3291.224,2110.792-3287.944,2111.218-3284.696,2111.542z M-3298.849,2109.506l-1.703,9.031
			c-3.393-0.64-6.811-1.391-10.158-2.232l2.242-8.914C-3305.299,2108.188-3302.062,2108.9-3298.849,2109.506z M-3312.8,2106.239
			l-2.483,8.85c-3.322-0.932-6.659-1.977-9.919-3.105l3.006-8.686C-3319.108,2104.367-3315.946,2105.356-3312.8,2106.239z
			 M-3326.409,2101.774l-3.241,8.602c-3.226-1.217-6.458-2.546-9.608-3.952l3.747-8.394
			C-3332.528,2099.363-3329.465,2100.623-3326.409,2101.774z M-3339.574,2096.15l-3.973,8.289c-3.109-1.49-6.214-3.094-9.228-4.765
			l4.455-8.038C-3345.462,2093.219-3342.521,2094.739-3339.574,2096.15z M-3352.202,2089.414l-4.672,7.916
			c-2.967-1.751-5.92-3.614-8.781-5.538l5.131-7.626C-3357.814,2085.989-3355.014,2087.754-3352.202,2089.414z M-3364.202,2081.62
			l-5.332,7.486c-2.805-1.998-5.588-4.107-8.271-6.269l5.765-7.159C-3369.497,2077.727-3366.86,2079.726-3364.202,2081.62z
			 M-3375.483,2072.829l-5.955,7.002c-2.624-2.232-5.215-4.571-7.701-6.952l6.356-6.639
			C-3380.427,2068.497-3377.971,2070.713-3375.483,2072.829z M-3385.968,2063.108l-6.533,6.465
			c-2.422-2.449-4.803-5.001-7.074-7.586l6.904-6.067C-3390.519,2058.369-3388.263,2060.787-3385.968,2063.108z M-3395.573,2052.527
			l-7.064,5.88c-2.201-2.646-4.354-5.393-6.394-8.163l7.4-5.45C-3399.697,2047.418-3397.659,2050.02-3395.573,2052.527z
			 M-3404.228,2041.167l-7.545,5.249c-1.964-2.823-3.869-5.743-5.664-8.681l7.844-4.791
			C-3407.894,2035.726-3406.087,2038.493-3404.228,2041.167z M-3411.862,2029.11l-7.971,4.578c-1.712-2.98-3.357-6.055-4.89-9.135
			l8.229-4.094C-3415.042,2023.377-3413.483,2026.288-3411.862,2029.11z M-3418.429,2016.431l-8.338,3.868
			c-1.451-3.128-2.826-6.339-4.086-9.543l8.555-3.362C-3421.104,2010.428-3419.804,2013.469-3418.429,2016.431z M-3432.157,1923.079
			c-0.461,3.23-0.831,6.517-1.1,9.77l-9.16-0.756c0.283-3.434,0.674-6.904,1.162-10.314L-3432.157,1923.079z M-3423.877,2003.211
			l-8.642,3.13c-1.172-3.235-2.263-6.553-3.242-9.859l8.813-2.609C-3426.021,1997.004-3424.987,2000.147-3423.877,2003.211z
			 M-3433.563,1937.307c-0.18,3.256-0.264,6.562-0.248,9.828l-9.191,0.04c-0.016-3.447,0.073-6.938,0.263-10.374L-3433.563,1937.307
			z M-3428.157,1989.57l-8.881,2.37c-0.888-3.325-1.688-6.724-2.377-10.101l9.004-1.841
			C-3429.757,1983.2-3428.999,1986.419-3428.157,1989.57z M-3433.732,1951.606c0.101,3.254,0.302,6.557,0.596,9.816l-9.153,0.826
			c-0.311-3.438-0.521-6.923-0.629-10.356L-3433.732,1951.606z M-3431.247,1975.606l-9.051,1.6c-0.6-3.387-1.107-6.846-1.507-10.267
			l9.129-1.068C-3432.296,1969.119-3431.814,1972.395-3431.247,1975.606z"/>
		<path fill="#354F5C" d="M-3105.325,1107.434c0.368,2.94,0.651,5.926,0.842,8.873l-9.172,0.592
			c-0.209-3.235-0.539-6.513-0.974-9.733l9.108-1.233C-3105.454,1106.431-3105.388,1106.932-3105.325,1107.434z M-3106.232,1101.249
			l-9.063,1.525c-0.541-3.208-1.201-6.431-1.964-9.578l8.933-2.164C-3107.514,1094.389-3106.81,1097.827-3106.232,1101.249z
			 M-3109.52,1086.44l-8.857,2.454c-0.867-3.131-1.858-6.267-2.946-9.32l8.659-3.083
			C-3111.503,1079.751-3110.444,1083.098-3109.52,1086.44z M-3114.327,1072.048l-8.554,3.364c-1.188-3.02-2.501-6.033-3.903-8.96
			l8.289-3.972C-3116.999,1065.605-3115.597,1068.824-3114.327,1072.048z M-3120.616,1058.237l-8.154,4.24
			c-1.495-2.873-3.115-5.73-4.814-8.494l7.829-4.815C-3123.941,1052.118-3122.212,1055.168-3120.616,1058.237z M-3128.302,1045.177
			l-7.667,5.069c-1.786-2.703-3.696-5.378-5.675-7.951l7.283-5.604C-3132.247,1039.437-3130.208,1042.292-3128.302,1045.177z
			 M-3137.308,1032.985l-7.1,5.838c-2.06-2.505-4.238-4.969-6.473-7.322l6.664-6.329
			C-3141.831,1027.682-3139.507,1030.311-3137.308,1032.985z M-3147.534,1021.789l-6.457,6.542
			c-2.311-2.281-4.732-4.508-7.198-6.617l5.976-6.983C-3152.585,1016.98-3149.999,1019.355-3147.534,1021.789z M-3158.866,1011.706
			l-5.746,7.174c-2.534-2.03-5.174-3.995-7.846-5.84l5.223-7.563C-3164.386,1007.444-3161.569,1009.541-3158.866,1011.706z
			 M-3171.184,1002.843l-4.976,7.729c-2.731-1.759-5.561-3.44-8.408-4.998l4.412-8.063
			C-3177.117,999.172-3174.099,1000.966-3171.184,1002.843z M-3184.356,995.299l-4.148,8.201c-2.898-1.466-5.887-2.845-8.882-4.1
			l3.552-8.478C-3190.64,992.262-3187.45,993.734-3184.356,995.299z M-3198.247,989.16l-3.273,8.588
			c-3.037-1.157-6.153-2.218-9.262-3.153l2.647-8.801C-3204.816,986.791-3201.489,987.923-3198.247,989.16z M-3212.712,984.498
			l-2.357,8.884c-3.143-0.834-6.354-1.562-9.543-2.168l1.711-9.03C-3219.495,982.829-3216.067,983.608-3212.712,984.498z
			 M-3227.578,981.377l-1.413,9.082c-3.203-0.499-6.469-0.888-9.706-1.155l0.757-9.159
			C-3234.484,980.43-3230.998,980.844-3227.578,981.377z M-3242.674,979.831l-0.458,9.181c-3.238-0.161-6.526-0.208-9.773-0.137
			l-0.201-9.188C-3249.64,979.61-3246.13,979.659-3242.674,979.831z M-3257.846,979.866l0.498,9.178
			c-3.236,0.176-6.515,0.469-9.741,0.873c-1.865,0.234-3.751,0.51-5.603,0.818l-1.513-9.065c1.975-0.33,3.984-0.623,5.973-0.872
			C-3264.791,980.366-3261.297,980.053-3257.846,979.866z M-3277.064,991.537c-3.19,0.639-6.392,1.398-9.513,2.258l-2.44-8.861
			c3.331-0.917,6.745-1.728,10.148-2.409L-3277.064,991.537z M-3290.842,995.044c-3.099,0.964-6.202,2.052-9.224,3.235l-3.352-8.559
			c3.227-1.264,6.539-2.426,9.846-3.453L-3290.842,995.044z M-3304.175,999.967c-2.979,1.28-5.951,2.688-8.834,4.182l-4.229-8.16
			c3.078-1.596,6.251-3.098,9.433-4.465L-3304.175,999.967z M-3316.92,1006.258c-2.829,1.586-5.636,3.295-8.341,5.078l-5.059-7.674
			c2.888-1.904,5.884-3.729,8.904-5.422L-3316.92,1006.258z M-3328.924,1013.837c-2.646,1.869-5.26,3.861-7.771,5.921l-5.828-7.107
			c2.68-2.198,5.471-4.324,8.294-6.319L-3328.924,1013.837z M-3340.081,1022.627c-2.439,2.137-4.834,4.391-7.119,6.698l-6.533-6.466
			c2.438-2.462,4.994-4.866,7.598-7.146L-3340.081,1022.627z M-3350.273,1032.534c-2.209,2.381-4.359,4.871-6.392,7.4l-7.166-5.757
			c2.168-2.698,4.462-5.354,6.818-7.895L-3350.273,1032.534z M-3359.394,1043.444c-1.951,2.598-3.834,5.297-5.594,8.023
			l-7.722-4.986c1.878-2.908,3.886-5.788,5.968-8.559L-3359.394,1043.444z M-3367.339,1055.242c-1.675,2.787-3.269,5.667-4.736,8.56
			l-8.196-4.159c1.566-3.087,3.267-6.16,5.053-9.133L-3367.339,1055.242z M-3374.024,1067.803c-1.377,2.943-2.662,5.974-3.822,9.005
			l-8.585-3.286c1.239-3.234,2.611-6.469,4.079-9.611L-3374.024,1067.803z M-3379.37,1080.993c-1.062,3.072-2.025,6.22-2.862,9.356
			l-8.88-2.37c0.893-3.35,1.922-6.71,3.055-9.989L-3379.37,1080.993z M-3383.312,1094.672c-0.732,3.162-1.36,6.39-1.864,9.595
			l-9.079-1.427c0.537-3.423,1.207-6.87,1.99-10.245L-3383.312,1094.672z M-3385.794,1108.667c-0.398,3.219-0.685,6.495-0.851,9.737
			l-9.179-0.471c0.178-3.461,0.482-6.959,0.908-10.396L-3385.794,1108.667z M-3386.8,1122.846c-0.061,3.24-0.004,6.528,0.167,9.774
			l-9.179,0.484c-0.182-3.463-0.242-6.973-0.178-10.43L-3386.8,1122.846z"/>
		<path fill="#354F5C" d="M-3386.995,1130.793l-0.582,10.094l-9.176-0.529l0.582-10.094L-3386.995,1130.793z M-3387.841,1145.475
			l-0.583,10.093l-9.176-0.529l0.581-10.093L-3387.841,1145.475z M-3388.688,1160.157l-0.582,10.094l-9.177-0.53l0.582-10.093
			L-3388.688,1160.157z M-3389.536,1174.838l-0.582,10.093l-9.176-0.529l0.582-10.094L-3389.536,1174.838z M-3390.383,1189.52
			l-0.583,10.094l-9.176-0.53l0.582-10.094L-3390.383,1189.52z M-3391.229,1204.202l-0.583,10.093l-9.177-0.529l0.583-10.094
			L-3391.229,1204.202z M-3392.077,1218.882l-0.582,10.095l-9.177-0.53l0.583-10.094L-3392.077,1218.882z M-3392.925,1233.565
			l-0.582,10.093l-9.176-0.529l0.582-10.094L-3392.925,1233.565z M-3393.771,1248.246l-0.583,10.094l-9.176-0.529l0.583-10.094
			L-3393.771,1248.246z M-3394.618,1262.927l-0.583,10.094l-9.176-0.529l0.583-10.094L-3394.618,1262.927z M-3395.466,1277.609
			l-0.582,10.094l-9.176-0.53l0.582-10.093L-3395.466,1277.609z M-3396.312,1292.291l-0.583,10.093l-9.176-0.529l0.582-10.093
			L-3396.312,1292.291z M-3397.16,1306.972l-0.583,10.094l-9.176-0.53l0.582-10.093L-3397.16,1306.972z M-3398.007,1321.654
			l-0.583,10.093l-9.176-0.529l0.582-10.094L-3398.007,1321.654z M-3398.854,1336.335l-0.582,10.093l-9.176-0.529l0.582-10.093
			L-3398.854,1336.335z M-3399.702,1351.017l-0.582,10.093l-9.176-0.529l0.582-10.094L-3399.702,1351.017z M-3400.549,1365.698
			l-0.583,10.094l-9.176-0.529l0.582-10.094L-3400.549,1365.698z M-3401.396,1380.379l-0.583,10.094l-9.177-0.529l0.584-10.094
			L-3401.396,1380.379z M-3402.243,1395.061l-0.582,10.094l-9.177-0.529l0.583-10.094L-3402.243,1395.061z M-3403.091,1409.743
			l-0.582,10.094l-9.176-0.529l0.582-10.094L-3403.091,1409.743z M-3403.938,1424.424l-0.583,10.094l-9.176-0.529l0.583-10.094
			L-3403.938,1424.424z M-3404.784,1439.106l-0.583,10.094l-9.176-0.529l0.583-10.094L-3404.784,1439.106z M-3405.632,1453.788
			l-0.582,10.094l-9.176-0.529l0.582-10.094L-3405.632,1453.788z M-3406.479,1468.469l-0.583,10.094l-9.176-0.529l0.582-10.094
			L-3406.479,1468.469z M-3407.326,1483.151l-0.583,10.094l-9.176-0.529l0.582-10.094L-3407.326,1483.151z M-3408.173,1497.833
			l-0.583,10.094l-9.176-0.529l0.582-10.094L-3408.173,1497.833z M-3409.021,1512.514l-0.582,10.094l-9.176-0.53l0.582-10.093
			L-3409.021,1512.514z M-3409.868,1527.196l-0.582,10.094l-9.176-0.53l0.582-10.093L-3409.868,1527.196z M-3410.715,1541.877
			l-0.582,10.094l-9.177-0.529l0.582-10.094L-3410.715,1541.877z M-3411.562,1556.559l-0.582,10.093l-9.178-0.529l0.583-10.094
			L-3411.562,1556.559z M-3412.409,1571.241l-0.582,10.093l-9.176-0.529l0.582-10.094L-3412.409,1571.241z M-3413.257,1585.922
			l-0.582,10.093l-9.176-0.529l0.582-10.094L-3413.257,1585.922z M-3414.104,1600.603l-0.583,10.094l-9.176-0.529l0.583-10.094
			L-3414.104,1600.603z M-3414.95,1615.285l-0.583,10.094l-9.176-0.529l0.583-10.094L-3414.95,1615.285z M-3415.798,1629.966
			l-0.582,10.094l-9.176-0.529l0.582-10.094L-3415.798,1629.966z M-3416.645,1644.648l-0.583,10.094l-9.176-0.53l0.582-10.093
			L-3416.645,1644.648z M-3417.492,1659.33l-0.583,10.094l-9.176-0.53l0.582-10.094L-3417.492,1659.33z M-3418.339,1674.011
			l-0.583,10.094l-9.176-0.53l0.582-10.093L-3418.339,1674.011z M-3419.187,1688.692l-0.582,10.094l-9.176-0.529l0.582-10.094
			L-3419.187,1688.692z M-3420.034,1703.374l-0.582,10.094l-9.176-0.529l0.582-10.094L-3420.034,1703.374z M-3420.881,1718.055
			l-0.583,10.094l-9.176-0.529l0.582-10.094L-3420.881,1718.055z M-3421.728,1732.737l-0.583,10.094l-9.177-0.529l0.583-10.094
			L-3421.728,1732.737z M-3422.575,1747.418l-0.582,10.094l-9.177-0.529l0.583-10.094L-3422.575,1747.418z M-3423.423,1762.1
			l-0.582,10.094l-9.176-0.529l0.582-10.094L-3423.423,1762.1z M-3424.27,1776.782l-0.583,10.094l-9.176-0.529l0.583-10.094
			L-3424.27,1776.782z M-3425.116,1791.463l-0.583,10.094l-9.176-0.53l0.583-10.093L-3425.116,1791.463z M-3425.964,1806.145
			l-0.582,10.094l-9.176-0.53l0.582-10.093L-3425.964,1806.145z M-3426.811,1820.827l-0.583,10.094l-9.176-0.53l0.582-10.093
			L-3426.811,1820.827z M-3427.657,1835.508l-0.583,10.093l-9.177-0.529l0.584-10.093L-3427.657,1835.508z M-3428.505,1850.19
			l-0.582,10.093l-9.176-0.529l0.582-10.094L-3428.505,1850.19z M-3429.353,1864.871l-0.582,10.094l-9.176-0.529l0.582-10.094
			L-3429.353,1864.871z M-3430.199,1879.552l-0.583,10.094l-9.176-0.529l0.582-10.094L-3430.199,1879.552z M-3431.046,1894.234
			l-0.583,10.094l-9.177-0.529l0.583-10.094L-3431.046,1894.234z M-3431.894,1908.916l-0.582,10.094l-9.177-0.53l0.583-10.093
			L-3431.894,1908.916z"/>
		<path fill="#354F5C" d="M-3104.587,1113.555l0.098,6.484l-9.191,0.137l-0.096-6.484L-3104.587,1113.555z M-3104.422,1124.634
			l0.15,10.109l-9.19,0.138l-0.15-10.109L-3104.422,1124.634z M-3104.204,1139.338l0.151,10.109l-9.19,0.137l-0.15-10.108
			L-3104.204,1139.338z M-3103.984,1154.043l0.149,10.109l-9.189,0.136l-0.15-10.108L-3103.984,1154.043z M-3103.766,1168.749
			l0.15,10.108l-9.19,0.136l-0.15-10.108L-3103.766,1168.749z M-3103.548,1183.452l0.15,10.109l-9.189,0.137l-0.15-10.109
			L-3103.548,1183.452z M-3103.329,1198.156l0.15,10.11l-9.189,0.136l-0.15-10.109L-3103.329,1198.156z M-3103.11,1212.861
			l0.15,10.108l-9.19,0.137l-0.149-10.108L-3103.11,1212.861z M-3102.892,1227.565l0.15,10.109l-9.19,0.136l-0.15-10.108
			L-3102.892,1227.565z M-3102.673,1242.27l0.15,10.108l-9.19,0.136l-0.15-10.108L-3102.673,1242.27z M-3102.454,1256.973
			l0.15,10.109l-9.191,0.137l-0.149-10.109L-3102.454,1256.973z M-3102.235,1271.678l0.15,10.109l-9.191,0.136l-0.149-10.108
			L-3102.235,1271.678z M-3102.017,1286.381l0.15,10.109l-9.191,0.137l-0.15-10.108L-3102.017,1286.381z M-3101.799,1301.086
			l0.15,10.108l-9.19,0.138l-0.15-10.109L-3101.799,1301.086z M-3101.579,1315.791l0.15,10.109l-9.191,0.136l-0.15-10.108
			L-3101.579,1315.791z M-3101.36,1330.495l0.149,10.109l-9.19,0.137l-0.15-10.109L-3101.36,1330.495z M-3101.143,1345.199
			l0.15,10.11l-9.19,0.136l-0.15-10.109L-3101.143,1345.199z M-3100.924,1359.904l0.149,10.108l-9.189,0.137l-0.15-10.109
			L-3100.924,1359.904z M-3100.706,1374.608l0.15,10.109l-9.189,0.137l-0.15-10.109L-3100.706,1374.608z M-3100.487,1389.313
			l0.15,10.108l-9.189,0.136l-0.15-10.108L-3100.487,1389.313z M-3100.269,1404.016l0.15,10.109l-9.189,0.137l-0.15-10.109
			L-3100.269,1404.016z M-3100.05,1418.721l0.15,10.108l-9.19,0.137l-0.149-10.108L-3100.05,1418.721z M-3099.831,1433.425
			l0.15,10.108l-9.191,0.137l-0.149-10.109L-3099.831,1433.425z M-3099.612,1448.129l0.15,10.108l-9.19,0.138l-0.15-10.109
			L-3099.612,1448.129z M-3099.394,1462.833l0.15,10.109l-9.19,0.137l-0.151-10.108L-3099.394,1462.833z M-3099.175,1477.538
			l0.15,10.109l-9.191,0.137l-0.15-10.109L-3099.175,1477.538z M-3098.956,1492.243l0.15,10.109l-9.191,0.137l-0.15-10.11
			L-3098.956,1492.243z M-3098.737,1506.947l0.149,10.108l-9.19,0.137l-0.15-10.109L-3098.737,1506.947z M-3098.52,1521.651
			l0.15,10.109l-9.19,0.137l-0.15-10.109L-3098.52,1521.651z M-3098.302,1536.355l0.151,10.109l-9.19,0.137l-0.15-10.109
			L-3098.302,1536.355z M-3098.082,1551.059l0.15,10.109l-9.19,0.137l-0.15-10.109L-3098.082,1551.059z M-3097.864,1565.764
			l0.15,10.109l-9.189,0.137l-0.15-10.109L-3097.864,1565.764z M-3097.646,1580.468l0.15,10.109l-9.189,0.137l-0.15-10.109
			L-3097.646,1580.468z M-3097.427,1595.172l0.15,10.109l-9.19,0.137l-0.15-10.109L-3097.427,1595.172z M-3097.208,1609.876
			l0.15,10.109l-9.189,0.137l-0.151-10.109L-3097.208,1609.876z M-3096.989,1624.581l0.15,10.109l-9.19,0.137l-0.149-10.109
			L-3096.989,1624.581z M-3096.771,1639.286l0.15,10.109l-9.19,0.137l-0.15-10.109L-3096.771,1639.286z M-3096.552,1653.99
			l0.15,10.109l-9.19,0.137l-0.151-10.109L-3096.552,1653.99z M-3096.333,1668.694l0.15,10.109l-9.191,0.137l-0.15-10.109
			L-3096.333,1668.694z M-3096.114,1683.399l0.149,10.108l-9.19,0.137l-0.15-10.108L-3096.114,1683.399z M-3095.896,1698.102
			l0.15,10.109l-9.191,0.137l-0.15-10.108L-3095.896,1698.102z M-3095.678,1712.807l0.15,10.109l-9.19,0.137l-0.15-10.109
			L-3095.678,1712.807z M-3095.458,1727.511l0.148,10.109l-9.189,0.137l-0.15-10.109L-3095.458,1727.511z M-3095.24,1742.215
			l0.149,10.109l-9.189,0.137l-0.15-10.109L-3095.24,1742.215z M-3095.022,1756.92l0.15,10.108l-9.189,0.137l-0.15-10.108
			L-3095.022,1756.92z M-3094.804,1771.625l0.15,10.109l-9.189,0.137l-0.15-10.109L-3094.804,1771.625z M-3094.585,1786.329
			l0.15,10.109l-9.189,0.137l-0.15-10.109L-3094.585,1786.329z M-3094.366,1801.033l0.15,10.109l-9.19,0.137l-0.149-10.109
			L-3094.366,1801.033z M-3094.147,1815.738l0.15,10.108l-9.19,0.137l-0.15-10.109L-3094.147,1815.738z M-3093.929,1830.442
			l0.15,10.109l-9.19,0.137l-0.151-10.109L-3093.929,1830.442z M-3093.71,1845.146l0.15,10.109l-9.19,0.137l-0.15-10.109
			L-3093.71,1845.146z M-3093.491,1859.85l0.15,10.109l-9.19,0.137l-0.151-10.109L-3093.491,1859.85z M-3093.272,1874.555
			l0.15,10.108l-9.19,0.137l-0.151-10.108L-3093.272,1874.555z M-3093.055,1889.259l0.15,10.109l-9.19,0.136l-0.15-10.108
			L-3093.055,1889.259z M-3092.836,1903.963l0.15,10.109l-9.19,0.137l-0.15-10.109L-3092.836,1903.963z M-3092.617,1918.667
			l0.15,10.109l-9.19,0.137l-0.15-10.109L-3092.617,1918.667z M-3092.398,1933.372l0.15,10.109l-9.19,0.137l-0.15-10.109
			L-3092.398,1933.372z"/>
	</g>
	<g>
		<path fill="#1C92A5" d="M-3208.618,1216.489c4.267-1.867,8.644-4.121,12.637-6.583l12.831,15.936l17.873-14.344l-12.689-15.812
			c4.333-4.327,8.239-9.029,11.684-14.034l17.853,9.342l10.625-20.309l-17.738-9.29c1.745-4.456,3.168-9.059,4.261-13.743
			l19.839,2.145l2.477-22.844l-19.792-2.29c-0.017-6.087-0.534-12.041-1.852-18.635l17.786-5.565l-6.757-21.598l-17.791,5.566
			c-1.912-4.252-4.213-8.582-6.754-12.607l14.522-11.511l-14.343-17.872l-14.538,11.666c-4.396-4.312-9.169-8.191-14.244-11.599
			l8.691-16.608l-20.305-10.626l-8.752,16.722c-4.457-1.688-9.043-3.059-13.721-4.096l2.057-18.805l-22.789-2.494l-2.096,18.965
			c-5.988,0.082-12.022,0.707-18.107,1.929l-6.186-19.767l-22.088,6.911l6.238,19.941c-4.244,1.937-8.347,4.176-12.28,6.686
			l-12.812-16.19l-17.874,14.343l13.071,16.287c-4.179,4.302-7.944,8.96-11.262,13.904l-18.637-9.755l-10.628,20.302l18.754,9.812
			c-1.646,4.348-2.99,8.81-4.018,13.368l-21.071-2.323l-2.506,22.752l21.124,2.259c0.061,5.833,0.534,11.394,1.726,17.487
			l-21.638,6.771l6.758,21.598l21.634-6.769c2.046,4.75,4.166,8.653,6.599,12.554l-17.523,14.378l14.342,17.873l17.558-14.09
			c4.233,4.197,8.821,7.99,13.697,11.344l-10.407,19.883l20.303,10.627l10.341-19.768c4.347,1.701,8.81,3.104,13.375,4.185
			l-2.441,22.116l22.744,2.508l2.332-21.916c5.931,0.004,12.145-0.597,17.767-1.578l6.152,19.667l22.09-6.911L-3208.618,1216.489z
			 M-3225.115,1199.639c-41.481,12.979-85.63-10.127-98.608-51.607c-12.979-41.481,10.127-85.63,51.607-98.608
			c41.481-12.979,85.63,10.127,98.609,51.608C-3160.528,1142.512-3183.634,1186.661-3225.115,1199.639z"/>
	</g>
	<g>
		<path fill="none" d="M-3315.876,1952.853c1.691,19.246,15.744,35.938,35.633,40.093c24.326,5.083,48.168-10.519,53.25-34.846
			c1.164-5.574,1.24-11.123,0.376-16.428"/>
		<path fill="#707B8F" d="M-3149.345,1972.426h33.008v-49h-32.9c-3.156-17-9.616-32.359-19.364-46.76l22.431-22.375l-34.223-34.196
			l-22.497,22.511c-14.017-9.408-29.513-15.613-45.513-18.803l-0.034-32.377h-23.616l-0.294,112.313
			c4.327,0.171,8.702,0.923,12.987,2.405c23.486,8.129,35.918,33.734,27.79,57.221c-6.265,18.104-22.737,29.034-41.012,29.652
			l-0.288,109.408h24.428l0.018-31.581c16.158-3.221,31.811-9.313,45.936-18.874l23.31,23.455l34.226-34.147l-23.369-23.156
			C-3158.839,2003.989-3152.509,1987.426-3149.345,1972.426z"/>
		<path fill="#8992A0" d="M-3288.794,1991.151c-23.486-8.127-35.953-33.756-27.826-57.24c6.646-19.201,25.039-30.936,44.272-30.171
			l0.294-112.313h-24.809l0.018,32.122c-16.476,3.099-32.438,9.442-46.847,19.112l-22.492-22.52l-34.222,34.213l22.432,22.316
			c-9.749,14.399-16.208,29.756-19.365,46.756h-30.998v49h31.104c3.164,15,9.492,31.6,18.978,45.732l-23.372,23.281l34.223,34.18
			l23.306-23.327c14.517,9.826,30.636,15.694,47.269,18.824l-0.035,31.31h23.996l0.288-109.419
			C-3277.872,1993.191-3283.411,1993.014-3288.794,1991.151z"/>
	</g>
</g>
<g>
	<path fill="#1C92A5" d="M-7014.355,881.5c-5.855-3.47,5.346,4.198-0.715,1.459l19.18,152.188l-96.635,71.98l-115.373-40.15
		l-30.722-158.563c-18.101,13.706-10.816,15.901-23.111,36.638c-50.804,85.691-22.392,196.126,63.3,246.931
		c9.288,5.507,18.882,10.027,28.65,13.7l-7.423,760.849c0.816,48.944,41.155,87.96,90.1,87.144l0.95-0.016
		c48.944-0.816,87.96-41.156,87.144-90.101l-32.637-762.681c32.448-14.758,60.881-39.204,80.429-72.174
		C-6900.414,1043.011-6928.663,932.304-7014.355,881.5z M-7087.908,2015.726c-26.963-0.237-48.629-22.288-48.392-49.251
		c0.237-26.963,22.287-48.629,49.25-48.393c26.963,0.237,48.629,22.288,48.392,49.251
		C-7038.895,1994.297-7060.945,2015.963-7087.908,2015.726z"/>
</g>
<g>
	<path fill="#354F5C" d="M-6156.246,1524.636v-227.038h11.596l75.372,112.006l75.488-112.006h11.596v227.038h-34.787l-0.116-131.682
		l-52.181,75.679l-52.18-75.679v131.682H-6156.246z"/>
	<path fill="#354F5C" d="M-5956.685,1524.636l69.574-227.038h34.787l69.458,226.887l-36.99,0.151l-10.437-34.812h-78.85
		l-10.437,34.812H-5956.685z M-5868.79,1358.142l-26.438,86.274h52.181L-5868.79,1358.142z"/>
	<path fill="#354F5C" d="M-5756.892,1297.447h34.671v227.189h-34.671V1297.447z"/>
	<path fill="#354F5C" d="M-5687.317,1524.636v-227.038h11.596l108.999,142.277v-142.277h34.787v227.038h-12.755l-107.839-140.764
		v140.764H-5687.317z"/>
	<path fill="#354F5C" d="M-5353.942,1297.598v42.381h-57.979v184.657h-34.787v-184.657h-57.978v-42.381H-5353.942z"/>
	<path fill="#354F5C" d="M-5328.548,1524.636V1297.75l127.784-0.151v42.381h-92.997v48.435h69.688v42.229h-69.688v51.613h92.765
		v42.381H-5328.548z"/>
	<path fill="#354F5C" d="M-5165.745,1524.636v-227.038h11.596l108.999,142.277v-142.277h34.787v227.038h-12.755l-107.84-140.764
		v140.764H-5165.745z"/>
	<path fill="#354F5C" d="M-4983.461,1524.636l69.573-227.038h34.787l69.458,226.887l-36.99,0.151l-10.436-34.812h-78.851
		l-10.437,34.812H-4983.461z M-4895.566,1358.142l-26.438,86.274h52.18L-4895.566,1358.142z"/>
	<path fill="#354F5C" d="M-4783.668,1524.636v-227.038h11.596l108.999,142.277v-142.277h34.787v227.038h-12.755l-107.84-140.764
		v140.764H-4783.668z"/>
	<path fill="#354F5C" d="M-4575.815,1492.018c-16.66-21.644-24.989-48.761-24.989-81.354c0.076-31.885,8.425-58.701,25.047-80.447
		c16.62-21.744,37.222-32.618,61.805-32.618c24.814,0,46.111,10.092,63.893,30.271l-23.191,33.148
		c-11.828-12.109-25.395-18.163-40.701-18.163c-15.616,0.102-28.197,6.458-37.744,19.07c-9.548,12.615-14.32,28.759-14.32,48.436
		c0.076,21.091,4.908,37.839,14.495,50.251c9.584,12.411,22.186,18.617,37.802,18.617c15.614,0,29.104-6.003,40.469-18.012
		l23.191,33.147c-17.703,20.183-39.002,30.271-63.893,30.271C-4538.536,1524.537-4559.158,1513.663-4575.815,1492.018z"/>
	<path fill="#354F5C" d="M-4413.07,1524.636V1297.75l127.784-0.151v42.381h-92.997v48.435h69.689v42.229h-69.689v51.613h92.766
		v42.381H-4413.07z"/>
</g>
</svg>
