<?xml version="1.0" encoding="utf-8"?>
<!-- Generator: Adobe Illustrator 16.0.0, SVG Export Plug-In . SVG Version: 6.00 Build 0)  -->
<!DOCTYPE svg PUBLIC "-//W3C//DTD SVG 1.1//EN" "http://www.w3.org/Graphics/SVG/1.1/DTD/svg11.dtd">
<svg version="1.1" id="Layer_1" xmlns="http://www.w3.org/2000/svg" xmlns:xlink="http://www.w3.org/1999/xlink" x="0px" y="0px"
	 width="1501.45px" height="662.588px" viewBox="0 0 1501.45 662.588" enable-background="new 0 0 1501.45 662.588"
	 xml:space="preserve">
<rect x="-6621.677" y="-1437.254" fill="#A6DDDB" width="5000" height="5000"/>
<g>
	<path fill="#C1E5E2" d="M-6144.289,967.783l38.128-0.253l-0.371-55.765l-38.005,0.253c-3.762-18.97-11.323-37.32-22.659-53.828
		l25.659-26.002l-39.673-39.15l-25.735,26.08c-16.213-10.726-34.106-17.862-52.557-21.413l-0.249-37.392l-55.764,0.37l0.247,37.092
		c-18.95,3.695-37.293,11.172-53.812,22.419l-26.079-25.735l-39.15,39.673l26.002,25.659
		c-11.116,16.658-18.432,35.107-21.942,54.124l-36.014,0.239l0.37,55.764l36.137-0.24c3.767,18.565,11.174,36.523,22.206,52.727
		l-26.736,27.094l39.673,39.149l26.66-27.016c16.792,11.206,35.404,18.545,54.584,22.022l0.244,36.762l55.764-0.37l-0.247-37.062
		c18.583-3.832,36.549-11.314,52.743-22.434l27.016,26.659l39.15-39.673l-27.093-26.736
		C-6154.978,1004.452-6147.809,986.396-6144.289,967.783z M-6220.626,1006.49c-35.891,36.37-94.471,36.76-130.841,0.869
		c-36.371-35.891-36.76-94.47-0.869-130.84c35.891-36.371,94.47-36.76,130.84-0.869S-6184.736,970.119-6220.626,1006.49z"/>
</g>
<g>
	<path fill="#C1E5E2" d="M-1791.401,1872.375l38.129-0.254l-0.371-55.764l-38.005,0.252c-3.763-18.969-11.323-37.319-22.659-53.828
		l25.659-26.002l-39.674-39.149l-25.734,26.079c-16.214-10.727-34.106-17.862-52.558-21.412l-0.248-37.393l-55.764,0.371
		l0.246,37.092c-18.949,3.695-37.294,11.172-53.812,22.418l-26.079-25.734l-39.149,39.673l26.002,25.659
		c-11.116,16.658-18.433,35.106-21.943,54.124l-36.014,0.239l0.371,55.764l36.137-0.239c3.767,18.564,11.174,36.522,22.205,52.726
		l-26.736,27.094l39.674,39.15l26.66-27.017c16.792,11.205,35.404,18.546,54.584,22.022l0.244,36.762l55.764-0.37l-0.246-37.062
		c18.584-3.833,36.549-11.315,52.742-22.435l27.018,26.66l39.149-39.673l-27.094-26.736
		C-1802.09,1909.043-1794.921,1890.988-1791.401,1872.375z M-1867.738,1911.082c-35.892,36.37-94.47,36.759-130.841,0.868
		s-36.76-94.47-0.869-130.841c35.891-36.37,94.471-36.76,130.841-0.869S-1831.848,1874.711-1867.738,1911.082z"/>
</g>
<g>
	<path fill="#C1E5E2" d="M-1807.34-796.534l6.115-33.875l-30.159-5.445c0.408-8.476,0.146-17.758-0.956-26.509l31.911-7.493
		l-7.904-33.101l-32.188,7.69c-2.439-6.536-5.334-12.863-8.648-18.963l27.26-18.916l-19.436-27.995l-27.417,19.033
		c-5.851-6.576-12.295-12.645-19.271-18.116l17.547-28.515l-29.027-17.862l-17.979,28.518c-6.207-2.869-12.359-5.276-19.746-7.417
		l5.99-33.176l-33.122-5.98l-5.991,33.182c-9.213-0.632-17.507-0.303-26.125,0.687l-7.239-30.756l-33.111,7.903l7.323,30.665
		c-6.537,2.358-12.873,5.169-18.984,8.4l-17.946-25.86L-2094.438-981l17.84,25.7c-6.684,5.811-12.859,12.229-18.438,19.188
		l-26.451-16.277l-17.861,29.027l26.262,15.915c-2.979,6.27-5.523,12.738-7.598,19.359l-30.58-5.521l-6.117,33.875l30.314,5.473
		c-0.678,9.206-0.485,18.225,0.501,27.079l-27.599,6.597l7.892,33.169l27.37-6.511c2.396,6.711,5.268,13.226,8.581,19.491
		l-23.058,16.007l19.434,28l22.902-15.896c5.967,6.86,12.573,13.185,19.75,18.876l-14.53,23.611l29.027,17.862l14.301-23.559
		c6.411,3.005,13.226,5.601,19.854,7.636l-4.926,27.283l33.121,5.98l4.926-27.277c9.975,0.726,18.855,0.389,27.842-0.712
		l7.038,28.785l33.253-7.877l-6.831-28.881c6.71-2.478,13.239-5.429,19.493-8.828l16.988,24.46l28.006-19.434l-17.087-24.619
		c6.75-6.007,12.968-12.643,18.551-19.836l25.681,15.803l17.863-29.027l-25.889-15.99c2.896-6.348,5.413-13.223,7.379-19.864
		L-1807.34-796.534z M-2001.126-728.776c-63.613-11.485-105.872-72.365-94.387-135.979c11.484-63.614,72.365-105.873,135.979-94.387
		c63.614,11.485,105.873,72.365,94.388,135.979C-1876.632-759.549-1937.513-717.291-2001.126-728.776z"/>
</g>
<g>
	<path fill="#C1E5E2" d="M-5917.811-894.167l41.338-14.004l-20.482-60.457l-41.204,13.958
		c-10.918-19.256-25.741-36.472-44.002-50.328l18.517-37.491l-57.204-28.253l-18.572,37.603c-21.479-5.816-43.49-7.126-64.815-4.34
		l-13.733-40.539l-60.457,20.481l13.623,40.213c-19.259,10.838-36.499,25.568-50.397,43.735l-37.603-18.572l-28.253,57.204
		l37.491,18.517c-6.08,22.102-7.387,44.782-4.353,66.709l-39.044,13.228l20.481,60.457l39.178-13.273
		c10.777,18.816,25.292,35.661,43.113,49.294l-19.294,39.065l57.204,28.253l19.24-38.954c22.28,6.129,45.146,7.403,67.237,4.274
		l13.502,39.856l60.457-20.481l-13.612-40.181c18.812-10.856,35.638-25.455,49.229-43.368l38.954,19.24l28.253-57.204
		l-39.065-19.294C-5916.22-850.477-5914.933-872.676-5917.811-894.167z M-6083.799-811.375c-32.76-0.214-59.144-26.944-58.93-59.704
		s26.943-59.145,59.704-58.931c32.76,0.214,59.144,26.944,58.93,59.704S-6051.039-811.162-6083.799-811.375z"/>
</g>
<g>
	<g>
		<path fill="#1C92A5" d="M-5941.052,656.579c7.516,25.381,17.137,51.659,28.203,75.919l-98.944,61.115l68.271,110.941
			l98.153-60.399c21.343,27.492,45.104,52.853,70.902,75.811l-65.304,94.096l107.034,74.275l64.932-93.487
			c23.899,12.99,48.856,24.269,74.502,33.739l-26.106,110.383l127.09,30.108l26.901-110.014
			c34.347,4.207,68.291,5.497,106.411,2.721l18.823,104.253l126.593-22.855l-18.826-104.275
			c25.333-7.78,51.379-17.699,75.882-29.187l54.658,90.042l110.941-68.27l-55.531-90.242c27.426-21.75,52.679-45.926,75.483-72.146
			l87.531,60.758l74.279-107.014l-88.13-61.181c12.665-23.943,23.639-48.846,32.795-74.495l104.611,24.885l30.165-126.772
			l-105.485-25.216c3.769-33.837,4.504-68.311,1.917-103.494l115.858-20.918l-23.375-129.471l-116.881,21.103
			c-7.926-25.307-17.655-50.03-29.035-73.991l100.372-60.827l-68.27-110.942l-101.096,62.213
			c-21.314-26.603-44.922-51.132-70.467-73.339l68.187-98.227l-107-74.282l-68.589,98.839
			c-23.358-12.349-47.574-23.093-72.557-32.107l27.988-117.202l-126.553-30.205l-27.667,117.55
			c-32.939-3.783-64.638-5.041-99.853-2.626l-22.897-126.822l-126.593,22.857l22.894,126.798
			c-28.232,8.183-51.747,17.383-75.468,28.348l-68.711-108.996l-110.942,68.269l67.065,108.981
			c-26.665,20.914-51.298,44.109-73.656,69.241l-104.79-72.744l-74.282,106.997l104.187,72.297
			c-12.667,23.315-23.73,47.496-33.051,72.479l-123.021-29.395l-30.211,126.511l121.963,28.636
			c-4.211,33.445-5.215,68.92-3.651,101.318l-115.272,20.812l23.375,129.471L-5941.052,656.579z M-5834.364,575.431
			c-43.897-243.132,117.616-475.814,360.748-519.711c243.132-43.897,475.814,117.616,519.711,360.748
			c43.897,243.133-117.615,475.815-360.748,519.711C-5557.784,980.076-5790.467,818.563-5834.364,575.431z"/>
	</g>
	<g>
		<g>
			<path fill="#3D6D7A" d="M-5121.781,715.642l77.37,40.137l61.24-118.049l-77.599-40.254
				c13.372-45.767,16.844-92.902,11.288-138.631l84.366-26.735l-40.193-126.839l-85.047,26.952
				c-21.636-39.266-50.996-74.623-87.271-103.531l40.254-77.601l-118.05-61.238l-40.133,77.372
				c-45.809-13.583-93.024-17.243-138.844-11.823l-27.392-86.446l-126.839,40.191l27.481,86.725
				c-28.098,15.366-54.198,34.701-77.402,57.666l96.6,79.379c66.269-65.5,159.556-74.824,246.722-29.607
				c108.223,56.141,150.443,189.384,94.302,297.603c-56.14,108.222-189.381,150.442-297.599,94.305
				c-74.753-38.779-117.993-114.343-119.102-193.038l-124.236-5.854c-1.468,20.903,0.349,20.888,2.628,41.504l-84.296,26.714
				l40.189,126.838l83.617-26.495c22.004,40.973,52.358,77.813,90.147,107.683l-41.702,80.387l118.048,61.238l41.819-80.619
				c44.894,13.116,91.104,16.716,136.013,11.605l26.045,82.195l126.837-40.194l-25.957-81.915
				C-5187.898,783.31-5151.409,753.129-5121.781,715.642z"/>
		</g>
		<path fill="#A3A3A3" d="M-5350.43,629.809l-145.909-47.327l-24.079-118.067l85.381-87.366l156.585,39.59
			c-4.712-22.21-9.796-16.549-23.34-36.492c-55.971-82.41-168.009-103.632-250.419-47.661c-8.933,6.066-17.103,12.83-24.58,20.11
			l0,0l-685.54-330.12c-44.65-20.065-97.112-0.136-117.177,44.515l-0.39,0.867c-20.065,44.649-0.135,97.112,44.515,117.177
			l704.227,294.638c-0.433,35.644,9.609,71.771,31.144,103.479c55.972,82.409,168.188,103.896,250.598,47.924
			C-5343.784,627.251-5355.486,634.13-5350.43,629.809z"/>
	</g>
	<polygon fill="#324758" points="-5461.713,569.482 -5354.34,599.083 -5286.953,529.558 -5309.196,435.324 -5416.569,405.724 
		-5479.439,476.494 	"/>
</g>
<g>
	<path fill="#273942" d="M-6143.143,2959.482c0,0-87.85,131.31,203.245,131.31c291.095,0,3704.574,8.438,3704.574,8.438
		s200.417,8.621,168.014-129.652L-6143.143,2959.482z"/>
	<path fill="#E6E6E8" d="M-2067.249,2969.794c13.827,48.674-19.744,73.103-69.717,73.103l-3936.959-8.439
		c-49.972,0-80.867-33.902-69.218-74.975l575.246-598.697c46.31-42.355,53.516-62.106,98.598-62.106h2717.779
		c21.692,0,58.781,16.841,102.129,62.106L-2067.249,2969.794z"/>
	<g>
		<path fill="#354F5C" d="M-5425.123,670.419c-45.083,0-81.121,36.91-81.121,83.252v1545.936c0,0,36.039-2.403,81.121-2.403h101.869
			l2460.583-1626.785H-5425.123z"/>
		<path fill="#273942" d="M-2812.021,670.419h-50.649l-2460.583,1626.785h2511.232c45.083,0,82.194,2.403,82.194,2.403V753.671
			C-2729.827,707.329-2766.938,670.419-2812.021,670.419z"/>
	</g>
	<path fill="#E2E2F7" d="M-4071.602,720.62c0,10.454-8.244,18.928-18.413,18.928h-36.827c-10.17,0-18.413-8.474-18.413-18.928l0,0
		c0-10.454,8.243-18.928,18.413-18.928h36.827C-4079.846,701.692-4071.602,710.167-4071.602,720.62L-4071.602,720.62z"/>
	<g>
		<polygon fill="#354F5C" points="-4667.479,2772.969 -4625.874,2669.66 -4824.333,2669.66 -4882.189,2772.969 		"/>
		<polygon fill="#354F5C" points="-4600.242,2636.317 -4567.089,2554.953 -4751.566,2554.953 -4797.776,2636.317 		"/>
		<polygon fill="#354F5C" points="-4557.352,2527.813 -4526.667,2451.413 -4698.317,2451.413 -4741.117,2527.813 		"/>
		<polygon fill="#354F5C" points="-4822.525,2527.813 -4778.839,2451.413 -4937.984,2451.413 -4992.904,2527.813 		"/>
		<polygon fill="#354F5C" points="-4972.607,2772.969 -4913.465,2669.66 -5097.467,2669.66 -5171.677,2772.969 		"/>
		<polygon fill="#354F5C" points="-4886.646,2636.317 -4839.42,2554.953 -5010.458,2554.953 -5069.79,2636.317 		"/>
		<polygon fill="#354F5C" points="-4324.139,2527.813 -4304.569,2451.413 -4450.074,2451.413 -4479.914,2527.813 		"/>
		<polygon fill="#354F5C" points="-5071.335,2527.813 -5015.56,2451.413 -5186.073,2451.413 -5253.884,2527.813 		"/>
		<polygon fill="#354F5C" points="-5180.522,2669.66 -5371.445,2669.66 -5469.219,2772.969 -5255.931,2772.969 		"/>
		<polygon fill="#354F5C" points="-5156.505,2638.031 -5092.417,2556.627 -5271.729,2556.627 -5344.95,2638.031 		"/>
		<polygon fill="#354F5C" points="-4343.099,2636.317 -4323.774,2554.953 -4496.421,2554.953 -4521.666,2636.317 		"/>
		<polygon fill="#354F5C" points="-5351.55,2556.54 -5511.726,2556.54 -5607.127,2631.867 -5425.305,2631.867 		"/>
		<polygon fill="#354F5C" points="-5465.182,2667.043 -5638.245,2667.043 -5756.969,2766.08 -5561.361,2766.08 		"/>
		<polygon fill="#354F5C" points="-5319.607,2522.668 -5254.596,2451.494 -5403.152,2451.494 -5478.293,2522.668 		"/>
		<polygon fill="#354F5C" points="-2993.297,2772.969 -2780.009,2772.969 -2878.17,2669.66 -3075.314,2669.66 		"/>
		<polygon fill="#354F5C" points="-3168.612,2554.953 -3102.979,2636.317 -2906.753,2636.317 -2985.356,2554.953 		"/>
		<polygon fill="#354F5C" points="-3000.88,2527.813 -3073.691,2451.413 -3244.204,2451.413 -3183.429,2527.813 		"/>
		<polygon fill="#354F5C" points="-3490.673,2636.317 -3541.721,2554.953 -3704.208,2554.953 -3664.66,2636.317 		"/>
		<polygon fill="#354F5C" points="-3408.732,2772.969 -3477.685,2669.66 -3652.487,2669.66 -3603.181,2772.969 		"/>
		<polygon fill="#354F5C" points="-3283.77,2527.813 -3333.94,2451.413 -3499.858,2451.413 -3445.629,2527.813 		"/>
		<polygon fill="#354F5C" points="-3193.009,2636.317 -3257.613,2554.953 -3431.096,2554.953 -3378.769,2636.317 		"/>
		<polygon fill="#354F5C" points="-3298.986,2772.969 -3097.073,2772.969 -3177.614,2669.66 -3364.244,2669.66 		"/>
		<polygon fill="#354F5C" points="-3549.767,2527.813 -3606.551,2451.413 -3767.971,2451.413 -3722.579,2527.813 		"/>
		<polygon fill="#354F5C" points="-2769.793,2669.66 -2670.067,2772.969 -2445.403,2772.969 -2562.134,2669.66 		"/>
		<polygon fill="#354F5C" points="-2710.31,2527.813 -2796.87,2451.413 -2976.477,2451.413 -2902.595,2527.813 		"/>
		<polygon fill="#354F5C" points="-2800.194,2636.317 -2593.503,2636.317 -2686.987,2554.953 -2880.016,2554.953 		"/>
		<polygon fill="#354F5C" points="-3802.038,2527.813 -3837.655,2451.413 -4008.169,2451.413 -3984.588,2527.813 		"/>
		<polygon fill="#354F5C" points="-3762.603,2636.317 -3801.031,2554.953 -3984.286,2554.953 -3958.829,2636.317 		"/>
		<polygon fill="#354F5C" points="-4068.119,2527.813 -4077.659,2451.413 -4235.252,2451.413 -4243.494,2527.813 		"/>
		<polygon fill="#354F5C" points="-4056.729,2636.317 -4070.911,2554.953 -4244.393,2554.953 -4256.281,2636.317 		"/>
		<polygon fill="#354F5C" points="-3752.087,2669.66 -3958.271,2669.66 -4143.89,2669.66 -4144.902,2669.66 -4336.681,2669.66 
			-4339.72,2669.66 -4541.711,2669.66 -4573.421,2772.969 -4352.018,2772.969 -4348.935,2772.969 -4141.178,2772.969 
			-4140.15,2772.969 -3939.265,2772.969 -3712.466,2772.969 		"/>
	</g>
	<g>
		<path fill="#273942" d="M-4578.037,2914.966l-12.432,7.546c-40.063,42.878-11.112,54.609,77.812,54.609h706.553
			c88.924,0,119.55-17.005,76.405-54.609l-12.312-7.546H-4578.037z"/>
		<path fill="#354F5C" d="M-3826.853,2842.297c-24.19-16.938-40.713-26.022-89.234-26.022l-489.836-0.774
			c-48.518,0-61.805,9.859-86.264,26.797l-85.789,72.669h836.06L-3826.853,2842.297z"/>
	</g>
	<g>
		<path fill="#6FADBC" d="M-2897.492,773.798h-2432.557c-45.083,0-81.723,37.243-81.723,82.658v1324.396
			c0,45.415,36.641,82.603,81.723,82.603h10.628l2424.297-1489.108C-2895.913,774.323-2896.697,773.798-2897.492,773.798z"/>
		<path fill="#589EA5" d="M-2895.407,774.648l-2424.014,1488.806h2421.929c45.083,0,81.064-37.188,81.064-82.603V856.456
			C-2816.428,811.841-2851.423,775.908-2895.407,774.648z"/>
	</g>
</g>
<g>
	<rect x="-5311.689" y="841.247" fill="#FEC524" width="2401.733" height="1338.116"/>
	<polygon points="-5125.839,841.247 -5311.69,1039.482 -5311.69,841.247 	"/>
	<polygon points="-4886.143,841.247 -5311.69,1293.466 -5311.69,1529.359 -4686.883,841.247 	"/>
	<polygon points="-4412.999,841.247 -5311.69,1813.603 -5311.69,2049.496 -4213.739,841.247 	"/>
	<polygon points="-3939.854,841.247 -5181.141,2183.812 -4959.935,2183.812 -3740.595,841.247 	"/>
	<polygon points="-3465.347,841.247 -4707.621,2179.162 -4482.959,2183.921 -3266.087,841.247 	"/>
	<polygon points="-2978.567,841.247 -4213.739,2179.363 -3992.157,2179.363 -2909.957,985.516 -2909.957,841.247 	"/>
	<polygon points="-2907.663,1271.603 -3741.353,2179.363 -3527.657,2179.363 -2910.391,1499.959 	"/>
	<polygon points="-2909.957,1735.796 -3324.291,2183.921 -3111.958,2183.582 -2909.957,1956.962 	"/>
	<rect x="-5141.407" y="978.564" fill="#E5E7E9" width="2063.461" height="1036.363"/>
</g>
<g>
	<g>
		<path fill="#354F5C" d="M226.894,451.037c-4.122-0.982-8.264-2.1-12.31-3.322l3.267-10.808c3.831,1.158,7.754,2.217,11.659,3.147
			L226.894,451.037z M209.058,445.963c-4.017-1.333-8.046-2.807-11.977-4.378l4.192-10.483c3.722,1.489,7.538,2.883,11.343,4.146
			L209.058,445.963z M191.709,439.352c-3.892-1.681-7.784-3.503-11.571-5.414l5.09-10.079c3.585,1.81,7.272,3.535,10.958,5.127
			L191.709,439.352z M174.985,431.247c-3.729-2.013-7.447-4.165-11.05-6.396l5.944-9.599c3.413,2.113,6.935,4.152,10.468,6.058
			L174.985,431.247z M159.04,421.727c-3.539-2.327-7.055-4.791-10.451-7.325l6.753-9.049c3.217,2.4,6.549,4.736,9.9,6.939
			L159.04,421.727z M143.985,410.869c-3.324-2.622-6.613-5.379-9.777-8.195l7.508-8.434c2.997,2.668,6.113,5.28,9.263,7.765
			L143.985,410.869z M129.929,398.761c-3.084-2.896-6.123-5.925-9.032-9.001l8.202-7.759c2.758,2.916,5.638,5.786,8.561,8.531
			L129.929,398.761z M116.97,385.495c-2.822-3.149-5.59-6.426-8.225-9.739l8.836-7.028c2.498,3.141,5.121,6.247,7.797,9.231
			L116.97,385.495z M105.2,371.174c-2.544-3.381-5.02-6.882-7.358-10.406l9.407-6.244c2.217,3.339,4.562,6.657,6.974,9.861
			L105.2,371.174z M94.705,355.902c-2.244-3.586-4.41-7.286-6.437-10.996l9.91-5.413c1.919,3.515,3.971,7.02,6.098,10.419
			L94.705,355.902z M85.563,339.791c-1.928-3.767-3.767-7.638-5.465-11.505l10.339-4.539c1.608,3.664,3.351,7.331,5.177,10.9
			L85.563,339.791z M77.847,322.961c-1.596-3.917-3.092-7.931-4.449-11.931l10.691-3.628c1.286,3.789,2.703,7.59,4.215,11.3
			L77.847,322.961z M71.615,305.535c-1.251-4.042-2.396-8.176-3.404-12.289l10.966-2.688c0.955,3.896,2.04,7.812,3.225,11.639
			L71.615,305.535z M66.908,287.597c-0.895-4.135-1.677-8.353-2.323-12.537l11.158-1.725c0.613,3.963,1.354,7.958,2.2,11.874
			L66.908,287.597z M63.778,269.319c-0.533-4.196-0.945-8.466-1.227-12.69l11.266-0.751c0.267,4.001,0.657,8.046,1.162,12.021
			L63.778,269.319z M62.243,250.841c-0.167-4.222-0.21-8.51-0.128-12.745l11.289,0.219c-0.078,4.014-0.038,8.078,0.121,12.079
			L62.243,250.841z M62.305,232.304c0.111-2.414,0.266-4.866,0.458-7.287c0.144-1.803,0.312-3.626,0.499-5.421l11.23,1.175
			c-0.179,1.703-0.338,3.433-0.474,5.142c-0.184,2.297-0.329,4.623-0.436,6.912L62.305,232.304z M75.136,215.315l-11.193-1.474
			c0.553-4.203,1.238-8.436,2.035-12.583l11.088,2.132C76.31,207.319,75.661,211.332,75.136,215.315z M78.174,198.012l-11.025-2.429
			c0.911-4.138,1.958-8.297,3.111-12.364l10.862,3.082C80.029,190.152,79.038,194.093,78.174,198.012z M82.692,181.039
			l-10.775-3.374c1.266-4.039,2.669-8.093,4.173-12.049l10.554,4.012C85.219,173.375,83.89,177.214,82.692,181.039z M88.664,164.522
			l-10.44-4.298c1.614-3.922,3.368-7.846,5.214-11.663l10.165,4.915C91.854,157.091,90.193,160.808,88.664,164.522z M96.067,148.553
			l-10.027-5.19c1.948-3.764,4.036-7.519,6.205-11.16l9.699,5.78C99.89,141.431,97.913,144.987,96.067,148.553z M104.826,133.294
			l-9.54-6.041c2.267-3.578,4.67-7.135,7.146-10.575l9.163,6.597C109.25,126.534,106.972,129.904,104.826,133.294z M114.868,118.856
			l-8.98-6.842c2.565-3.369,5.267-6.705,8.027-9.915l8.561,7.362C119.86,112.503,117.301,115.665,114.868,118.856z M126.115,105.343
			l-8.358-7.589c2.844-3.133,5.821-6.223,8.847-9.185l7.897,8.07C131.633,99.445,128.812,102.374,126.115,105.343z M138.479,92.849
			l-7.678-8.278c3.102-2.877,6.331-5.7,9.599-8.39l7.178,8.717C144.479,87.448,141.418,90.123,138.479,92.849z M151.862,81.465
			l-6.94-8.906c3.338-2.6,6.796-5.135,10.28-7.534l6.402,9.3C158.303,76.599,155.024,79.001,151.862,81.465z M166.166,71.274
			l-6.15-9.468c3.548-2.305,7.211-4.533,10.885-6.622l5.58,9.815C172.999,66.979,169.528,69.09,166.166,71.274z M181.284,62.354
			l-5.314-9.962c3.73-1.99,7.57-3.894,11.411-5.659l4.715,10.259C188.456,58.664,184.818,60.468,181.284,62.354z M197.104,54.771
			l-4.437-10.383c3.885-1.66,7.873-3.226,11.853-4.652l3.811,10.628C204.562,51.716,200.784,53.199,197.104,54.771z M213.509,48.587
			l-3.523-10.727c4.012-1.317,8.119-2.531,12.206-3.608l2.876,10.919C221.196,46.19,217.308,47.34,213.509,48.587z M230.396,43.845
			l-2.578-10.993c4.123-0.967,8.328-1.821,12.496-2.539l1.916,11.127C238.282,42.12,234.301,42.929,230.396,43.845z M346.108,50.57
			c-3.771-1.359-7.632-2.623-11.478-3.755l3.188-10.831c4.061,1.195,8.138,2.529,12.119,3.965L346.108,50.57z M247.652,40.582
			l-1.612-11.175c4.184-0.604,8.445-1.09,12.666-1.444l0.945,11.251C255.652,39.549,251.615,40.01,247.652,40.582z M329.343,45.336
			c-3.871-1.026-7.828-1.951-11.762-2.747l2.241-11.066c4.15,0.84,8.327,1.815,12.414,2.899L329.343,45.336z M265.129,38.828
			l-0.64-11.272c4.221-0.24,8.508-0.356,12.741-0.345l-0.028,11.29C273.19,38.491,269.128,38.602,265.129,38.828z M312.185,41.573
			c-3.939-0.688-7.962-1.27-11.957-1.727l1.285-11.217c4.214,0.482,8.457,1.096,12.614,1.822L312.185,41.573z M282.695,38.588
			l0.329-11.286c4.223,0.123,8.51,0.374,12.725,0.744l-0.987,11.247C290.761,38.942,286.698,38.705,282.695,38.588z"/>
		<path fill="#354F5C" d="M1245.913,646.769c-3.63-0.289-7.291-0.691-10.884-1.196l1.572-11.181
			c3.943,0.555,7.968,0.974,11.95,1.252l-0.783,11.264C1247.15,646.864,1246.532,646.818,1245.913,646.769z M1253.58,647.217
			l0.421-11.283c3.993,0.149,8.034,0.157,12.011,0.023l0.38,11.284C1262.149,647.384,1257.84,647.376,1253.58,647.217z
			 M1272.212,646.95l-0.748-11.266c3.982-0.264,8.001-0.676,11.945-1.224l1.553,11.184
			C1280.751,646.229,1276.462,646.668,1272.212,646.95z M1290.721,644.748l-1.918-11.126c3.928-0.677,7.881-1.506,11.751-2.465
			l2.714,10.959C1299.137,643.139,1294.915,644.025,1290.721,644.748z M1308.901,640.622l-3.072-10.865
			c3.828-1.083,7.669-2.319,11.416-3.676l3.844,10.616C1317.09,638.145,1312.989,639.466,1308.901,640.622z M1326.523,634.628
			l-4.189-10.485c3.695-1.477,7.389-3.108,10.977-4.848l4.93,10.158C1334.41,631.311,1330.468,633.052,1326.523,634.628z
			 M1343.432,626.829l-5.255-9.993c3.525-1.854,7.031-3.861,10.419-5.964l5.955,9.592
			C1350.936,622.708,1347.195,624.85,1343.432,626.829z M1359.445,617.314l-6.262-9.395c3.319-2.212,6.601-4.572,9.751-7.013
			l6.914,8.926C1366.487,612.437,1362.987,614.954,1359.445,617.314z M1374.396,606.192l-7.198-8.698
			c3.072-2.542,6.093-5.229,8.978-7.984l7.798,8.165C1380.896,600.615,1377.673,603.48,1374.396,606.192z M1388.123,593.582
			l-8.059-7.908c2.795-2.849,5.522-5.833,8.105-8.871l8.602,7.315C1394.016,587.358,1391.106,590.542,1388.123,593.582z
			 M1400.477,579.614l-8.833-7.032c2.485-3.122,4.889-6.373,7.143-9.663l9.314,6.382
			C1405.694,572.812,1403.13,576.282,1400.477,579.614z M1411.321,564.433l-9.518-6.075c2.149-3.366,4.201-6.85,6.1-10.357
			l9.929,5.376C1415.806,557.12,1413.614,560.84,1411.321,564.433z M1420.529,548.193l-10.1-5.047
			c1.785-3.573,3.461-7.254,4.983-10.941l10.437,4.306C1424.226,540.449,1422.436,544.379,1420.529,548.193z M1427.983,531.087
			l-10.572-3.962c1.397-3.729,2.677-7.56,3.805-11.387l10.83,3.191C1430.843,523.015,1429.476,527.106,1427.983,531.087z
			 M1433.602,513.313l-10.93-2.837c1.001-3.854,1.875-7.799,2.598-11.723l11.104,2.046
			C1435.602,504.988,1434.669,509.198,1433.602,513.313z M1437.337,495.054l-11.165-1.686c0.595-3.938,1.058-7.953,1.375-11.935
			c0.183-2.303,0.321-4.639,0.41-6.944l11.282,0.438c-0.095,2.457-0.242,4.947-0.438,7.402
			C1438.464,486.575,1437.971,490.855,1437.337,495.054z M1428.082,469.029c0.025-3.997-0.092-8.036-0.349-12.005l11.267-0.729
			c0.275,4.235,0.4,8.544,0.372,12.808L1428.082,469.029z M1427.291,451.583c-0.387-3.967-0.924-7.971-1.595-11.9l11.129-1.901
			c0.717,4.195,1.29,8.469,1.703,12.704L1427.291,451.583z M1424.689,434.319c-0.8-3.903-1.752-7.828-2.832-11.668l10.869-3.056
			c1.152,4.099,2.17,8.291,3.023,12.458L1424.689,434.319z M1420.294,417.421c-1.203-3.798-2.561-7.6-4.032-11.298l10.49-4.174
			c1.571,3.948,3.02,8.005,4.306,12.06L1420.294,417.421z M1414.165,401.095c-1.59-3.647-3.336-7.289-5.188-10.823l10.001-5.241
			c1.977,3.772,3.84,7.658,5.537,11.551L1414.165,401.095z M1406.368,385.485c-1.963-3.467-4.077-6.909-6.285-10.231l9.403-6.249
			c2.355,3.545,4.612,7.218,6.706,10.917L1406.368,385.485z M1396.989,370.759c-2.314-3.251-4.774-6.457-7.311-9.531l8.708-7.187
			c2.706,3.28,5.33,6.7,7.8,10.167L1396.989,370.759z M1386.135,357.072c-2.639-2.994-5.416-5.93-8.259-8.728l7.92-8.047
			c3.032,2.984,5.996,6.116,8.81,9.31L1386.135,357.072z M1373.921,344.576c-2.936-2.708-6.003-5.341-9.117-7.827l7.044-8.824
			c3.323,2.653,6.596,5.463,9.729,8.352L1373.921,344.576z M1360.476,333.407c-3.199-2.388-6.524-4.689-9.882-6.84l6.09-9.508
			c3.584,2.295,7.132,4.751,10.546,7.3L1360.476,333.407z M1345.939,323.693c-3.431-2.042-6.979-3.983-10.543-5.771l5.062-10.093
			c3.807,1.909,7.594,3.982,11.257,6.163L1345.939,323.693z M1330.464,315.548c-3.619-1.669-7.347-3.228-11.077-4.632l3.978-10.566
			c3.983,1.499,7.963,3.163,11.828,4.945L1330.464,315.548z M1314.247,309.078c-3.772-1.281-7.643-2.441-11.5-3.447l2.851-10.925
			c4.119,1.075,8.25,2.313,12.279,3.68L1314.247,309.078z M1297.442,304.337c-3.883-0.879-7.853-1.63-11.8-2.232l1.703-11.162
			c4.211,0.643,8.447,1.444,12.59,2.382L1297.442,304.337z"/>
		<path fill="#354F5C" d="M1287.931,302.125l-11.996-3.213l2.921-10.906l11.997,3.213L1287.931,302.125z M1270.48,297.451
			l-11.997-3.213l2.922-10.906l11.996,3.213L1270.48,297.451z M1253.031,292.777l-11.998-3.213l2.922-10.906l11.997,3.213
			L1253.031,292.777z M1235.581,288.104l-11.997-3.213l2.922-10.906l11.996,3.213L1235.581,288.104z M1218.131,283.43l-11.997-3.213
			l2.921-10.906l11.997,3.213L1218.131,283.43z M1200.681,278.756l-11.997-3.213l2.921-10.906l11.998,3.213L1200.681,278.756z
			 M1183.231,274.083l-11.998-3.213l2.921-10.906l11.998,3.213L1183.231,274.083z M1165.78,269.409l-11.996-3.213l2.921-10.906
			l11.997,3.213L1165.78,269.409z M1148.331,264.735l-11.997-3.213l2.921-10.906l11.997,3.213L1148.331,264.735z M1130.881,260.061
			l-11.997-3.213l2.921-10.906l11.997,3.213L1130.881,260.061z M1113.431,255.387l-11.997-3.213l2.921-10.906l11.997,3.213
			L1113.431,255.387z M1095.979,250.713l-11.996-3.213l2.922-10.906l11.996,3.213L1095.979,250.713z M1078.53,246.04l-11.997-3.213
			l2.922-10.906l11.996,3.213L1078.53,246.04z M1061.08,241.366l-11.996-3.213l2.921-10.906l11.997,3.213L1061.08,241.366z
			 M1043.63,236.692l-11.996-3.213l2.921-10.906l11.997,3.213L1043.63,236.692z M1026.181,232.018l-11.997-3.213l2.921-10.906
			l11.997,3.213L1026.181,232.018z M1008.73,227.344l-11.997-3.213l2.922-10.906l11.996,3.213L1008.73,227.344z M991.28,222.67
			l-11.997-3.213l2.922-10.906l11.996,3.213L991.28,222.67z M973.83,217.996l-11.996-3.213l2.921-10.906l11.997,3.213
			L973.83,217.996z M956.381,213.322l-11.997-3.213l2.921-10.906l11.997,3.213L956.381,213.322z M938.931,208.648l-11.997-3.213
			l2.921-10.907l11.997,3.213L938.931,208.648z M921.48,203.975l-11.997-3.213l2.922-10.906l11.996,3.213L921.48,203.975z
			 M904.03,199.301l-11.997-3.213l2.921-10.906l11.997,3.213L904.03,199.301z M886.58,194.627l-11.997-3.213l2.922-10.906
			l11.996,3.213L886.58,194.627z M869.131,189.954l-11.997-3.213l2.921-10.906l11.997,3.213L869.131,189.954z M851.681,185.279
			l-11.997-3.213l2.921-10.906l11.997,3.213L851.681,185.279z M834.23,180.605l-11.997-3.213l2.921-10.906l11.997,3.213
			L834.23,180.605z M816.78,175.932l-11.997-3.213l2.921-10.906l11.997,3.213L816.78,175.932z M799.33,171.258l-11.997-3.213
			l2.922-10.906l11.996,3.213L799.33,171.258z M781.88,166.584l-11.996-3.213l2.921-10.907l11.997,3.213L781.88,166.584z
			 M764.431,161.91l-11.998-3.213l2.922-10.907l11.997,3.213L764.431,161.91z M746.98,157.236l-11.997-3.213l2.921-10.907
			l11.997,3.213L746.98,157.236z M729.53,152.562l-11.997-3.213l2.921-10.907l11.998,3.213L729.53,152.562z M712.08,147.889
			l-11.997-3.213l2.921-10.907l11.997,3.213L712.08,147.889z M694.63,143.215l-11.996-3.213l2.921-10.907l11.997,3.213
			L694.63,143.215z M677.181,138.541l-11.997-3.213l2.921-10.907l11.997,3.213L677.181,138.541z M659.73,133.867l-11.997-3.213
			l2.921-10.906l11.997,3.213L659.73,133.867z M642.28,129.193l-11.997-3.213l2.921-10.906l11.997,3.213L642.28,129.193z
			 M624.83,124.52l-11.997-3.213l2.922-10.906l11.996,3.213L624.83,124.52z M607.38,119.846l-11.996-3.213l2.921-10.907
			l11.997,3.214L607.38,119.846z M589.931,115.172l-11.997-3.213l2.921-10.906l11.997,3.213L589.931,115.172z M572.48,110.498
			l-11.997-3.213l2.922-10.906l11.996,3.213L572.48,110.498z M555.03,105.824l-11.997-3.213l2.921-10.906l11.998,3.213
			L555.03,105.824z M537.58,101.15l-11.997-3.213l2.922-10.906l11.996,3.213L537.58,101.15z M520.13,96.477l-11.996-3.213
			l2.921-10.906l11.997,3.213L520.13,96.477z M502.681,91.803l-11.997-3.213l2.921-10.906l11.997,3.213L502.681,91.803z
			 M485.23,87.129l-11.997-3.213l2.922-10.907l11.996,3.213L485.23,87.129z M467.78,82.455l-11.996-3.213l2.921-10.906l11.997,3.213
			L467.78,82.455z M450.33,77.781l-11.997-3.213l2.922-10.907l11.996,3.213L450.33,77.781z M432.88,73.107l-11.996-3.213
			l2.921-10.907l11.997,3.213L432.88,73.107z M415.431,68.434l-11.997-3.213l2.921-10.907l11.997,3.213L415.431,68.434z
			 M397.98,63.76l-11.997-3.213l2.922-10.907l11.996,3.213L397.98,63.76z M380.53,59.086l-11.996-3.213l2.921-10.907l11.997,3.213
			L380.53,59.086z M363.081,54.412l-11.997-3.213l2.921-10.906l11.996,3.213L363.081,54.412z"/>
		<path fill="#354F5C" d="M1238.366,646.134l-7.824-1.498l2.122-11.089l7.825,1.499L1238.366,646.134z M1224.997,643.574
			l-12.198-2.335l2.123-11.089l12.198,2.335L1224.997,643.574z M1207.254,640.176l-12.198-2.335l2.124-11.089l12.197,2.335
			L1207.254,640.176z M1189.512,636.779l-12.198-2.336l2.123-11.089l12.198,2.336L1189.512,636.779z M1171.769,633.382
			l-12.198-2.336l2.124-11.089l12.198,2.336L1171.769,633.382z M1154.026,629.984l-12.199-2.336l2.125-11.089l12.197,2.336
			L1154.026,629.984z M1136.284,626.587l-12.199-2.336l2.124-11.089l12.198,2.335L1136.284,626.587z M1118.54,623.189l-12.197-2.336
			l2.124-11.089l12.197,2.335L1118.54,623.189z M1100.798,619.792l-12.198-2.336l2.124-11.089l12.198,2.335L1100.798,619.792z
			 M1083.055,616.394l-12.197-2.335l2.123-11.089l12.198,2.335L1083.055,616.394z M1065.313,612.997l-12.199-2.336l2.124-11.089
			l12.198,2.335L1065.313,612.997z M1047.57,609.599l-12.199-2.336l2.124-11.089l12.198,2.335L1047.57,609.599z M1029.827,606.202
			l-12.197-2.335l2.123-11.089l12.197,2.335L1029.827,606.202z M1012.085,602.804l-12.198-2.335l2.123-11.089l12.197,2.335
			L1012.085,602.804z M994.342,599.407l-12.198-2.336l2.124-11.089l12.198,2.336L994.342,599.407z M976.599,596.01l-12.197-2.336
			l2.123-11.089l12.198,2.336L976.599,596.01z M958.857,592.612l-12.199-2.336l2.124-11.089l12.198,2.335L958.857,592.612z
			 M941.114,589.215l-12.198-2.336l2.124-11.089l12.197,2.335L941.114,589.215z M923.371,585.817l-12.198-2.336l2.124-11.089
			l12.198,2.335L923.371,585.817z M905.628,582.419l-12.197-2.335l2.123-11.089l12.198,2.335L905.628,582.419z M887.886,579.022
			l-12.198-2.335l2.123-11.089l12.199,2.336L887.886,579.022z M870.144,575.625l-12.198-2.335l2.123-11.089l12.198,2.335
			L870.144,575.625z M852.4,572.227l-12.198-2.335l2.124-11.09l12.198,2.336L852.4,572.227z M834.658,568.83l-12.198-2.335
			l2.123-11.089l12.198,2.335L834.658,568.83z M816.915,565.432l-12.197-2.335l2.123-11.089l12.197,2.335L816.915,565.432z
			 M799.173,562.035l-12.198-2.335l2.123-11.089l12.198,2.335L799.173,562.035z M781.43,558.638l-12.198-2.336l2.123-11.089
			l12.199,2.335L781.43,558.638z M763.688,555.24l-12.198-2.336l2.123-11.089l12.198,2.335L763.688,555.24z M745.944,551.843
			l-12.198-2.336l2.124-11.089l12.197,2.335L745.944,551.843z M728.202,548.445l-12.198-2.335l2.123-11.089l12.198,2.335
			L728.202,548.445z M710.459,545.047l-12.198-2.335l2.124-11.089l12.198,2.336L710.459,545.047z M692.717,541.65l-12.198-2.335
			l2.123-11.089l12.198,2.335L692.717,541.65z M674.974,538.252l-12.198-2.335l2.124-11.09l12.197,2.336L674.974,538.252z
			 M657.23,534.855l-12.197-2.335l2.123-11.09l12.198,2.336L657.23,534.855z M639.488,531.458l-12.198-2.335l2.123-11.09
			l12.198,2.336L639.488,531.458z M621.745,528.06l-12.197-2.336l2.123-11.089l12.198,2.336L621.745,528.06z M604.003,524.662
			l-12.198-2.335l2.124-11.089l12.197,2.335L604.003,524.662z M586.261,521.265l-12.198-2.335l2.123-11.089l12.198,2.335
			L586.261,521.265z M568.518,517.868l-12.198-2.336l2.123-11.089l12.198,2.335L568.518,517.868z M550.774,514.47l-12.198-2.335
			l2.124-11.089l12.197,2.335L550.774,514.47z M533.032,511.073l-12.199-2.335l2.124-11.089l12.198,2.335L533.032,511.073z
			 M515.289,507.675l-12.198-2.335l2.124-11.089l12.198,2.335L515.289,507.675z M497.547,504.278l-12.198-2.335l2.123-11.09
			l12.198,2.336L497.547,504.278z M479.804,500.88l-12.198-2.335l2.123-11.09l12.198,2.336L479.804,500.88z M462.062,497.483
			l-12.198-2.335l2.123-11.09l12.198,2.336L462.062,497.483z M444.318,494.085l-12.198-2.336l2.123-11.089l12.198,2.336
			L444.318,494.085z M426.575,490.688l-12.197-2.335l2.123-11.089l12.198,2.336L426.575,490.688z M408.833,487.291l-12.197-2.336
			l2.123-11.089l12.197,2.336L408.833,487.291z M391.091,483.893l-12.198-2.336l2.123-11.089l12.198,2.336L391.091,483.893z
			 M373.348,480.496l-12.198-2.336l2.123-11.089l12.198,2.336L373.348,480.496z M355.604,477.098l-12.198-2.336l2.124-11.089
			l12.197,2.335L355.604,477.098z M337.862,473.7l-12.198-2.335l2.123-11.089l12.198,2.335L337.862,473.7z M320.12,470.303
			l-12.199-2.336l2.124-11.089l12.198,2.336L320.12,470.303z M302.377,466.906l-12.198-2.335l2.123-11.09l12.199,2.336
			L302.377,466.906z M284.634,463.508l-12.198-2.335l2.124-11.09l12.198,2.336L284.634,463.508z M266.892,460.111l-12.198-2.336
			l2.123-11.089l12.198,2.336L266.892,460.111z M249.148,456.713l-12.198-2.336l2.123-11.089l12.199,2.336L249.148,456.713z"/>
	</g>
</g>
<g>
	<g>
		<g>
			<path fill="#1C92A5" d="M-4319.827,110.099l429.612-429.612c64.938,22.535,139.916,7.874,191.782-43.993
				c38.571-38.571,56.562-89.924,53.987-140.424l-100.625,89.051l-127.399-33.142l-29.627-148.548l99.595-81.094
				c-55.891-8.151-114.793,9.274-157.803,52.284c-51.68,51.68-66.416,126.305-44.229,191.081L-4434.611-4.219
				c-64.776-22.188-139.4-7.451-191.081,44.229c-38.818,38.818-56.787,90.583-53.93,141.395l101.501-82.645l126.153,26.893
				l29.627,148.548l-91.449,80.93c53.514,5.498,108.965-12.245,149.969-53.25C-4311.954,250.015-4297.292,175.037-4319.827,110.099z
				"/>
		</g>
		<path fill="#18818C" d="M-4434.691-4.14c0,0,80.317,48.935,114.754,114.349l30.742-30.742c0,0-20.051-59.819-114.552-114.551
			L-4434.691-4.14z"/>
		<path fill="#18818C" d="M-4005.293-433.538c0,0,48.935,80.317,114.349,114.754l-30.742,30.742c0,0-59.819-20.051-114.551-114.551
			L-4005.293-433.538z"/>
		<path fill="#18818C" d="M-4269.017-12.836c-11.661,11.66-30.565,11.66-42.226,0l-0.201-0.201c-11.66-11.66-11.66-30.565,0-42.226
			l255.466-255.466c11.66-11.661,30.566-11.661,42.227,0l0.2,0.2c11.66,11.661,11.66,30.565,0,42.226L-4269.017-12.836z"/>
	</g>
	<g>
		<polygon fill="#A3A3A3" points="-3948.514,-63.436 -3990.611,-21.338 -4488.646,-519.372 -4524.036,-520.151 -4559.062,-606.803 
			-4534.792,-631.073 -4444.957,-597.043 -4446.164,-561.085 		"/>
		<g>
			<path fill="#F9A52B" d="M-4081.547-20.913l25.456,25.456l-0.096,0.095c0,0,48.065-42.997,46.629,0.344l0.129-0.111
				c-8.646,18.958-7.983,38.35,3.542,49.876l319.612,319.612c16.793,16.792,50.282,10.529,74.801-13.989l19.199-19.199
				l-425.678-425.678L-4081.547-20.913z"/>
			<path fill="#EA9524" d="M-3921.737-129.811l0.896-0.896l-25.456-25.456l-71.655,71.655l425.678,425.678l27.261-27.26
				c24.519-24.519,30.782-58.008,13.989-74.801l-319.612-319.612c-11.878-11.878-32.108-12.207-51.609-2.714
				C-3964.06-82.486-3921.737-129.811-3921.737-129.811z"/>
		</g>
		<path fill="#EA9524" d="M-3663.151,349.115c2.539,2.539,1.99,7.203-1.226,10.418l0,0c-3.216,3.215-7.88,3.764-10.418,1.226
			l-322.44-322.441c-2.539-2.539-1.99-7.203,1.226-10.418l0,0c3.216-3.215,7.88-3.764,10.418-1.226L-3663.151,349.115z"/>
		<path fill="#EA9524" d="M-3638.071,324.036c2.538,2.538,1.989,7.203-1.227,10.418l0,0c-3.215,3.216-7.879,3.765-10.418,1.226
			l-322.44-322.441c-2.538-2.538-1.989-7.203,1.226-10.418l0,0c3.215-3.215,7.88-3.764,10.418-1.226L-3638.071,324.036z"/>
		<path fill="#D18619" d="M-3612.097,298.061c2.539,2.539,1.99,7.203-1.226,10.418l0,0c-3.216,3.215-7.88,3.764-10.418,1.226
			l-322.44-322.44c-2.539-2.539-1.99-7.203,1.226-10.418l0,0c3.215-3.215,7.88-3.764,10.418-1.226L-3612.097,298.061z"/>
		<path fill="#D18619" d="M-3587.018,272.981c2.539,2.539,1.99,7.203-1.226,10.418l0,0c-3.215,3.215-7.88,3.764-10.418,1.226
			l-322.441-322.441c-2.538-2.539-1.989-7.203,1.227-10.418l0,0c3.215-3.215,7.88-3.764,10.418-1.226L-3587.018,272.981z"/>
		<path fill="#D18619" d="M-3562.834,248.798c2.539,2.539,1.99,7.203-1.226,10.418l0,0c-3.215,3.215-7.88,3.764-10.418,1.226
			l-322.44-322.44c-2.538-2.539-1.989-7.203,1.226-10.418l0,0c3.215-3.215,7.88-3.764,10.418-1.226L-3562.834,248.798z"/>
	</g>
</g>
<g>
	<path fill="#354F5C" d="M-4640.953,1104.576v186.489c0,24.296,5.19,42.158,15.573,53.589c10.38,11.435,23.359,17.148,38.932,17.148
		s28.549-5.714,38.932-17.148c10.379-11.431,15.573-29.293,15.573-53.589v-186.489h46.718v203.638
		c0,32.87-9.604,60.736-28.81,83.599c-19.208,22.865-43.346,34.297-72.413,34.297c-29.07,0-53.208-11.432-72.414-34.297
		c-19.208-22.862-28.81-50.729-28.81-83.599v-203.638H-4640.953z"/>
	<path fill="#354F5C" d="M-4434.77,1426.109v-321.533h15.573l146.384,201.494v-201.494h46.719v321.533h-17.13l-144.827-199.351
		v199.351H-4434.77z"/>
	<path fill="#354F5C" d="M-4177.662,1374.109v-321.747h90.011c72.67,0,109.01,53.662,109.01,160.98
		c0,107.178-36.34,160.767-109.01,160.767H-4177.662z M-4087.65,1310.018c41.422-0.142,62.186-32.368,62.291-96.675
		c-0.105-64.307-20.869-96.46-62.291-96.46h-43.293v193.135H-4087.65z"/>
	<path fill="#354F5C" d="M-3929.12,1426.109v-321.318l171.613-0.215v60.02h-124.895v68.594h93.593v59.806h-93.593v73.095h124.583
		v60.02H-3929.12z"/>
	<path fill="#354F5C" d="M-3569.854,1285.921l58.242,140.188h-53.57l-55.906-132.9h-42.67v132.9h-46.719v-321.533h101.847
		c54.505,0,81.757,30.867,81.757,92.602C-3526.874,1243.623-3541.2,1273.204-3569.854,1285.921z M-3663.759,1233.189h65.406
		c18.789-0.429,28.444-12.218,28.965-35.368c-0.521-21.147-10.02-32.153-28.498-33.011h-65.873V1233.189z"/>
</g>
<g>
	<g>
		<path fill="#D18619" d="M-2815.538-1016.152c-10.039,7.661-12.594,20.368-6.192,28.755l475.411,623.016
			c6.4,8.387,19.396,9.364,29.435,1.703l20.378-15.55l-498.654-653.474L-2815.538-1016.152z"/>
		<path fill="#C17A1B" d="M-2774.956-1047.12l-20.205,15.418l498.654,653.474l20.204-15.418c10.039-7.66,12.702-20.585,6.302-28.973
			l-475.412-623.015C-2751.812-1054.021-2764.917-1054.78-2774.956-1047.12z"/>
	</g>
	<g>
		<path fill="#354F5C" d="M-2499.546-1094.33c-104.89,70.248-199.789,25.983-199.789,25.983l-78.233,59.699l107.375,140.711
			l217.029-165.611L-2499.546-1094.33z"/>
		
			<rect x="-2898.239" y="-980.775" transform="matrix(-0.6066 -0.795 0.795 -0.6066 -3820.3945 -3635.9153)" fill="#405B66" width="177" height="216"/>
	</g>
</g>
<g>
	<g>
		<path fill="#354F5C" d="M-1980.591,2272.369c-0.104,3.448-0.312,6.934-0.619,10.361l-9.154-0.821
			c0.291-3.245,0.488-6.548,0.586-9.813L-1980.591,2272.369z M-1981.694,2287.424c-0.4,3.423-0.91,6.878-1.516,10.27l-9.047-1.612
			c0.572-3.212,1.055-6.484,1.434-9.726L-1981.694,2287.424z M-1984.104,2302.345c-0.698,3.38-1.508,6.784-2.407,10.117
			l-8.873-2.395c0.852-3.157,1.618-6.38,2.279-9.581L-1984.104,2302.345z M-1987.805,2317.013c-0.989,3.306-2.091,6.624-3.276,9.864
			l-8.632-3.155c1.122-3.069,2.165-6.213,3.103-9.344L-1987.805,2317.013z M-1992.763,2331.295
			c-1.271,3.205-2.656,6.414-4.116,9.539l-8.327-3.89c1.383-2.961,2.695-6.002,3.898-9.038L-1992.763,2331.295z M-1998.935,2345.087
			c-1.543,3.083-3.197,6.159-4.921,9.146l-7.962-4.593c1.633-2.829,3.201-5.745,4.662-8.665L-1998.935,2345.087z M-2006.269,2358.29
			c-1.801,2.936-3.714,5.858-5.686,8.686l-7.539-5.259c1.869-2.68,3.683-5.449,5.389-8.231L-2006.269,2358.29z M-2014.706,2370.809
			c-2.045,2.77-4.2,5.516-6.406,8.163l-7.061-5.885c2.092-2.509,4.135-5.112,6.072-7.737L-2014.706,2370.809z M-2024.181,2382.553
			c-2.276,2.586-4.658,5.138-7.082,7.583l-6.529-6.469c2.297-2.317,4.555-4.735,6.711-7.186L-2024.181,2382.553z
			 M-2034.624,2393.439c-2.488,2.381-5.081,4.717-7.703,6.944l-5.949-7.007c2.484-2.109,4.941-4.323,7.299-6.58L-2034.624,2393.439z
			 M-2045.958,2403.385c-2.686,2.158-5.468,4.262-8.271,6.253l-5.322-7.492c2.654-1.887,5.291-3.88,7.834-5.925L-2045.958,2403.385z
			 M-2058.103,2412.312c-2.859,1.918-5.812,3.773-8.775,5.515l-4.656-7.925c2.807-1.649,5.604-3.407,8.312-5.223L-2058.103,2412.312
			z M-2070.966,2420.154c-3.015,1.664-6.121,3.259-9.234,4.741l-3.951-8.299c2.947-1.403,5.891-2.914,8.746-4.489
			L-2070.966,2420.154z M-2084.488,2426.866c-3.148,1.396-6.382,2.714-9.611,3.92l-3.216-8.61c3.059-1.143,6.121-2.392,9.104-3.713
			L-2084.488,2426.866z M-2098.542,2432.377c-3.258,1.116-6.594,2.149-9.915,3.07l-2.457-8.855c3.146-0.873,6.306-1.853,9.391-2.91
			L-2098.542,2432.377z M-2113.02,2436.648c-3.338,0.829-6.749,1.571-10.14,2.204l-1.687-9.035c3.212-0.6,6.445-1.303,9.608-2.089
			L-2113.02,2436.648z M-2127.807,2439.657c-1.942,0.31-3.923,0.591-5.885,0.837c-1.46,0.183-2.942,0.35-4.404,0.496l-0.915-9.146
			c1.387-0.139,2.791-0.297,4.177-0.471c1.86-0.233,3.739-0.5,5.581-0.794L-2127.807,2439.657z M-2143.466,2432.23l0.672,9.167
			c-3.442,0.252-6.93,0.404-10.367,0.453l-0.129-9.19C-2150.034,2432.614-2146.729,2432.47-2143.466,2432.23z M-2157.761,2432.663
			l-0.117,9.19c-3.449-0.044-6.938-0.192-10.369-0.441l0.664-9.166C-2164.333,2432.481-2161.028,2432.621-2157.761,2432.663z
			 M-2172.036,2431.862l-0.913,9.146c-3.429-0.342-6.892-0.792-10.294-1.338l1.457-9.076
			C-2178.563,2431.111-2175.284,2431.538-2172.036,2431.862z M-2186.188,2429.826l-1.703,9.031
			c-3.393-0.64-6.811-1.391-10.158-2.232l2.242-8.914C-2192.639,2428.508-2189.401,2429.22-2186.188,2429.826z M-2200.14,2426.559
			l-2.483,8.85c-3.322-0.932-6.659-1.977-9.919-3.105l3.006-8.686C-2206.448,2424.687-2203.286,2425.676-2200.14,2426.559z
			 M-2213.749,2422.094l-3.241,8.602c-3.226-1.217-6.458-2.546-9.608-3.952l3.747-8.394
			C-2219.868,2419.683-2216.805,2420.942-2213.749,2422.094z M-2226.914,2416.47l-3.973,8.289c-3.109-1.49-6.214-3.094-9.228-4.765
			l4.455-8.038C-2232.802,2413.539-2229.86,2415.059-2226.914,2416.47z M-2239.542,2409.733l-4.672,7.916
			c-2.967-1.751-5.92-3.614-8.781-5.538l5.131-7.626C-2245.154,2406.309-2242.354,2408.074-2239.542,2409.733z M-2251.542,2401.939
			l-5.332,7.486c-2.805-1.998-5.588-4.107-8.271-6.269l5.765-7.159C-2256.837,2398.047-2254.2,2400.046-2251.542,2401.939z
			 M-2262.823,2393.148l-5.955,7.002c-2.624-2.232-5.215-4.571-7.701-6.952l6.356-6.639
			C-2267.767,2388.816-2265.311,2391.033-2262.823,2393.148z M-2273.308,2383.428l-6.533,6.465
			c-2.422-2.449-4.803-5.001-7.074-7.586l6.904-6.067C-2277.858,2378.688-2275.603,2381.106-2273.308,2383.428z M-2282.913,2372.847
			l-7.064,5.88c-2.201-2.646-4.354-5.393-6.394-8.163l7.4-5.45C-2287.037,2367.738-2284.999,2370.34-2282.913,2372.847z
			 M-2291.567,2361.486l-7.545,5.249c-1.964-2.823-3.869-5.743-5.664-8.681l7.844-4.791
			C-2295.233,2356.046-2293.427,2358.812-2291.567,2361.486z M-2299.202,2349.43l-7.971,4.578c-1.712-2.98-3.357-6.055-4.89-9.135
			l8.229-4.094C-2302.382,2343.697-2300.823,2346.607-2299.202,2349.43z M-2305.769,2336.751l-8.338,3.868
			c-1.451-3.128-2.826-6.339-4.086-9.543l8.555-3.362C-2308.444,2330.748-2307.144,2333.789-2305.769,2336.751z M-2319.497,2243.398
			c-0.461,3.23-0.831,6.517-1.1,9.77l-9.16-0.756c0.283-3.434,0.674-6.904,1.162-10.314L-2319.497,2243.398z M-2311.217,2323.531
			l-8.642,3.13c-1.172-3.235-2.263-6.553-3.242-9.859l8.813-2.609C-2313.36,2317.324-2312.327,2320.467-2311.217,2323.531z
			 M-2320.903,2257.627c-0.18,3.256-0.264,6.562-0.248,9.828l-9.191,0.04c-0.016-3.447,0.073-6.938,0.263-10.374L-2320.903,2257.627
			z M-2315.497,2309.89l-8.881,2.37c-0.888-3.325-1.688-6.724-2.377-10.101l9.004-1.841
			C-2317.097,2303.52-2316.339,2306.739-2315.497,2309.89z M-2321.072,2271.926c0.101,3.254,0.302,6.557,0.596,9.816l-9.153,0.826
			c-0.311-3.438-0.521-6.923-0.629-10.356L-2321.072,2271.926z M-2318.587,2295.926l-9.051,1.6c-0.6-3.387-1.107-6.846-1.507-10.267
			l9.129-1.068C-2319.636,2289.438-2319.154,2292.715-2318.587,2295.926z"/>
		<path fill="#354F5C" d="M-1992.665,1427.754c0.368,2.94,0.651,5.926,0.842,8.873l-9.172,0.592
			c-0.209-3.235-0.539-6.513-0.974-9.733l9.108-1.233C-1992.794,1426.751-1992.728,1427.252-1992.665,1427.754z M-1993.572,1421.568
			l-9.063,1.525c-0.541-3.208-1.201-6.431-1.964-9.578l8.933-2.164C-1994.854,1414.709-1994.149,1418.146-1993.572,1421.568z
			 M-1996.859,1406.76l-8.857,2.454c-0.867-3.131-1.858-6.267-2.946-9.32l8.659-3.083
			C-1998.843,1400.071-1997.784,1403.418-1996.859,1406.76z M-2001.667,1392.368l-8.554,3.364c-1.188-3.02-2.501-6.033-3.903-8.96
			l8.289-3.972C-2004.339,1385.925-2002.937,1389.144-2001.667,1392.368z M-2007.956,1378.557l-8.154,4.24
			c-1.495-2.873-3.115-5.73-4.814-8.494l7.829-4.815C-2011.281,1372.438-2009.552,1375.488-2007.956,1378.557z M-2015.642,1365.497
			l-7.667,5.069c-1.786-2.703-3.696-5.378-5.675-7.951l7.283-5.604C-2019.587,1359.757-2017.548,1362.612-2015.642,1365.497z
			 M-2024.647,1353.305l-7.1,5.838c-2.06-2.505-4.238-4.969-6.473-7.322l6.664-6.329
			C-2029.171,1348.002-2026.847,1350.631-2024.647,1353.305z M-2034.874,1342.108l-6.457,6.542
			c-2.311-2.281-4.732-4.508-7.198-6.617l5.976-6.983C-2039.925,1337.3-2037.339,1339.675-2034.874,1342.108z M-2046.206,1332.025
			l-5.746,7.174c-2.534-2.03-5.174-3.995-7.846-5.84l5.223-7.563C-2051.726,1327.764-2048.909,1329.86-2046.206,1332.025z
			 M-2058.523,1323.163l-4.976,7.729c-2.731-1.759-5.561-3.44-8.408-4.998l4.412-8.063
			C-2064.457,1319.492-2061.438,1321.286-2058.523,1323.163z M-2071.696,1315.619l-4.148,8.201c-2.898-1.466-5.887-2.845-8.882-4.1
			l3.552-8.478C-2077.979,1312.582-2074.79,1314.054-2071.696,1315.619z M-2085.587,1309.479l-3.273,8.588
			c-3.037-1.157-6.153-2.218-9.262-3.153l2.647-8.801C-2092.156,1307.11-2088.829,1308.243-2085.587,1309.479z M-2100.052,1304.817
			l-2.357,8.884c-3.143-0.834-6.354-1.562-9.543-2.168l1.711-9.03C-2106.835,1303.148-2103.407,1303.928-2100.052,1304.817z
			 M-2114.918,1301.697l-1.413,9.082c-3.203-0.499-6.469-0.888-9.706-1.155l0.757-9.159
			C-2121.824,1300.75-2118.338,1301.164-2114.918,1301.697z M-2130.014,1300.15l-0.458,9.181c-3.238-0.161-6.526-0.208-9.773-0.137
			l-0.201-9.188C-2136.979,1299.93-2133.47,1299.979-2130.014,1300.15z M-2145.186,1300.186l0.498,9.178
			c-3.236,0.176-6.515,0.469-9.741,0.873c-1.865,0.234-3.751,0.51-5.603,0.818l-1.513-9.065c1.975-0.33,3.984-0.623,5.973-0.872
			C-2152.131,1300.686-2148.637,1300.373-2145.186,1300.186z M-2164.404,1311.856c-3.19,0.639-6.392,1.398-9.513,2.258l-2.44-8.861
			c3.331-0.917,6.745-1.728,10.148-2.409L-2164.404,1311.856z M-2178.182,1315.364c-3.099,0.964-6.202,2.052-9.224,3.235
			l-3.352-8.559c3.227-1.264,6.539-2.426,9.846-3.453L-2178.182,1315.364z M-2191.515,1320.287c-2.979,1.28-5.951,2.688-8.834,4.182
			l-4.229-8.16c3.078-1.596,6.251-3.098,9.433-4.465L-2191.515,1320.287z M-2204.26,1326.578c-2.829,1.586-5.636,3.295-8.341,5.078
			l-5.059-7.674c2.888-1.904,5.884-3.729,8.904-5.422L-2204.26,1326.578z M-2216.264,1334.157c-2.646,1.869-5.26,3.861-7.771,5.921
			l-5.828-7.107c2.68-2.198,5.471-4.324,8.294-6.319L-2216.264,1334.157z M-2227.421,1342.947c-2.439,2.137-4.834,4.391-7.119,6.698
			l-6.533-6.466c2.438-2.462,4.994-4.866,7.598-7.146L-2227.421,1342.947z M-2237.613,1352.854c-2.209,2.381-4.359,4.871-6.392,7.4
			l-7.166-5.757c2.168-2.698,4.462-5.354,6.818-7.895L-2237.613,1352.854z M-2246.733,1363.764
			c-1.951,2.598-3.834,5.297-5.594,8.023l-7.722-4.986c1.878-2.908,3.886-5.788,5.968-8.559L-2246.733,1363.764z
			 M-2254.679,1375.562c-1.675,2.787-3.269,5.667-4.736,8.56l-8.196-4.159c1.566-3.087,3.267-6.16,5.053-9.133L-2254.679,1375.562z
			 M-2261.364,1388.123c-1.377,2.943-2.662,5.974-3.822,9.005l-8.585-3.286c1.239-3.234,2.611-6.469,4.079-9.611L-2261.364,1388.123
			z M-2266.71,1401.312c-1.062,3.072-2.025,6.22-2.862,9.356l-8.88-2.37c0.893-3.35,1.922-6.71,3.055-9.989L-2266.71,1401.312z
			 M-2270.651,1414.992c-0.732,3.162-1.36,6.39-1.864,9.595l-9.079-1.427c0.537-3.423,1.207-6.87,1.99-10.245L-2270.651,1414.992z
			 M-2273.134,1428.987c-0.398,3.219-0.685,6.495-0.851,9.737l-9.179-0.471c0.178-3.461,0.482-6.959,0.908-10.396
			L-2273.134,1428.987z M-2274.14,1443.166c-0.061,3.24-0.004,6.528,0.167,9.774l-9.179,0.484c-0.182-3.463-0.242-6.973-0.178-10.43
			L-2274.14,1443.166z"/>
		<path fill="#354F5C" d="M-2274.335,1451.113l-0.582,10.094l-9.176-0.529l0.582-10.094L-2274.335,1451.113z M-2275.181,1465.795
			l-0.583,10.093l-9.176-0.529l0.581-10.093L-2275.181,1465.795z M-2276.028,1480.477l-0.582,10.094l-9.177-0.53l0.582-10.093
			L-2276.028,1480.477z M-2276.876,1495.158l-0.582,10.093l-9.176-0.529l0.582-10.094L-2276.876,1495.158z M-2277.723,1509.84
			l-0.583,10.094l-9.176-0.53l0.582-10.094L-2277.723,1509.84z M-2278.569,1524.521l-0.583,10.093l-9.177-0.529l0.583-10.094
			L-2278.569,1524.521z M-2279.417,1539.202l-0.582,10.095l-9.177-0.53l0.583-10.094L-2279.417,1539.202z M-2280.265,1553.885
			l-0.582,10.093l-9.176-0.529l0.582-10.094L-2280.265,1553.885z M-2281.111,1568.565l-0.583,10.094l-9.176-0.529l0.583-10.094
			L-2281.111,1568.565z M-2281.958,1583.247l-0.583,10.094l-9.176-0.529l0.583-10.094L-2281.958,1583.247z M-2282.806,1597.929
			l-0.582,10.094l-9.176-0.53l0.582-10.093L-2282.806,1597.929z M-2283.652,1612.61l-0.583,10.093l-9.176-0.529l0.582-10.093
			L-2283.652,1612.61z M-2284.5,1627.292l-0.583,10.094l-9.176-0.53l0.582-10.093L-2284.5,1627.292z M-2285.347,1641.974
			l-0.583,10.093l-9.176-0.529l0.582-10.094L-2285.347,1641.974z M-2286.194,1656.655l-0.582,10.093l-9.176-0.529l0.582-10.093
			L-2286.194,1656.655z M-2287.042,1671.337l-0.582,10.093l-9.176-0.529l0.582-10.094L-2287.042,1671.337z M-2287.889,1686.018
			l-0.583,10.094l-9.176-0.529l0.582-10.094L-2287.889,1686.018z M-2288.735,1700.699l-0.583,10.094l-9.177-0.529l0.584-10.094
			L-2288.735,1700.699z M-2289.583,1715.381l-0.582,10.094l-9.177-0.529l0.583-10.094L-2289.583,1715.381z M-2290.431,1730.062
			l-0.582,10.094l-9.176-0.529l0.582-10.094L-2290.431,1730.062z M-2291.277,1744.744l-0.583,10.094l-9.176-0.529l0.583-10.094
			L-2291.277,1744.744z M-2292.124,1759.426l-0.583,10.094l-9.176-0.529l0.583-10.094L-2292.124,1759.426z M-2292.972,1774.107
			l-0.582,10.094l-9.176-0.529l0.582-10.094L-2292.972,1774.107z M-2293.818,1788.789l-0.583,10.094l-9.176-0.529l0.582-10.094
			L-2293.818,1788.789z M-2294.666,1803.471l-0.583,10.094l-9.176-0.529l0.582-10.094L-2294.666,1803.471z M-2295.513,1818.152
			l-0.583,10.094l-9.176-0.529l0.582-10.094L-2295.513,1818.152z M-2296.36,1832.834l-0.582,10.094l-9.176-0.53l0.582-10.093
			L-2296.36,1832.834z M-2297.208,1847.516l-0.582,10.094l-9.176-0.53l0.582-10.093L-2297.208,1847.516z M-2298.055,1862.197
			l-0.582,10.094l-9.177-0.529l0.582-10.094L-2298.055,1862.197z M-2298.901,1876.879l-0.582,10.093l-9.178-0.529l0.583-10.094
			L-2298.901,1876.879z M-2299.749,1891.561l-0.582,10.093l-9.176-0.529l0.582-10.094L-2299.749,1891.561z M-2300.597,1906.242
			l-0.582,10.093l-9.176-0.529l0.582-10.094L-2300.597,1906.242z M-2301.443,1920.923l-0.583,10.094l-9.176-0.529l0.583-10.094
			L-2301.443,1920.923z M-2302.29,1935.604l-0.583,10.094l-9.176-0.529l0.583-10.094L-2302.29,1935.604z M-2303.138,1950.286
			l-0.582,10.094l-9.176-0.529l0.582-10.094L-2303.138,1950.286z M-2303.984,1964.968l-0.583,10.094l-9.176-0.53l0.582-10.093
			L-2303.984,1964.968z M-2304.832,1979.649l-0.583,10.094l-9.176-0.53l0.582-10.094L-2304.832,1979.649z M-2305.679,1994.331
			l-0.583,10.094l-9.176-0.53l0.582-10.093L-2305.679,1994.331z M-2306.526,2009.012l-0.582,10.094l-9.176-0.529l0.582-10.094
			L-2306.526,2009.012z M-2307.374,2023.693l-0.582,10.094l-9.176-0.529l0.582-10.094L-2307.374,2023.693z M-2308.221,2038.375
			l-0.583,10.094l-9.176-0.529l0.582-10.094L-2308.221,2038.375z M-2309.067,2053.057l-0.583,10.094l-9.177-0.529l0.583-10.094
			L-2309.067,2053.057z M-2309.915,2067.738l-0.582,10.094l-9.177-0.529l0.583-10.094L-2309.915,2067.738z M-2310.763,2082.42
			l-0.582,10.094l-9.176-0.529l0.582-10.094L-2310.763,2082.42z M-2311.609,2097.102l-0.583,10.094l-9.176-0.529l0.583-10.094
			L-2311.609,2097.102z M-2312.456,2111.783l-0.583,10.094l-9.176-0.53l0.583-10.093L-2312.456,2111.783z M-2313.304,2126.465
			l-0.582,10.094l-9.176-0.53l0.582-10.093L-2313.304,2126.465z M-2314.15,2141.146l-0.583,10.094l-9.176-0.53l0.582-10.093
			L-2314.15,2141.146z M-2314.997,2155.828l-0.583,10.093l-9.177-0.529l0.584-10.093L-2314.997,2155.828z M-2315.845,2170.51
			l-0.582,10.093l-9.176-0.529l0.582-10.094L-2315.845,2170.51z M-2316.692,2185.19l-0.582,10.094l-9.176-0.529l0.582-10.094
			L-2316.692,2185.19z M-2317.539,2199.872l-0.583,10.094l-9.176-0.529l0.582-10.094L-2317.539,2199.872z M-2318.386,2214.554
			l-0.583,10.094l-9.177-0.529l0.583-10.094L-2318.386,2214.554z M-2319.233,2229.235l-0.582,10.094l-9.177-0.53l0.583-10.093
			L-2319.233,2229.235z"/>
		<path fill="#354F5C" d="M-1991.927,1433.875l0.098,6.484l-9.191,0.137l-0.096-6.484L-1991.927,1433.875z M-1991.762,1444.954
			l0.15,10.109l-9.19,0.138l-0.15-10.109L-1991.762,1444.954z M-1991.544,1459.658l0.151,10.109l-9.19,0.137l-0.15-10.108
			L-1991.544,1459.658z M-1991.324,1474.363l0.149,10.109l-9.189,0.136l-0.15-10.108L-1991.324,1474.363z M-1991.105,1489.068
			l0.15,10.108l-9.19,0.136l-0.15-10.108L-1991.105,1489.068z M-1990.888,1503.771l0.15,10.109l-9.189,0.137l-0.15-10.109
			L-1990.888,1503.771z M-1990.669,1518.476l0.15,10.11l-9.189,0.136l-0.15-10.109L-1990.669,1518.476z M-1990.45,1533.181
			l0.15,10.108l-9.19,0.137l-0.149-10.108L-1990.45,1533.181z M-1990.231,1547.885l0.15,10.109l-9.19,0.136l-0.15-10.108
			L-1990.231,1547.885z M-1990.013,1562.59l0.15,10.108l-9.19,0.136l-0.15-10.108L-1990.013,1562.59z M-1989.794,1577.293
			l0.15,10.109l-9.191,0.137l-0.149-10.109L-1989.794,1577.293z M-1989.575,1591.998l0.15,10.109l-9.191,0.136l-0.149-10.108
			L-1989.575,1591.998z M-1989.356,1606.701l0.15,10.109l-9.191,0.137l-0.15-10.108L-1989.356,1606.701z M-1989.139,1621.406
			l0.15,10.108l-9.19,0.138l-0.15-10.109L-1989.139,1621.406z M-1988.919,1636.11l0.15,10.109l-9.191,0.136l-0.15-10.108
			L-1988.919,1636.11z M-1988.7,1650.814l0.149,10.109l-9.19,0.137l-0.15-10.109L-1988.7,1650.814z M-1988.482,1665.519l0.15,10.11
			l-9.19,0.136l-0.15-10.109L-1988.482,1665.519z M-1988.264,1680.224l0.149,10.108l-9.189,0.137l-0.15-10.109L-1988.264,1680.224z
			 M-1988.046,1694.928l0.15,10.109l-9.189,0.137l-0.15-10.109L-1988.046,1694.928z M-1987.827,1709.633l0.15,10.108l-9.189,0.136
			l-0.15-10.108L-1987.827,1709.633z M-1987.608,1724.336l0.15,10.109l-9.189,0.137l-0.15-10.109L-1987.608,1724.336z
			 M-1987.39,1739.041l0.15,10.108l-9.19,0.137l-0.149-10.108L-1987.39,1739.041z M-1987.171,1753.745l0.15,10.108l-9.191,0.137
			l-0.149-10.109L-1987.171,1753.745z M-1986.952,1768.449l0.15,10.108l-9.19,0.138l-0.15-10.109L-1986.952,1768.449z
			 M-1986.733,1783.153l0.15,10.109l-9.19,0.137l-0.151-10.108L-1986.733,1783.153z M-1986.515,1797.857l0.15,10.109l-9.191,0.137
			l-0.15-10.109L-1986.515,1797.857z M-1986.296,1812.562l0.15,10.109l-9.191,0.137l-0.15-10.11L-1986.296,1812.562z
			 M-1986.077,1827.267l0.149,10.108l-9.19,0.137l-0.15-10.109L-1986.077,1827.267z M-1985.859,1841.971l0.15,10.109l-9.19,0.137
			l-0.15-10.109L-1985.859,1841.971z M-1985.642,1856.675l0.151,10.109l-9.19,0.137l-0.15-10.109L-1985.642,1856.675z
			 M-1985.422,1871.379l0.15,10.109l-9.19,0.137l-0.15-10.109L-1985.422,1871.379z M-1985.204,1886.084l0.15,10.109l-9.189,0.137
			l-0.15-10.109L-1985.204,1886.084z M-1984.985,1900.788l0.15,10.109l-9.189,0.137l-0.15-10.109L-1984.985,1900.788z
			 M-1984.767,1915.492l0.15,10.109l-9.19,0.137l-0.15-10.109L-1984.767,1915.492z M-1984.548,1930.196l0.15,10.109l-9.189,0.137
			l-0.151-10.109L-1984.548,1930.196z M-1984.329,1944.9l0.15,10.109l-9.19,0.137l-0.149-10.109L-1984.329,1944.9z
			 M-1984.11,1959.605l0.15,10.109l-9.19,0.137l-0.15-10.109L-1984.11,1959.605z M-1983.892,1974.31l0.15,10.109l-9.19,0.137
			l-0.151-10.109L-1983.892,1974.31z M-1983.673,1989.014l0.15,10.109l-9.191,0.137l-0.15-10.109L-1983.673,1989.014z
			 M-1983.454,2003.719l0.149,10.108l-9.19,0.137l-0.15-10.108L-1983.454,2003.719z M-1983.235,2018.422l0.15,10.109l-9.191,0.137
			l-0.15-10.108L-1983.235,2018.422z M-1983.018,2033.127l0.15,10.109l-9.19,0.137l-0.15-10.109L-1983.018,2033.127z
			 M-1982.798,2047.831l0.148,10.109l-9.189,0.137l-0.15-10.109L-1982.798,2047.831z M-1982.58,2062.535l0.149,10.109l-9.189,0.137
			l-0.15-10.109L-1982.58,2062.535z M-1982.362,2077.24l0.15,10.108l-9.189,0.137l-0.15-10.108L-1982.362,2077.24z
			 M-1982.144,2091.944l0.15,10.109l-9.189,0.137l-0.15-10.109L-1982.144,2091.944z M-1981.925,2106.648l0.15,10.109l-9.189,0.137
			l-0.15-10.109L-1981.925,2106.648z M-1981.706,2121.353l0.15,10.109l-9.19,0.137l-0.149-10.109L-1981.706,2121.353z
			 M-1981.487,2136.058l0.15,10.108l-9.19,0.137l-0.15-10.109L-1981.487,2136.058z M-1981.269,2150.762l0.15,10.109l-9.19,0.137
			l-0.151-10.109L-1981.269,2150.762z M-1981.05,2165.466l0.15,10.109l-9.19,0.137l-0.15-10.109L-1981.05,2165.466z
			 M-1980.831,2180.17l0.15,10.109l-9.19,0.137l-0.151-10.109L-1980.831,2180.17z M-1980.612,2194.875l0.15,10.108l-9.19,0.137
			l-0.151-10.108L-1980.612,2194.875z M-1980.395,2209.579l0.15,10.109l-9.19,0.136l-0.15-10.108L-1980.395,2209.579z
			 M-1980.176,2224.283l0.15,10.109l-9.19,0.137l-0.15-10.109L-1980.176,2224.283z M-1979.957,2238.987l0.15,10.109l-9.19,0.137
			l-0.15-10.109L-1979.957,2238.987z M-1979.738,2253.691l0.15,10.109l-9.19,0.137l-0.15-10.109L-1979.738,2253.691z"/>
	</g>
	<g>
		<path fill="#1C92A5" d="M-2095.958,1536.809c4.267-1.867,8.644-4.121,12.637-6.583l12.831,15.936l17.873-14.344l-12.689-15.812
			c4.333-4.327,8.239-9.029,11.684-14.034l17.853,9.342l10.625-20.309l-17.738-9.29c1.745-4.456,3.168-9.059,4.261-13.743
			l19.839,2.145l2.477-22.844l-19.792-2.29c-0.017-6.087-0.534-12.041-1.852-18.635l17.786-5.565l-6.757-21.598l-17.791,5.566
			c-1.912-4.252-4.213-8.582-6.754-12.607l14.522-11.511l-14.343-17.872l-14.538,11.666c-4.396-4.312-9.169-8.191-14.244-11.599
			l8.691-16.608l-20.305-10.626l-8.752,16.722c-4.457-1.688-9.043-3.059-13.721-4.096l2.057-18.805l-22.789-2.494l-2.096,18.965
			c-5.988,0.082-12.022,0.707-18.107,1.929l-6.186-19.767l-22.088,6.911l6.238,19.941c-4.244,1.937-8.347,4.176-12.28,6.686
			l-12.812-16.19l-17.874,14.343l13.071,16.287c-4.179,4.302-7.944,8.96-11.262,13.904l-18.637-9.755l-10.628,20.302l18.754,9.812
			c-1.646,4.348-2.99,8.81-4.018,13.368l-21.071-2.323l-2.506,22.752l21.124,2.259c0.061,5.833,0.534,11.394,1.726,17.487
			l-21.638,6.771l6.758,21.598l21.634-6.769c2.046,4.75,4.166,8.653,6.599,12.554l-17.523,14.378l14.342,17.873l17.558-14.09
			c4.233,4.197,8.821,7.99,13.697,11.344l-10.407,19.883l20.303,10.627l10.341-19.768c4.347,1.701,8.81,3.104,13.375,4.185
			l-2.441,22.116l22.744,2.508l2.332-21.916c5.931,0.004,12.145-0.597,17.767-1.578l6.152,19.667l22.09-6.911L-2095.958,1536.809z
			 M-2112.455,1519.959c-41.481,12.979-85.63-10.127-98.608-51.607c-12.979-41.481,10.127-85.63,51.607-98.608
			c41.481-12.979,85.63,10.127,98.609,51.608C-2047.868,1462.832-2070.974,1506.98-2112.455,1519.959z"/>
	</g>
	<g>
		<path fill="none" d="M-2203.216,2273.173c1.691,19.246,15.744,35.938,35.633,40.093c24.326,5.083,48.168-10.519,53.25-34.846
			c1.164-5.574,1.24-11.123,0.376-16.428"/>
		<path fill="#707B8F" d="M-2036.685,2292.746h33.008v-49h-32.9c-3.156-17-9.616-32.359-19.364-46.76l22.431-22.375l-34.223-34.196
			l-22.497,22.511c-14.017-9.408-29.513-15.613-45.513-18.803l-0.034-32.377h-23.616l-0.294,112.313
			c4.327,0.171,8.702,0.923,12.987,2.405c23.486,8.129,35.918,33.734,27.79,57.221c-6.265,18.104-22.737,29.034-41.012,29.652
			l-0.288,109.408h24.428l0.018-31.581c16.158-3.221,31.811-9.313,45.936-18.874l23.31,23.455l34.226-34.147l-23.369-23.156
			C-2046.179,2324.309-2039.849,2307.746-2036.685,2292.746z"/>
		<path fill="#8992A0" d="M-2176.134,2311.471c-23.486-8.127-35.953-33.756-27.826-57.24c6.646-19.201,25.039-30.936,44.272-30.171
			l0.294-112.313h-24.809l0.018,32.122c-16.476,3.099-32.438,9.442-46.847,19.112l-22.492-22.52l-34.222,34.213l22.432,22.316
			c-9.749,14.399-16.208,29.756-19.365,46.756h-30.998v49h31.104c3.164,15,9.492,31.6,18.978,45.732l-23.372,23.281l34.223,34.18
			l23.306-23.327c14.517,9.826,30.636,15.694,47.269,18.824l-0.035,31.31h23.996l0.288-109.419
			C-2165.212,2313.511-2170.751,2313.334-2176.134,2311.471z"/>
	</g>
</g>
<g>
	<path fill="#1C92A5" d="M-5901.695,1201.819c-5.855-3.47,5.346,4.198-0.715,1.459l19.18,152.188l-96.635,71.98l-115.373-40.15
		l-30.722-158.563c-18.101,13.706-10.816,15.901-23.111,36.638c-50.804,85.691-22.392,196.126,63.3,246.931
		c9.288,5.507,18.882,10.027,28.65,13.7l-7.423,760.849c0.816,48.944,41.155,87.96,90.1,87.144l0.95-0.016
		c48.944-0.816,87.96-41.156,87.144-90.101l-32.637-762.681c32.448-14.758,60.881-39.204,80.429-72.174
		C-5787.753,1363.331-5816.003,1252.624-5901.695,1201.819z M-5975.248,2336.046c-26.963-0.237-48.629-22.288-48.392-49.251
		c0.237-26.963,22.287-48.629,49.25-48.393c26.963,0.237,48.629,22.288,48.392,49.251
		C-5926.234,2314.617-5948.285,2336.283-5975.248,2336.046z"/>
</g>
<g>
	<path fill="#354F5C" d="M-5043.586,1844.956v-227.038h11.596l75.372,112.006l75.488-112.006h11.596v227.038h-34.787l-0.116-131.682
		l-52.181,75.679l-52.18-75.679v131.682H-5043.586z"/>
	<path fill="#354F5C" d="M-4844.024,1844.956l69.574-227.038h34.787l69.458,226.887l-36.99,0.151l-10.437-34.812h-78.85
		l-10.437,34.812H-4844.024z M-4756.129,1678.462l-26.438,86.274h52.181L-4756.129,1678.462z"/>
	<path fill="#354F5C" d="M-4644.231,1617.767h34.671v227.189h-34.671V1617.767z"/>
	<path fill="#354F5C" d="M-4574.657,1844.956v-227.038h11.596l108.999,142.277v-142.277h34.787v227.038h-12.755l-107.839-140.764
		v140.764H-4574.657z"/>
	<path fill="#354F5C" d="M-4241.282,1617.918v42.381h-57.979v184.657h-34.787v-184.657h-57.978v-42.381H-4241.282z"/>
	<path fill="#354F5C" d="M-4215.888,1844.956v-226.887l127.784-0.151v42.381h-92.997v48.435h69.688v42.229h-69.688v51.613h92.765
		v42.381H-4215.888z"/>
	<path fill="#354F5C" d="M-4053.085,1844.956v-227.038h11.596l108.999,142.277v-142.277h34.787v227.038h-12.755l-107.84-140.764
		v140.764H-4053.085z"/>
	<path fill="#354F5C" d="M-3870.801,1844.956l69.573-227.038h34.787l69.458,226.887l-36.99,0.151l-10.436-34.812h-78.851
		l-10.437,34.812H-3870.801z M-3782.906,1678.462l-26.438,86.274h52.18L-3782.906,1678.462z"/>
	<path fill="#354F5C" d="M-3671.008,1844.956v-227.038h11.596l108.999,142.277v-142.277h34.787v227.038h-12.755l-107.84-140.764
		v140.764H-3671.008z"/>
	<path fill="#354F5C" d="M-3463.155,1812.338c-16.66-21.644-24.989-48.761-24.989-81.354c0.076-31.885,8.425-58.701,25.047-80.447
		c16.62-21.744,37.222-32.618,61.805-32.618c24.814,0,46.111,10.092,63.893,30.271l-23.191,33.148
		c-11.828-12.109-25.395-18.163-40.701-18.163c-15.616,0.102-28.197,6.458-37.744,19.07c-9.548,12.615-14.32,28.759-14.32,48.436
		c0.076,21.091,4.908,37.839,14.495,50.251c9.584,12.411,22.186,18.617,37.802,18.617c15.614,0,29.104-6.003,40.469-18.012
		l23.191,33.147c-17.703,20.183-39.002,30.271-63.893,30.271C-3425.876,1844.856-3446.498,1833.982-3463.155,1812.338z"/>
	<path fill="#354F5C" d="M-3300.41,1844.956v-226.887l127.784-0.151v42.381h-92.997v48.435h69.689v42.229h-69.689v51.613h92.766
		v42.381H-3300.41z"/>
</g>
</svg>
