<?xml version="1.0" encoding="utf-8"?>
<!-- Generator: Adobe Illustrator 16.0.0, SVG Export Plug-In . SVG Version: 6.00 Build 0)  -->
<!DOCTYPE svg PUBLIC "-//W3C//DTD SVG 1.1//EN" "http://www.w3.org/Graphics/SVG/1.1/DTD/svg11.dtd">
<svg version="1.1" id="Layer_1" xmlns="http://www.w3.org/2000/svg" xmlns:xlink="http://www.w3.org/1999/xlink" x="0px" y="0px"
	 width="387.164px" height="392.652px" viewBox="0 0 387.164 392.652" enable-background="new 0 0 387.164 392.652"
	 xml:space="preserve">
<rect x="-6705.092" y="-1474.816" fill="#A6DDDB" width="5000" height="5000"/>
<g>
	<path fill="#C1E5E2" d="M-6227.704,930.221l38.128-0.253l-0.371-55.765l-38.005,0.253c-3.762-18.97-11.323-37.32-22.659-53.828
		l25.659-26.002l-39.673-39.15l-25.735,26.08c-16.213-10.726-34.106-17.862-52.557-21.413l-0.249-37.392l-55.764,0.37l0.247,37.092
		c-18.95,3.695-37.293,11.172-53.812,22.419l-26.079-25.735l-39.15,39.673l26.002,25.659
		c-11.116,16.658-18.432,35.107-21.942,54.124l-36.014,0.239l0.37,55.764l36.137-0.24c3.767,18.565,11.174,36.523,22.206,52.727
		l-26.736,27.094l39.673,39.149l26.66-27.016c16.792,11.206,35.404,18.545,54.584,22.022l0.244,36.762l55.764-0.37l-0.247-37.062
		c18.583-3.832,36.549-11.314,52.743-22.434l27.016,26.659l39.15-39.673l-27.093-26.736
		C-6238.393,966.889-6231.224,948.834-6227.704,930.221z M-6304.042,968.928c-35.891,36.37-94.471,36.76-130.841,0.869
		c-36.371-35.891-36.76-94.47-0.869-130.84c35.891-36.371,94.47-36.76,130.84-0.869S-6268.151,932.557-6304.042,968.928z"/>
</g>
<g>
	<path fill="#C1E5E2" d="M-1874.816,1834.812l38.129-0.254l-0.371-55.764l-38.005,0.252c-3.763-18.969-11.323-37.319-22.659-53.828
		l25.659-26.002l-39.674-39.149l-25.734,26.079c-16.214-10.727-34.106-17.862-52.558-21.412l-0.248-37.393l-55.764,0.371
		l0.246,37.092c-18.949,3.695-37.294,11.172-53.812,22.418l-26.079-25.734l-39.149,39.673l26.002,25.659
		c-11.116,16.658-18.433,35.106-21.943,54.124l-36.014,0.239l0.371,55.764l36.137-0.239c3.767,18.564,11.174,36.522,22.205,52.726
		l-26.736,27.094l39.674,39.15l26.66-27.017c16.792,11.205,35.404,18.546,54.584,22.022l0.244,36.762l55.764-0.37l-0.246-37.062
		c18.584-3.833,36.549-11.315,52.742-22.435l27.018,26.66l39.149-39.673l-27.094-26.736
		C-1885.505,1871.48-1878.336,1853.426-1874.816,1834.812z M-1951.153,1873.52c-35.892,36.37-94.47,36.759-130.841,0.868
		s-36.76-94.47-0.869-130.841c35.891-36.37,94.471-36.76,130.841-0.869S-1915.263,1837.148-1951.153,1873.52z"/>
</g>
<g>
	<path fill="#C1E5E2" d="M-1890.755-834.097l6.115-33.875l-30.159-5.445c0.408-8.476,0.146-17.758-0.956-26.509l31.911-7.493
		l-7.904-33.101l-32.188,7.69c-2.439-6.536-5.334-12.863-8.648-18.963l27.26-18.916l-19.436-27.995l-27.417,19.033
		c-5.851-6.576-12.295-12.645-19.271-18.116l17.547-28.515l-29.027-17.862l-17.979,28.518c-6.207-2.869-12.359-5.276-19.746-7.417
		l5.99-33.176l-33.122-5.98l-5.991,33.182c-9.213-0.632-17.507-0.303-26.125,0.687l-7.239-30.756l-33.111,7.903l7.323,30.665
		c-6.537,2.358-12.873,5.169-18.984,8.4l-17.946-25.86l-27.995,19.435l17.84,25.7c-6.684,5.811-12.859,12.229-18.438,19.188
		l-26.451-16.277l-17.861,29.027l26.262,15.915c-2.979,6.27-5.523,12.738-7.598,19.359l-30.58-5.521l-6.117,33.875l30.314,5.473
		c-0.678,9.206-0.485,18.225,0.501,27.079l-27.599,6.597l7.892,33.169l27.37-6.511c2.396,6.711,5.268,13.226,8.581,19.491
		l-23.058,16.007l19.434,28l22.902-15.896c5.967,6.86,12.573,13.185,19.75,18.876l-14.53,23.611l29.027,17.862l14.301-23.559
		c6.411,3.005,13.226,5.601,19.854,7.636l-4.926,27.283l33.121,5.98l4.926-27.277c9.975,0.726,18.855,0.389,27.842-0.712
		l7.038,28.785l33.253-7.877l-6.831-28.881c6.71-2.478,13.239-5.429,19.493-8.828l16.988,24.46l28.006-19.434l-17.087-24.619
		c6.75-6.007,12.968-12.643,18.551-19.836l25.681,15.803l17.863-29.027l-25.889-15.99c2.896-6.348,5.413-13.223,7.379-19.864
		L-1890.755-834.097z M-2084.541-766.338c-63.613-11.485-105.872-72.365-94.387-135.979
		c11.484-63.614,72.365-105.873,135.979-94.387c63.614,11.485,105.873,72.365,94.388,135.979
		C-1960.047-797.112-2020.928-754.853-2084.541-766.338z"/>
</g>
<g>
	<path fill="#C1E5E2" d="M-6001.226-931.73l41.338-14.004l-20.482-60.457l-41.204,13.958
		c-10.918-19.256-25.741-36.472-44.002-50.328l18.517-37.491l-57.204-28.253l-18.572,37.603c-21.479-5.816-43.49-7.126-64.815-4.34
		l-13.733-40.539l-60.457,20.481l13.623,40.213c-19.259,10.838-36.499,25.568-50.397,43.735l-37.603-18.572l-28.253,57.204
		l37.491,18.517c-6.08,22.102-7.387,44.782-4.353,66.709l-39.044,13.228l20.481,60.457l39.178-13.273
		c10.777,18.816,25.292,35.661,43.113,49.294l-19.294,39.065l57.204,28.253l19.24-38.954c22.28,6.129,45.146,7.403,67.237,4.274
		l13.502,39.856l60.457-20.481l-13.612-40.181c18.812-10.856,35.638-25.455,49.229-43.368l38.954,19.24l28.253-57.204
		l-39.065-19.294C-5999.635-888.039-5998.348-910.239-6001.226-931.73z M-6167.214-848.938c-32.76-0.214-59.144-26.944-58.93-59.704
		s26.943-59.145,59.704-58.931c32.76,0.214,59.144,26.944,58.93,59.704S-6134.454-848.724-6167.214-848.938z"/>
</g>
<g>
	<g>
		<path fill="#1C92A5" d="M-6024.467,619.017c7.516,25.381,17.137,51.659,28.203,75.919l-98.944,61.115l68.271,110.941
			l98.153-60.399c21.343,27.492,45.104,52.853,70.902,75.811l-65.304,94.096l107.034,74.275l64.932-93.487
			c23.899,12.99,48.856,24.269,74.502,33.739l-26.106,110.383l127.09,30.108l26.901-110.014
			c34.347,4.207,68.291,5.497,106.411,2.721l18.823,104.253l126.593-22.855l-18.826-104.275
			c25.333-7.78,51.379-17.699,75.882-29.187l54.658,90.042l110.941-68.27l-55.531-90.242c27.426-21.75,52.679-45.926,75.483-72.146
			l87.531,60.758l74.279-107.014l-88.13-61.181c12.665-23.943,23.639-48.846,32.795-74.495l104.611,24.885l30.165-126.772
			l-105.485-25.216c3.769-33.837,4.504-68.311,1.917-103.494l115.858-20.918l-23.375-129.471l-116.881,21.103
			c-7.926-25.307-17.655-50.03-29.035-73.991l100.372-60.827l-68.27-110.942l-101.096,62.213
			c-21.314-26.603-44.922-51.132-70.467-73.339l68.187-98.227l-107-74.282l-68.589,98.839
			c-23.358-12.349-47.574-23.093-72.557-32.107l27.988-117.202l-126.553-30.205l-27.667,117.55
			c-32.939-3.783-64.638-5.041-99.853-2.626l-22.897-126.822l-126.593,22.857l22.894,126.798
			c-28.232,8.183-51.747,17.383-75.468,28.348l-68.711-108.996l-110.942,68.269l67.065,108.981
			c-26.665,20.914-51.298,44.109-73.656,69.241l-104.79-72.744l-74.282,106.997l104.187,72.297
			c-12.667,23.315-23.73,47.496-33.051,72.479l-123.021-29.395l-30.211,126.511l121.963,28.636
			c-4.211,33.445-5.215,68.92-3.651,101.318l-115.272,20.812l23.375,129.471L-6024.467,619.017z M-5917.779,537.868
			c-43.897-243.132,117.616-475.814,360.748-519.711c243.132-43.897,475.814,117.616,519.711,360.748
			c43.897,243.133-117.615,475.815-360.748,519.711C-5641.199,942.513-5873.882,781.001-5917.779,537.868z"/>
	</g>
	<g>
		<g>
			<path fill="#3D6D7A" d="M-5205.196,678.08l77.37,40.137l61.24-118.049l-77.599-40.254
				c13.372-45.767,16.844-92.902,11.288-138.631l84.366-26.735l-40.193-126.839l-85.047,26.952
				c-21.636-39.266-50.996-74.623-87.271-103.531l40.254-77.601l-118.05-61.238l-40.133,77.372
				c-45.809-13.583-93.024-17.243-138.844-11.823l-27.392-86.446l-126.839,40.191l27.481,86.725
				c-28.098,15.366-54.198,34.701-77.402,57.666l96.6,79.379c66.269-65.5,159.556-74.824,246.722-29.607
				c108.223,56.141,150.443,189.384,94.302,297.603c-56.14,108.222-189.381,150.442-297.599,94.305
				c-74.753-38.779-117.993-114.343-119.102-193.038l-124.236-5.854c-1.468,20.903,0.349,20.888,2.628,41.504l-84.296,26.714
				l40.189,126.838l83.617-26.495c22.004,40.973,52.358,77.813,90.147,107.683l-41.702,80.387l118.048,61.238l41.819-80.619
				c44.894,13.116,91.104,16.716,136.013,11.605l26.045,82.195l126.837-40.194l-25.957-81.915
				C-5271.313,745.747-5234.824,715.567-5205.196,678.08z"/>
		</g>
		<path fill="#A3A3A3" d="M-5433.845,592.246l-145.909-47.327l-24.079-118.067l85.381-87.366l156.585,39.59
			c-4.712-22.21-9.796-16.549-23.34-36.492c-55.971-82.41-168.009-103.632-250.419-47.661c-8.933,6.066-17.103,12.83-24.58,20.11
			l0,0l-685.54-330.12c-44.65-20.065-97.112-0.136-117.177,44.515l-0.39,0.867c-20.065,44.649-0.135,97.112,44.515,117.177
			l704.227,294.638c-0.433,35.644,9.609,71.771,31.144,103.479c55.972,82.409,168.188,103.896,250.598,47.924
			C-5427.199,589.688-5438.901,596.567-5433.845,592.246z"/>
	</g>
	<polygon fill="#324758" points="-5545.128,531.92 -5437.755,561.52 -5370.368,491.995 -5392.611,397.762 -5499.984,368.162 
		-5562.854,438.932 	"/>
</g>
<g>
	<path fill="#273942" d="M-6226.558,2921.92c0,0-87.85,131.31,203.245,131.31c291.095,0,3704.574,8.438,3704.574,8.438
		s200.417,8.621,168.014-129.652L-6226.558,2921.92z"/>
	<path fill="#E6E6E8" d="M-2150.664,2932.231c13.827,48.674-19.744,73.103-69.717,73.103l-3936.959-8.439
		c-49.972,0-80.867-33.902-69.218-74.975l575.246-598.697c46.31-42.355,53.516-62.106,98.598-62.106h2717.779
		c21.692,0,58.781,16.841,102.129,62.106L-2150.664,2932.231z"/>
	<g>
		<path fill="#354F5C" d="M-5508.538,632.856c-45.083,0-81.121,36.91-81.121,83.252v1545.936c0,0,36.039-2.403,81.121-2.403h101.869
			l2460.583-1626.785H-5508.538z"/>
		<path fill="#273942" d="M-2895.437,632.856h-50.649l-2460.583,1626.785h2511.232c45.083,0,82.194,2.403,82.194,2.403V716.109
			C-2813.242,669.767-2850.354,632.856-2895.437,632.856z"/>
	</g>
	<path fill="#E2E2F7" d="M-4155.017,683.058c0,10.454-8.244,18.928-18.413,18.928h-36.827c-10.17,0-18.413-8.474-18.413-18.928l0,0
		c0-10.454,8.243-18.928,18.413-18.928h36.827C-4163.261,664.13-4155.017,672.604-4155.017,683.058L-4155.017,683.058z"/>
	<g>
		<polygon fill="#354F5C" points="-4750.894,2735.406 -4709.289,2632.098 -4907.749,2632.098 -4965.604,2735.406 		"/>
		<polygon fill="#354F5C" points="-4683.657,2598.755 -4650.504,2517.391 -4834.981,2517.391 -4881.191,2598.755 		"/>
		<polygon fill="#354F5C" points="-4640.767,2490.251 -4610.083,2413.851 -4781.732,2413.851 -4824.532,2490.251 		"/>
		<polygon fill="#354F5C" points="-4905.94,2490.251 -4862.254,2413.851 -5021.399,2413.851 -5076.319,2490.251 		"/>
		<polygon fill="#354F5C" points="-5056.022,2735.406 -4996.88,2632.098 -5180.882,2632.098 -5255.092,2735.406 		"/>
		<polygon fill="#354F5C" points="-4970.061,2598.755 -4922.835,2517.391 -5093.874,2517.391 -5153.205,2598.755 		"/>
		<polygon fill="#354F5C" points="-4407.554,2490.251 -4387.984,2413.851 -4533.489,2413.851 -4563.329,2490.251 		"/>
		<polygon fill="#354F5C" points="-5154.75,2490.251 -5098.975,2413.851 -5269.488,2413.851 -5337.299,2490.251 		"/>
		<polygon fill="#354F5C" points="-5263.938,2632.098 -5454.86,2632.098 -5552.634,2735.406 -5339.346,2735.406 		"/>
		<polygon fill="#354F5C" points="-5239.92,2600.469 -5175.832,2519.064 -5355.144,2519.064 -5428.365,2600.469 		"/>
		<polygon fill="#354F5C" points="-4426.514,2598.755 -4407.189,2517.391 -4579.836,2517.391 -4605.081,2598.755 		"/>
		<polygon fill="#354F5C" points="-5434.965,2518.978 -5595.141,2518.978 -5690.542,2594.305 -5508.72,2594.305 		"/>
		<polygon fill="#354F5C" points="-5548.597,2629.48 -5721.66,2629.48 -5840.384,2728.518 -5644.776,2728.518 		"/>
		<polygon fill="#354F5C" points="-5403.022,2485.105 -5338.011,2413.932 -5486.567,2413.932 -5561.708,2485.105 		"/>
		<polygon fill="#354F5C" points="-3076.712,2735.406 -2863.424,2735.406 -2961.585,2632.098 -3158.729,2632.098 		"/>
		<polygon fill="#354F5C" points="-3252.027,2517.391 -3186.394,2598.755 -2990.168,2598.755 -3068.771,2517.391 		"/>
		<polygon fill="#354F5C" points="-3084.295,2490.251 -3157.106,2413.851 -3327.619,2413.851 -3266.844,2490.251 		"/>
		<polygon fill="#354F5C" points="-3574.088,2598.755 -3625.136,2517.391 -3787.623,2517.391 -3748.075,2598.755 		"/>
		<polygon fill="#354F5C" points="-3492.147,2735.406 -3561.1,2632.098 -3735.902,2632.098 -3686.596,2735.406 		"/>
		<polygon fill="#354F5C" points="-3367.185,2490.251 -3417.355,2413.851 -3583.273,2413.851 -3529.044,2490.251 		"/>
		<polygon fill="#354F5C" points="-3276.424,2598.755 -3341.028,2517.391 -3514.511,2517.391 -3462.184,2598.755 		"/>
		<polygon fill="#354F5C" points="-3382.401,2735.406 -3180.488,2735.406 -3261.029,2632.098 -3447.659,2632.098 		"/>
		<polygon fill="#354F5C" points="-3633.182,2490.251 -3689.966,2413.851 -3851.386,2413.851 -3805.994,2490.251 		"/>
		<polygon fill="#354F5C" points="-2853.208,2632.098 -2753.482,2735.406 -2528.818,2735.406 -2645.549,2632.098 		"/>
		<polygon fill="#354F5C" points="-2793.725,2490.251 -2880.285,2413.851 -3059.892,2413.851 -2986.01,2490.251 		"/>
		<polygon fill="#354F5C" points="-2883.609,2598.755 -2676.918,2598.755 -2770.402,2517.391 -2963.431,2517.391 		"/>
		<polygon fill="#354F5C" points="-3885.453,2490.251 -3921.07,2413.851 -4091.584,2413.851 -4068.003,2490.251 		"/>
		<polygon fill="#354F5C" points="-3846.018,2598.755 -3884.446,2517.391 -4067.701,2517.391 -4042.244,2598.755 		"/>
		<polygon fill="#354F5C" points="-4151.534,2490.251 -4161.074,2413.851 -4318.667,2413.851 -4326.909,2490.251 		"/>
		<polygon fill="#354F5C" points="-4140.144,2598.755 -4154.326,2517.391 -4327.808,2517.391 -4339.696,2598.755 		"/>
		<polygon fill="#354F5C" points="-3835.502,2632.098 -4041.687,2632.098 -4227.305,2632.098 -4228.317,2632.098 
			-4420.096,2632.098 -4423.135,2632.098 -4625.126,2632.098 -4656.836,2735.406 -4435.433,2735.406 -4432.35,2735.406 
			-4224.593,2735.406 -4223.565,2735.406 -4022.68,2735.406 -3795.881,2735.406 		"/>
	</g>
	<g>
		<path fill="#273942" d="M-4661.452,2877.403l-12.432,7.546c-40.063,42.878-11.112,54.609,77.812,54.609h706.553
			c88.924,0,119.55-17.005,76.405-54.609l-12.312-7.546H-4661.452z"/>
		<path fill="#354F5C" d="M-3910.268,2804.734c-24.19-16.938-40.713-26.022-89.234-26.022l-489.836-0.774
			c-48.518,0-61.805,9.859-86.264,26.797l-85.789,72.669h836.06L-3910.268,2804.734z"/>
	</g>
	<g>
		<path fill="#6FADBC" d="M-2980.907,736.235h-2432.557c-45.083,0-81.723,37.243-81.723,82.658v1324.396
			c0,45.415,36.641,82.603,81.723,82.603h10.628l2424.297-1489.108C-2979.328,736.761-2980.112,736.235-2980.907,736.235z"/>
		<path fill="#589EA5" d="M-2978.822,737.086l-2424.014,1488.806h2421.929c45.083,0,81.064-37.188,81.064-82.603V818.894
			C-2899.843,774.279-2934.838,738.346-2978.822,737.086z"/>
	</g>
</g>
<g>
	<rect x="-5395.104" y="803.685" fill="#FEC524" width="2401.733" height="1338.116"/>
	<polygon points="-5209.254,803.685 -5395.105,1001.92 -5395.105,803.685 	"/>
	<polygon points="-4969.558,803.685 -5395.105,1255.903 -5395.105,1491.797 -4770.298,803.685 	"/>
	<polygon points="-4496.414,803.685 -5395.105,1776.04 -5395.105,2011.934 -4297.154,803.685 	"/>
	<polygon points="-4023.27,803.685 -5264.556,2146.25 -5043.35,2146.25 -3824.01,803.685 	"/>
	<polygon points="-3548.762,803.685 -4791.036,2141.6 -4566.374,2146.358 -3349.502,803.685 	"/>
	<polygon points="-3061.982,803.685 -4297.154,2141.801 -4075.572,2141.801 -2993.372,947.953 -2993.372,803.685 	"/>
	<polygon points="-2991.078,1234.04 -3824.768,2141.801 -3611.072,2141.801 -2993.806,1462.396 	"/>
	<polygon points="-2993.372,1698.233 -3407.706,2146.358 -3195.373,2146.02 -2993.372,1919.399 	"/>
	<rect x="-5224.822" y="941.002" fill="#E5E7E9" width="2063.461" height="1036.363"/>
</g>
<g>
	<g>
		<path fill="#1C92A5" d="M1057.025,457.805c1.184,5.597,2.806,11.423,4.774,16.838l-22.364,11.469l12.805,25.071l22.181-11.328
			c4.127,6.289,8.811,12.16,13.975,17.548l-15.682,19.151l21.783,17.836l15.592-19.026c4.925,3.208,10.108,6.066,15.471,8.546
			l-7.518,23.332l26.862,8.666l7.683-23.238c7.326,1.496,14.617,2.355,22.877,2.411l2.267,22.782l27.663-2.752l-2.267-22.786
			c5.591-1.242,11.372-2.932,16.847-4.986l10.231,20.335l25.07-12.805l-10.416-20.393c6.282-4.215,12.137-8.99,17.499-14.247
			l17.814,14.59l17.837-21.779l-17.937-14.691c3.14-4.941,5.931-10.117,8.344-15.486l22.108,7.155l8.673-26.792l-22.292-7.242
			c1.393-7.225,2.143-14.639,2.188-22.262l25.317-2.519l-2.815-28.292l-25.541,2.541c-1.272-5.588-2.945-11.081-4.985-16.438
			l22.666-11.382l-12.805-25.071l-22.846,11.668c-4.136-6.097-8.801-11.786-13.923-17.008l16.374-19.991l-21.776-17.837
			l-16.472,20.116c-4.82-3.061-9.852-5.791-15.079-8.161l8.039-24.768l-26.744-8.678l-7.977,24.849
			c-7.031-1.38-13.839-2.194-21.466-2.278l-2.758-27.713l-27.663,2.753l2.757,27.708c-6.223,1.278-11.445,2.857-16.744,4.812
			l-12.933-24.659l-25.07,12.804l12.578,24.627c-6.103,4.048-11.808,8.623-17.055,13.653l-21.327-17.468l-17.837,21.776
			l21.204,17.361c-3.129,4.806-5.927,9.825-8.363,15.047l-25.998-8.442l-8.678,26.735l25.783,8.261
			c-1.481,7.133-2.306,14.758-2.524,21.764l-25.189,2.507l2.814,28.292L1057.025,457.805z M1081.401,442.153
			c-5.287-53.129,33.498-100.485,86.628-105.771c53.13-5.287,100.485,33.498,105.772,86.628
			c5.286,53.13-33.499,100.486-86.629,105.772C1134.044,534.068,1086.688,495.284,1081.401,442.153z"/>
	</g>
	<g>
		<path fill="none" d="M197.93,145.474c-23.571-2.757-47.149,9.992-57.099,32.882c-12.169,27.999,0.663,60.562,28.661,72.731
			c6.417,2.789,13.072,4.261,19.668,4.542"/>
		<path fill="#707B8F" d="M342.046,240.862l40.552,3.123l4.566-59.309l-40.421-3.113c-2.312-20.499-8.716-40.676-19.298-59.233
			l29.589-25.357L318.345,51.83l-29.676,25.432c-16.28-12.844-34.665-22.021-53.962-27.436l3.02-39.772l-28.924-2.228
			l-10.959,137.64c5.284,0.617,10.566,2.003,15.676,4.224c27.999,12.17,40.809,44.731,28.64,72.729
			c-9.381,21.583-30.644,34.168-53.085,33.202l-10.727,134.726l29.918,2.304l3.057-39.416c20.095-2.421,39.867-8.776,58.069-19.155
			l26.353,30.742l45.146-38.688l-26.42-30.83C327.421,278.889,336.648,260.335,342.046,240.862z"/>
		<path fill="#8992A0" d="M169.449,251.083c-27.998-12.17-40.852-44.734-28.683-72.732c9.948-22.89,33.593-35.634,57.077-32.884
			l10.959-137.64l-30.385-2.34l-3.016,39.452c-20.473,2.242-40.625,8.56-59.185,19.044L90.791,34.308L45.648,72.997l25.359,29.588
			c-13.298,16.717-22.716,35.677-28.138,55.58l-38.304-2.949L0,214.524l38.434,2.959c2.354,20.069,8.63,39.817,18.914,58.022
			l-30.83,26.421l38.689,45.145l30.741-26.346c16.853,13.404,35.984,22.862,56.062,28.264l-3.054,39.096l29.391,2.263
			l10.727-134.726C182.577,255.349,175.865,253.872,169.449,251.083z"/>
	</g>
</g>
<g>
	<g>
		<g>
			<path fill="#1C92A5" d="M-4403.242,72.537l429.612-429.612c64.938,22.535,139.916,7.874,191.782-43.993
				c38.571-38.571,56.562-89.924,53.987-140.424l-100.625,89.051l-127.399-33.142l-29.627-148.548l99.595-81.094
				c-55.891-8.151-114.793,9.274-157.803,52.284c-51.68,51.68-66.416,126.305-44.229,191.081l-430.078,430.078
				c-64.776-22.188-139.4-7.451-191.081,44.229c-38.818,38.818-56.787,90.583-53.93,141.395l101.501-82.645l126.153,26.893
				l29.627,148.548l-91.449,80.93c53.514,5.498,108.965-12.245,149.969-53.25C-4395.369,212.453-4380.708,137.474-4403.242,72.537z"
				/>
		</g>
		<path fill="#18818C" d="M-4518.106-41.702c0,0,80.317,48.935,114.754,114.349l30.742-30.742c0,0-20.051-59.819-114.552-114.551
			L-4518.106-41.702z"/>
		<path fill="#18818C" d="M-4088.708-471.1c0,0,48.935,80.317,114.349,114.754l-30.742,30.742c0,0-59.819-20.051-114.551-114.551
			L-4088.708-471.1z"/>
		<path fill="#18818C" d="M-4352.432-50.398c-11.661,11.66-30.565,11.66-42.226,0l-0.201-0.201c-11.66-11.66-11.66-30.565,0-42.226
			l255.466-255.466c11.66-11.661,30.566-11.661,42.227,0l0.2,0.2c11.66,11.661,11.66,30.565,0,42.226L-4352.432-50.398z"/>
	</g>
	<g>
		<polygon fill="#A3A3A3" points="-4031.929,-100.998 -4074.026,-58.901 -4572.061,-556.935 -4607.451,-557.714 -4642.477,-644.365 
			-4618.207,-668.635 -4528.372,-634.606 -4529.579,-598.648 		"/>
		<g>
			<path fill="#F9A52B" d="M-4164.962-58.476l25.456,25.456l-0.096,0.095c0,0,48.065-42.997,46.629,0.344l0.129-0.111
				c-8.646,18.958-7.983,38.35,3.542,49.876l319.612,319.612c16.793,16.792,50.282,10.529,74.801-13.989l19.199-19.199
				l-425.678-425.678L-4164.962-58.476z"/>
			<path fill="#EA9524" d="M-4005.152-167.373l0.896-0.896l-25.456-25.456l-71.655,71.655l425.678,425.678l27.261-27.26
				c24.519-24.519,30.782-58.008,13.989-74.801l-319.612-319.612c-11.878-11.878-32.108-12.207-51.609-2.714
				C-4047.475-120.049-4005.152-167.373-4005.152-167.373z"/>
		</g>
		<path fill="#EA9524" d="M-3746.566,311.553c2.539,2.539,1.99,7.203-1.226,10.418l0,0c-3.216,3.215-7.88,3.764-10.418,1.226
			L-4080.65,0.756c-2.539-2.539-1.99-7.203,1.226-10.418l0,0c3.216-3.215,7.88-3.764,10.418-1.226L-3746.566,311.553z"/>
		<path fill="#EA9524" d="M-3721.486,286.474c2.538,2.538,1.989,7.203-1.227,10.418l0,0c-3.215,3.216-7.879,3.765-10.418,1.226
			l-322.44-322.441c-2.538-2.538-1.989-7.203,1.226-10.418l0,0c3.215-3.215,7.88-3.764,10.418-1.226L-3721.486,286.474z"/>
		<path fill="#D18619" d="M-3695.512,260.499c2.539,2.539,1.99,7.203-1.226,10.418l0,0c-3.216,3.215-7.88,3.764-10.418,1.226
			l-322.44-322.44c-2.539-2.539-1.99-7.203,1.226-10.418l0,0c3.215-3.215,7.88-3.764,10.418-1.226L-3695.512,260.499z"/>
		<path fill="#D18619" d="M-3670.433,235.419c2.539,2.539,1.99,7.203-1.226,10.418l0,0c-3.215,3.215-7.88,3.764-10.418,1.226
			l-322.441-322.441c-2.538-2.539-1.989-7.203,1.227-10.418l0,0c3.215-3.215,7.88-3.764,10.418-1.226L-3670.433,235.419z"/>
		<path fill="#D18619" d="M-3646.249,211.235c2.539,2.539,1.99,7.203-1.226,10.418l0,0c-3.215,3.215-7.88,3.764-10.418,1.226
			l-322.44-322.44c-2.538-2.539-1.989-7.203,1.226-10.418l0,0c3.215-3.215,7.88-3.764,10.418-1.226L-3646.249,211.235z"/>
	</g>
</g>
<g>
	<path fill="#354F5C" d="M-4724.368,1067.014v186.489c0,24.296,5.19,42.158,15.573,53.589c10.38,11.435,23.359,17.148,38.932,17.148
		s28.549-5.714,38.932-17.148c10.379-11.431,15.573-29.293,15.573-53.589v-186.489h46.718v203.638
		c0,32.87-9.604,60.736-28.81,83.599c-19.208,22.865-43.346,34.297-72.413,34.297c-29.07,0-53.208-11.432-72.414-34.297
		c-19.208-22.862-28.81-50.729-28.81-83.599v-203.638H-4724.368z"/>
	<path fill="#354F5C" d="M-4518.185,1388.547v-321.533h15.573l146.384,201.494v-201.494h46.719v321.533h-17.13l-144.827-199.351
		v199.351H-4518.185z"/>
	<path fill="#354F5C" d="M-4261.077,1336.547V1014.8h90.011c72.67,0,109.01,53.662,109.01,160.98
		c0,107.178-36.34,160.767-109.01,160.767H-4261.077z M-4171.065,1272.455c41.422-0.142,62.186-32.368,62.291-96.675
		c-0.105-64.307-20.869-96.46-62.291-96.46h-43.293v193.135H-4171.065z"/>
	<path fill="#354F5C" d="M-4012.535,1388.547v-321.318l171.613-0.215v60.02h-124.895v68.594h93.593v59.806h-93.593v73.095h124.583
		v60.02H-4012.535z"/>
	<path fill="#354F5C" d="M-3653.27,1248.358l58.242,140.188h-53.57l-55.906-132.9h-42.67v132.9h-46.719v-321.533h101.847
		c54.505,0,81.757,30.867,81.757,92.602C-3610.289,1206.061-3624.615,1235.642-3653.27,1248.358z M-3747.174,1195.627h65.406
		c18.789-0.429,28.444-12.218,28.965-35.368c-0.521-21.147-10.02-32.153-28.498-33.011h-65.873V1195.627z"/>
</g>
<g>
	<g>
		<path fill="#D18619" d="M-2898.953-1053.714c-10.039,7.661-12.594,20.368-6.192,28.755l475.411,623.016
			c6.4,8.387,19.396,9.364,29.435,1.703l20.378-15.55l-498.654-653.474L-2898.953-1053.714z"/>
		<path fill="#C17A1B" d="M-2858.371-1084.682l-20.205,15.418l498.654,653.474l20.204-15.418
			c10.039-7.66,12.702-20.585,6.302-28.973l-475.412-623.015C-2835.228-1091.583-2848.332-1092.343-2858.371-1084.682z"/>
	</g>
	<g>
		<path fill="#354F5C" d="M-2582.961-1131.892c-104.89,70.248-199.789,25.983-199.789,25.983l-78.233,59.699l107.375,140.711
			l217.029-165.611L-2582.961-1131.892z"/>
		
			<rect x="-2981.654" y="-1018.338" transform="matrix(-0.6066 -0.795 0.795 -0.6066 -3924.5508 -3762.5779)" fill="#405B66" width="177" height="216"/>
	</g>
</g>
<g>
	<g>
		<path fill="#354F5C" d="M-2064.006,2234.807c-0.104,3.448-0.312,6.934-0.619,10.361l-9.154-0.821
			c0.291-3.245,0.488-6.548,0.586-9.813L-2064.006,2234.807z M-2065.109,2249.861c-0.4,3.423-0.91,6.878-1.516,10.27l-9.047-1.612
			c0.572-3.212,1.055-6.484,1.434-9.726L-2065.109,2249.861z M-2067.519,2264.782c-0.698,3.38-1.508,6.784-2.407,10.117
			l-8.873-2.395c0.852-3.157,1.618-6.38,2.279-9.581L-2067.519,2264.782z M-2071.22,2279.45c-0.989,3.306-2.091,6.624-3.276,9.864
			l-8.632-3.155c1.122-3.069,2.165-6.213,3.103-9.344L-2071.22,2279.45z M-2076.178,2293.732c-1.271,3.205-2.656,6.414-4.116,9.539
			l-8.327-3.89c1.383-2.961,2.695-6.002,3.898-9.038L-2076.178,2293.732z M-2082.35,2307.524c-1.543,3.083-3.197,6.159-4.921,9.146
			l-7.962-4.593c1.633-2.829,3.201-5.745,4.662-8.665L-2082.35,2307.524z M-2089.684,2320.728c-1.801,2.936-3.714,5.858-5.686,8.686
			l-7.539-5.259c1.869-2.68,3.683-5.449,5.389-8.231L-2089.684,2320.728z M-2098.121,2333.246c-2.045,2.77-4.2,5.516-6.406,8.163
			l-7.061-5.885c2.092-2.509,4.135-5.112,6.072-7.737L-2098.121,2333.246z M-2107.596,2344.99c-2.276,2.586-4.658,5.138-7.082,7.583
			l-6.529-6.469c2.297-2.317,4.555-4.735,6.711-7.186L-2107.596,2344.99z M-2118.039,2355.877c-2.488,2.381-5.081,4.717-7.703,6.944
			l-5.949-7.007c2.484-2.109,4.941-4.323,7.299-6.58L-2118.039,2355.877z M-2129.373,2365.822c-2.686,2.158-5.468,4.262-8.271,6.253
			l-5.322-7.492c2.654-1.887,5.291-3.88,7.834-5.925L-2129.373,2365.822z M-2141.518,2374.75c-2.859,1.918-5.812,3.773-8.775,5.515
			l-4.656-7.925c2.807-1.649,5.604-3.407,8.312-5.223L-2141.518,2374.75z M-2154.381,2382.592c-3.015,1.664-6.121,3.259-9.234,4.741
			l-3.951-8.299c2.947-1.403,5.891-2.914,8.746-4.489L-2154.381,2382.592z M-2167.903,2389.304c-3.148,1.396-6.382,2.714-9.611,3.92
			l-3.216-8.61c3.059-1.143,6.121-2.392,9.104-3.713L-2167.903,2389.304z M-2181.957,2394.814c-3.258,1.116-6.594,2.149-9.915,3.07
			l-2.457-8.855c3.146-0.873,6.306-1.853,9.391-2.91L-2181.957,2394.814z M-2196.435,2399.086c-3.338,0.829-6.749,1.571-10.14,2.204
			l-1.687-9.035c3.212-0.6,6.445-1.303,9.608-2.089L-2196.435,2399.086z M-2211.222,2402.095c-1.942,0.31-3.923,0.591-5.885,0.837
			c-1.46,0.183-2.942,0.35-4.404,0.496l-0.915-9.146c1.387-0.139,2.791-0.297,4.177-0.471c1.86-0.233,3.739-0.5,5.581-0.794
			L-2211.222,2402.095z M-2226.881,2394.668l0.672,9.167c-3.442,0.252-6.93,0.404-10.367,0.453l-0.129-9.19
			C-2233.449,2395.052-2230.144,2394.907-2226.881,2394.668z M-2241.176,2395.101l-0.117,9.19
			c-3.449-0.044-6.938-0.192-10.369-0.441l0.664-9.166C-2247.748,2394.919-2244.443,2395.059-2241.176,2395.101z M-2255.451,2394.3
			l-0.913,9.146c-3.429-0.342-6.892-0.792-10.294-1.338l1.457-9.076C-2261.979,2393.549-2258.699,2393.976-2255.451,2394.3z
			 M-2269.604,2392.264l-1.703,9.031c-3.393-0.64-6.811-1.391-10.158-2.232l2.242-8.914
			C-2276.054,2390.945-2272.816,2391.657-2269.604,2392.264z M-2283.555,2388.996l-2.483,8.85c-3.322-0.932-6.659-1.977-9.919-3.105
			l3.006-8.686C-2289.863,2387.124-2286.701,2388.113-2283.555,2388.996z M-2297.164,2384.531l-3.241,8.602
			c-3.226-1.217-6.458-2.546-9.608-3.952l3.747-8.394C-2303.283,2382.12-2300.22,2383.38-2297.164,2384.531z M-2310.329,2378.907
			l-3.973,8.289c-3.109-1.49-6.214-3.094-9.228-4.765l4.455-8.038C-2316.217,2375.977-2313.275,2377.496-2310.329,2378.907z
			 M-2322.957,2372.171l-4.672,7.916c-2.967-1.751-5.92-3.614-8.781-5.538l5.131-7.626
			C-2328.569,2368.746-2325.769,2370.512-2322.957,2372.171z M-2334.957,2364.377l-5.332,7.486
			c-2.805-1.998-5.588-4.107-8.271-6.269l5.765-7.159C-2340.252,2360.484-2337.615,2362.483-2334.957,2364.377z M-2346.238,2355.586
			l-5.955,7.002c-2.624-2.232-5.215-4.571-7.701-6.952l6.356-6.639C-2351.182,2351.254-2348.726,2353.471-2346.238,2355.586z
			 M-2356.723,2345.865l-6.533,6.465c-2.422-2.449-4.803-5.001-7.074-7.586l6.904-6.067
			C-2361.273,2341.126-2359.018,2343.544-2356.723,2345.865z M-2366.328,2335.284l-7.064,5.88c-2.201-2.646-4.354-5.393-6.394-8.163
			l7.4-5.45C-2370.452,2330.176-2368.414,2332.777-2366.328,2335.284z M-2374.982,2323.924l-7.545,5.249
			c-1.964-2.823-3.869-5.743-5.664-8.681l7.844-4.791C-2378.648,2318.483-2376.842,2321.25-2374.982,2323.924z M-2382.617,2311.867
			l-7.971,4.578c-1.712-2.98-3.357-6.055-4.89-9.135l8.229-4.094C-2385.797,2306.135-2384.238,2309.045-2382.617,2311.867z
			 M-2389.184,2299.188l-8.338,3.868c-1.451-3.128-2.826-6.339-4.086-9.543l8.555-3.362
			C-2391.859,2293.186-2390.559,2296.227-2389.184,2299.188z M-2402.912,2205.836c-0.461,3.23-0.831,6.517-1.1,9.77l-9.16-0.756
			c0.283-3.434,0.674-6.904,1.162-10.314L-2402.912,2205.836z M-2394.632,2285.969l-8.642,3.13
			c-1.172-3.235-2.263-6.553-3.242-9.859l8.813-2.609C-2396.775,2279.762-2395.742,2282.904-2394.632,2285.969z M-2404.318,2220.064
			c-0.18,3.256-0.264,6.562-0.248,9.828l-9.191,0.04c-0.016-3.447,0.073-6.938,0.263-10.374L-2404.318,2220.064z
			 M-2398.912,2272.327l-8.881,2.37c-0.888-3.325-1.688-6.724-2.377-10.101l9.004-1.841
			C-2400.512,2265.957-2399.754,2269.177-2398.912,2272.327z M-2404.487,2234.363c0.101,3.254,0.302,6.557,0.596,9.816l-9.153,0.826
			c-0.311-3.438-0.521-6.923-0.629-10.356L-2404.487,2234.363z M-2402.002,2258.363l-9.051,1.6c-0.6-3.387-1.107-6.846-1.507-10.267
			l9.129-1.068C-2403.051,2251.876-2402.569,2255.152-2402.002,2258.363z"/>
		<path fill="#354F5C" d="M-2076.08,1390.191c0.368,2.94,0.651,5.926,0.842,8.873l-9.172,0.592
			c-0.209-3.235-0.539-6.513-0.974-9.733l9.108-1.233C-2076.209,1389.188-2076.143,1389.689-2076.08,1390.191z M-2076.987,1384.006
			l-9.063,1.525c-0.541-3.208-1.201-6.431-1.964-9.578l8.933-2.164C-2078.269,1377.146-2077.564,1380.584-2076.987,1384.006z
			 M-2080.274,1369.197l-8.857,2.454c-0.867-3.131-1.858-6.267-2.946-9.32l8.659-3.083
			C-2082.258,1362.509-2081.199,1365.855-2080.274,1369.197z M-2085.082,1354.806l-8.554,3.364c-1.188-3.02-2.501-6.033-3.903-8.96
			l8.289-3.972C-2087.754,1348.362-2086.352,1351.581-2085.082,1354.806z M-2091.371,1340.994l-8.154,4.24
			c-1.495-2.873-3.115-5.73-4.814-8.494l7.829-4.815C-2094.696,1334.875-2092.967,1337.926-2091.371,1340.994z M-2099.057,1327.935
			l-7.667,5.069c-1.786-2.703-3.696-5.378-5.675-7.951l7.283-5.604C-2103.002,1322.194-2100.963,1325.05-2099.057,1327.935z
			 M-2108.062,1315.742l-7.1,5.838c-2.06-2.505-4.238-4.969-6.473-7.322l6.664-6.329
			C-2112.586,1310.439-2110.262,1313.068-2108.062,1315.742z M-2118.289,1304.546l-6.457,6.542
			c-2.311-2.281-4.732-4.508-7.198-6.617l5.976-6.983C-2123.34,1299.737-2120.754,1302.112-2118.289,1304.546z M-2129.621,1294.463
			l-5.746,7.174c-2.534-2.03-5.174-3.995-7.846-5.84l5.223-7.563C-2135.141,1290.201-2132.324,1292.298-2129.621,1294.463z
			 M-2141.938,1285.601l-4.976,7.729c-2.731-1.759-5.561-3.44-8.408-4.998l4.412-8.063
			C-2147.872,1281.93-2144.854,1283.724-2141.938,1285.601z M-2155.111,1278.057l-4.148,8.201c-2.898-1.466-5.887-2.845-8.882-4.1
			l3.552-8.478C-2161.395,1275.02-2158.205,1276.491-2155.111,1278.057z M-2169.002,1271.917l-3.273,8.588
			c-3.037-1.157-6.153-2.218-9.262-3.153l2.647-8.801C-2175.571,1269.548-2172.244,1270.681-2169.002,1271.917z M-2183.467,1267.255
			l-2.357,8.884c-3.143-0.834-6.354-1.562-9.543-2.168l1.711-9.03C-2190.25,1265.586-2186.822,1266.365-2183.467,1267.255z
			 M-2198.333,1264.135l-1.413,9.082c-3.203-0.499-6.469-0.888-9.706-1.155l0.757-9.159
			C-2205.239,1263.188-2201.753,1263.602-2198.333,1264.135z M-2213.429,1262.588l-0.458,9.181
			c-3.238-0.161-6.526-0.208-9.773-0.137l-0.201-9.188C-2220.395,1262.367-2216.885,1262.416-2213.429,1262.588z
			 M-2228.601,1262.623l0.498,9.178c-3.236,0.176-6.515,0.469-9.741,0.873c-1.865,0.234-3.751,0.51-5.603,0.818l-1.513-9.065
			c1.975-0.33,3.984-0.623,5.973-0.872C-2235.546,1263.123-2232.052,1262.811-2228.601,1262.623z M-2247.819,1274.294
			c-3.19,0.639-6.392,1.398-9.513,2.258l-2.44-8.861c3.331-0.917,6.745-1.728,10.148-2.409L-2247.819,1274.294z M-2261.597,1277.802
			c-3.099,0.964-6.202,2.052-9.224,3.235l-3.352-8.559c3.227-1.264,6.539-2.426,9.846-3.453L-2261.597,1277.802z M-2274.93,1282.725
			c-2.979,1.28-5.951,2.688-8.834,4.182l-4.229-8.16c3.078-1.596,6.251-3.098,9.433-4.465L-2274.93,1282.725z M-2287.675,1289.016
			c-2.829,1.586-5.636,3.295-8.341,5.078l-5.059-7.674c2.888-1.904,5.884-3.729,8.904-5.422L-2287.675,1289.016z
			 M-2299.679,1296.595c-2.646,1.869-5.26,3.861-7.771,5.921l-5.828-7.107c2.68-2.198,5.471-4.324,8.294-6.319L-2299.679,1296.595z
			 M-2310.836,1305.385c-2.439,2.137-4.834,4.391-7.119,6.698l-6.533-6.466c2.438-2.462,4.994-4.866,7.598-7.146L-2310.836,1305.385
			z M-2321.028,1315.291c-2.209,2.381-4.359,4.871-6.392,7.4l-7.166-5.757c2.168-2.698,4.462-5.354,6.818-7.895L-2321.028,1315.291z
			 M-2330.148,1326.201c-1.951,2.598-3.834,5.297-5.594,8.023l-7.722-4.986c1.878-2.908,3.886-5.788,5.968-8.559L-2330.148,1326.201
			z M-2338.094,1337.999c-1.675,2.787-3.269,5.667-4.736,8.56l-8.196-4.159c1.566-3.087,3.267-6.16,5.053-9.133L-2338.094,1337.999z
			 M-2344.779,1350.561c-1.377,2.943-2.662,5.974-3.822,9.005l-8.585-3.286c1.239-3.234,2.611-6.469,4.079-9.611L-2344.779,1350.561
			z M-2350.125,1363.75c-1.062,3.072-2.025,6.22-2.862,9.356l-8.88-2.37c0.893-3.35,1.922-6.71,3.055-9.989L-2350.125,1363.75z
			 M-2354.066,1377.43c-0.732,3.162-1.36,6.39-1.864,9.595l-9.079-1.427c0.537-3.423,1.207-6.87,1.99-10.245L-2354.066,1377.43z
			 M-2356.549,1391.425c-0.398,3.219-0.685,6.495-0.851,9.737l-9.179-0.471c0.178-3.461,0.482-6.959,0.908-10.396
			L-2356.549,1391.425z M-2357.555,1405.604c-0.061,3.24-0.004,6.528,0.167,9.774l-9.179,0.484
			c-0.182-3.463-0.242-6.973-0.178-10.43L-2357.555,1405.604z"/>
		<path fill="#354F5C" d="M-2357.75,1413.551l-0.582,10.094l-9.176-0.529l0.582-10.094L-2357.75,1413.551z M-2358.596,1428.232
			l-0.583,10.093l-9.176-0.529l0.581-10.093L-2358.596,1428.232z M-2359.443,1442.914l-0.582,10.094l-9.177-0.53l0.582-10.093
			L-2359.443,1442.914z M-2360.291,1457.596l-0.582,10.093l-9.176-0.529l0.582-10.094L-2360.291,1457.596z M-2361.138,1472.277
			l-0.583,10.094l-9.176-0.53l0.582-10.094L-2361.138,1472.277z M-2361.984,1486.959l-0.583,10.093l-9.177-0.529l0.583-10.094
			L-2361.984,1486.959z M-2362.832,1501.64l-0.582,10.095l-9.177-0.53l0.583-10.094L-2362.832,1501.64z M-2363.68,1516.322
			l-0.582,10.093l-9.176-0.529l0.582-10.094L-2363.68,1516.322z M-2364.526,1531.003l-0.583,10.094l-9.176-0.529l0.583-10.094
			L-2364.526,1531.003z M-2365.373,1545.685l-0.583,10.094l-9.176-0.529l0.583-10.094L-2365.373,1545.685z M-2366.221,1560.366
			l-0.582,10.094l-9.176-0.53l0.582-10.093L-2366.221,1560.366z M-2367.067,1575.048l-0.583,10.093l-9.176-0.529l0.582-10.093
			L-2367.067,1575.048z M-2367.915,1589.729l-0.583,10.094l-9.176-0.53l0.582-10.093L-2367.915,1589.729z M-2368.762,1604.411
			l-0.583,10.093l-9.176-0.529l0.582-10.094L-2368.762,1604.411z M-2369.609,1619.093l-0.582,10.093l-9.176-0.529l0.582-10.093
			L-2369.609,1619.093z M-2370.457,1633.774l-0.582,10.093l-9.176-0.529l0.582-10.094L-2370.457,1633.774z M-2371.304,1648.455
			l-0.583,10.094l-9.176-0.529l0.582-10.094L-2371.304,1648.455z M-2372.15,1663.137l-0.583,10.094l-9.177-0.529l0.584-10.094
			L-2372.15,1663.137z M-2372.998,1677.818l-0.582,10.094l-9.177-0.529l0.583-10.094L-2372.998,1677.818z M-2373.846,1692.5
			l-0.582,10.094l-9.176-0.529l0.582-10.094L-2373.846,1692.5z M-2374.692,1707.182l-0.583,10.094l-9.176-0.529l0.583-10.094
			L-2374.692,1707.182z M-2375.539,1721.863l-0.583,10.094l-9.176-0.529l0.583-10.094L-2375.539,1721.863z M-2376.387,1736.545
			l-0.582,10.094l-9.176-0.529l0.582-10.094L-2376.387,1736.545z M-2377.233,1751.227l-0.583,10.094l-9.176-0.529l0.582-10.094
			L-2377.233,1751.227z M-2378.081,1765.908l-0.583,10.094l-9.176-0.529l0.582-10.094L-2378.081,1765.908z M-2378.928,1780.59
			l-0.583,10.094l-9.176-0.529l0.582-10.094L-2378.928,1780.59z M-2379.775,1795.271l-0.582,10.094l-9.176-0.53l0.582-10.093
			L-2379.775,1795.271z M-2380.623,1809.953l-0.582,10.094l-9.176-0.53l0.582-10.093L-2380.623,1809.953z M-2381.47,1824.635
			l-0.582,10.094l-9.177-0.529l0.582-10.094L-2381.47,1824.635z M-2382.316,1839.316l-0.582,10.093l-9.178-0.529l0.583-10.094
			L-2382.316,1839.316z M-2383.164,1853.998l-0.582,10.093l-9.176-0.529l0.582-10.094L-2383.164,1853.998z M-2384.012,1868.68
			l-0.582,10.093l-9.176-0.529l0.582-10.094L-2384.012,1868.68z M-2384.858,1883.36l-0.583,10.094l-9.176-0.529l0.583-10.094
			L-2384.858,1883.36z M-2385.705,1898.042l-0.583,10.094l-9.176-0.529l0.583-10.094L-2385.705,1898.042z M-2386.553,1912.724
			l-0.582,10.094l-9.176-0.529l0.582-10.094L-2386.553,1912.724z M-2387.399,1927.405l-0.583,10.094l-9.176-0.53l0.582-10.093
			L-2387.399,1927.405z M-2388.247,1942.087l-0.583,10.094l-9.176-0.53l0.582-10.094L-2388.247,1942.087z M-2389.094,1956.769
			l-0.583,10.094l-9.176-0.53l0.582-10.093L-2389.094,1956.769z M-2389.941,1971.449l-0.582,10.094l-9.176-0.529l0.582-10.094
			L-2389.941,1971.449z M-2390.789,1986.131l-0.582,10.094l-9.176-0.529l0.582-10.094L-2390.789,1986.131z M-2391.636,2000.812
			l-0.583,10.094l-9.176-0.529l0.582-10.094L-2391.636,2000.812z M-2392.482,2015.494l-0.583,10.094l-9.177-0.529l0.583-10.094
			L-2392.482,2015.494z M-2393.33,2030.176l-0.582,10.094l-9.177-0.529l0.583-10.094L-2393.33,2030.176z M-2394.178,2044.857
			l-0.582,10.094l-9.176-0.529l0.582-10.094L-2394.178,2044.857z M-2395.024,2059.539l-0.583,10.094l-9.176-0.529l0.583-10.094
			L-2395.024,2059.539z M-2395.871,2074.221l-0.583,10.094l-9.176-0.53l0.583-10.093L-2395.871,2074.221z M-2396.719,2088.902
			l-0.582,10.094l-9.176-0.53l0.582-10.093L-2396.719,2088.902z M-2397.565,2103.584l-0.583,10.094l-9.176-0.53l0.582-10.093
			L-2397.565,2103.584z M-2398.412,2118.266l-0.583,10.093l-9.177-0.529l0.584-10.093L-2398.412,2118.266z M-2399.26,2132.947
			l-0.582,10.093l-9.176-0.529l0.582-10.094L-2399.26,2132.947z M-2400.107,2147.628l-0.582,10.094l-9.176-0.529l0.582-10.094
			L-2400.107,2147.628z M-2400.954,2162.31l-0.583,10.094l-9.176-0.529l0.582-10.094L-2400.954,2162.31z M-2401.801,2176.991
			l-0.583,10.094l-9.177-0.529l0.583-10.094L-2401.801,2176.991z M-2402.648,2191.673l-0.582,10.094l-9.177-0.53l0.583-10.093
			L-2402.648,2191.673z"/>
		<path fill="#354F5C" d="M-2075.342,1396.312l0.098,6.484l-9.191,0.137l-0.096-6.484L-2075.342,1396.312z M-2075.177,1407.392
			l0.15,10.109l-9.19,0.138l-0.15-10.109L-2075.177,1407.392z M-2074.959,1422.096l0.151,10.109l-9.19,0.137l-0.15-10.108
			L-2074.959,1422.096z M-2074.739,1436.801l0.149,10.109l-9.189,0.136l-0.15-10.108L-2074.739,1436.801z M-2074.521,1451.506
			l0.15,10.108l-9.19,0.136l-0.15-10.108L-2074.521,1451.506z M-2074.303,1466.209l0.15,10.109l-9.189,0.137l-0.15-10.109
			L-2074.303,1466.209z M-2074.084,1480.913l0.15,10.11l-9.189,0.136l-0.15-10.109L-2074.084,1480.913z M-2073.865,1495.618
			l0.15,10.108l-9.19,0.137l-0.149-10.108L-2073.865,1495.618z M-2073.646,1510.322l0.15,10.109l-9.19,0.136l-0.15-10.108
			L-2073.646,1510.322z M-2073.428,1525.027l0.15,10.108l-9.19,0.136l-0.15-10.108L-2073.428,1525.027z M-2073.209,1539.73
			l0.15,10.109l-9.191,0.137l-0.149-10.109L-2073.209,1539.73z M-2072.99,1554.436l0.15,10.109l-9.191,0.136l-0.149-10.108
			L-2072.99,1554.436z M-2072.771,1569.139l0.15,10.109l-9.191,0.137l-0.15-10.108L-2072.771,1569.139z M-2072.554,1583.844
			l0.15,10.108l-9.19,0.138l-0.15-10.109L-2072.554,1583.844z M-2072.334,1598.548l0.15,10.109l-9.191,0.136l-0.15-10.108
			L-2072.334,1598.548z M-2072.115,1613.252l0.149,10.109l-9.19,0.137l-0.15-10.109L-2072.115,1613.252z M-2071.897,1627.956
			l0.15,10.11l-9.19,0.136l-0.15-10.109L-2071.897,1627.956z M-2071.679,1642.661l0.149,10.108l-9.189,0.137l-0.15-10.109
			L-2071.679,1642.661z M-2071.461,1657.365l0.15,10.109l-9.189,0.137l-0.15-10.109L-2071.461,1657.365z M-2071.242,1672.07
			l0.15,10.108l-9.189,0.136l-0.15-10.108L-2071.242,1672.07z M-2071.023,1686.773l0.15,10.109l-9.189,0.137l-0.15-10.109
			L-2071.023,1686.773z M-2070.805,1701.479l0.15,10.108l-9.19,0.137l-0.149-10.108L-2070.805,1701.479z M-2070.586,1716.183
			l0.15,10.108l-9.191,0.137l-0.149-10.109L-2070.586,1716.183z M-2070.367,1730.887l0.15,10.108l-9.19,0.138l-0.15-10.109
			L-2070.367,1730.887z M-2070.148,1745.591l0.15,10.109l-9.19,0.137l-0.151-10.108L-2070.148,1745.591z M-2069.93,1760.295
			l0.15,10.109l-9.191,0.137l-0.15-10.109L-2069.93,1760.295z M-2069.711,1775l0.15,10.109l-9.191,0.137l-0.15-10.11L-2069.711,1775
			z M-2069.492,1789.704l0.149,10.108l-9.19,0.137l-0.15-10.109L-2069.492,1789.704z M-2069.274,1804.408l0.15,10.109l-9.19,0.137
			l-0.15-10.109L-2069.274,1804.408z M-2069.057,1819.112l0.151,10.109l-9.19,0.137l-0.15-10.109L-2069.057,1819.112z
			 M-2068.837,1833.816l0.15,10.109l-9.19,0.137l-0.15-10.109L-2068.837,1833.816z M-2068.619,1848.521l0.15,10.109l-9.189,0.137
			l-0.15-10.109L-2068.619,1848.521z M-2068.4,1863.226l0.15,10.109l-9.189,0.137l-0.15-10.109L-2068.4,1863.226z
			 M-2068.182,1877.93l0.15,10.109l-9.19,0.137l-0.15-10.109L-2068.182,1877.93z M-2067.963,1892.634l0.15,10.109l-9.189,0.137
			l-0.151-10.109L-2067.963,1892.634z M-2067.744,1907.338l0.15,10.109l-9.19,0.137l-0.149-10.109L-2067.744,1907.338z
			 M-2067.525,1922.043l0.15,10.109l-9.19,0.137l-0.15-10.109L-2067.525,1922.043z M-2067.307,1936.747l0.15,10.109l-9.19,0.137
			l-0.151-10.109L-2067.307,1936.747z M-2067.088,1951.451l0.15,10.109l-9.191,0.137l-0.15-10.109L-2067.088,1951.451z
			 M-2066.869,1966.156l0.149,10.108l-9.19,0.137l-0.15-10.108L-2066.869,1966.156z M-2066.65,1980.859l0.15,10.109l-9.191,0.137
			l-0.15-10.108L-2066.65,1980.859z M-2066.433,1995.564l0.15,10.109l-9.19,0.137l-0.15-10.109L-2066.433,1995.564z
			 M-2066.213,2010.269l0.148,10.109l-9.189,0.137l-0.15-10.109L-2066.213,2010.269z M-2065.995,2024.973l0.149,10.109l-9.189,0.137
			l-0.15-10.109L-2065.995,2024.973z M-2065.777,2039.678l0.15,10.108l-9.189,0.137l-0.15-10.108L-2065.777,2039.678z
			 M-2065.559,2054.382l0.15,10.109l-9.189,0.137l-0.15-10.109L-2065.559,2054.382z M-2065.34,2069.086l0.15,10.109l-9.189,0.137
			l-0.15-10.109L-2065.34,2069.086z M-2065.121,2083.79l0.15,10.109l-9.19,0.137l-0.149-10.109L-2065.121,2083.79z
			 M-2064.902,2098.495l0.15,10.108l-9.19,0.137l-0.15-10.109L-2064.902,2098.495z M-2064.684,2113.199l0.15,10.109l-9.19,0.137
			l-0.151-10.109L-2064.684,2113.199z M-2064.465,2127.903l0.15,10.109l-9.19,0.137l-0.15-10.109L-2064.465,2127.903z
			 M-2064.246,2142.607l0.15,10.109l-9.19,0.137l-0.151-10.109L-2064.246,2142.607z M-2064.027,2157.312l0.15,10.108l-9.19,0.137
			l-0.151-10.108L-2064.027,2157.312z M-2063.81,2172.017l0.15,10.109l-9.19,0.136l-0.15-10.108L-2063.81,2172.017z
			 M-2063.591,2186.721l0.15,10.109l-9.19,0.137l-0.15-10.109L-2063.591,2186.721z M-2063.372,2201.425l0.15,10.109l-9.19,0.137
			l-0.15-10.109L-2063.372,2201.425z M-2063.153,2216.129l0.15,10.109l-9.19,0.137l-0.15-10.109L-2063.153,2216.129z"/>
	</g>
	<g>
		<path fill="#1C92A5" d="M-2179.373,1499.246c4.267-1.867,8.644-4.121,12.637-6.583l12.831,15.936l17.873-14.344l-12.689-15.812
			c4.333-4.327,8.239-9.029,11.684-14.034l17.853,9.342l10.625-20.309l-17.738-9.29c1.745-4.456,3.168-9.059,4.261-13.743
			l19.839,2.145l2.477-22.844l-19.792-2.29c-0.017-6.087-0.534-12.041-1.852-18.635l17.786-5.565l-6.757-21.598l-17.791,5.566
			c-1.912-4.252-4.213-8.582-6.754-12.607l14.522-11.511l-14.343-17.872l-14.538,11.666c-4.396-4.312-9.169-8.191-14.244-11.599
			l8.691-16.608l-20.305-10.626l-8.752,16.722c-4.457-1.688-9.043-3.059-13.721-4.096l2.057-18.805l-22.789-2.494l-2.096,18.965
			c-5.988,0.082-12.022,0.707-18.107,1.929l-6.186-19.767l-22.088,6.911l6.238,19.941c-4.244,1.937-8.347,4.176-12.28,6.686
			l-12.812-16.19l-17.874,14.343l13.071,16.287c-4.179,4.302-7.944,8.96-11.262,13.904l-18.637-9.755l-10.628,20.302l18.754,9.812
			c-1.646,4.348-2.99,8.81-4.018,13.368l-21.071-2.323l-2.506,22.752l21.124,2.259c0.061,5.833,0.534,11.394,1.726,17.487
			l-21.638,6.771l6.758,21.598l21.634-6.769c2.046,4.75,4.166,8.653,6.599,12.554l-17.523,14.378l14.342,17.873l17.558-14.09
			c4.233,4.197,8.821,7.99,13.697,11.344l-10.407,19.883l20.303,10.627l10.341-19.768c4.347,1.701,8.81,3.104,13.375,4.185
			l-2.441,22.116l22.744,2.508l2.332-21.916c5.931,0.004,12.145-0.597,17.767-1.578l6.152,19.667l22.09-6.911L-2179.373,1499.246z
			 M-2195.87,1482.396c-41.481,12.979-85.63-10.127-98.608-51.607c-12.979-41.481,10.127-85.63,51.607-98.608
			c41.481-12.979,85.63,10.127,98.609,51.608C-2131.283,1425.27-2154.389,1469.418-2195.87,1482.396z"/>
	</g>
	<g>
		<path fill="none" d="M-2286.631,2235.61c1.691,19.246,15.744,35.938,35.633,40.093c24.326,5.083,48.168-10.519,53.25-34.846
			c1.164-5.574,1.24-11.123,0.376-16.428"/>
		<path fill="#707B8F" d="M-2120.1,2255.184h33.008v-49h-32.9c-3.156-17-9.616-32.359-19.364-46.76l22.431-22.375l-34.223-34.196
			l-22.497,22.511c-14.017-9.408-29.513-15.613-45.513-18.803l-0.034-32.377h-23.616l-0.294,112.313
			c4.327,0.171,8.702,0.923,12.987,2.405c23.486,8.129,35.918,33.734,27.79,57.221c-6.265,18.104-22.737,29.034-41.012,29.652
			l-0.288,109.408h24.428l0.018-31.581c16.158-3.221,31.811-9.313,45.936-18.874l23.31,23.455l34.226-34.147l-23.369-23.156
			C-2129.594,2286.746-2123.264,2270.184-2120.1,2255.184z"/>
		<path fill="#8992A0" d="M-2259.549,2273.908c-23.486-8.127-35.953-33.756-27.826-57.24c6.646-19.201,25.039-30.936,44.272-30.171
			l0.294-112.313h-24.809l0.018,32.122c-16.476,3.099-32.438,9.442-46.847,19.112l-22.492-22.52l-34.222,34.213l22.432,22.316
			c-9.749,14.399-16.208,29.756-19.365,46.756h-30.998v49h31.104c3.164,15,9.492,31.6,18.978,45.732l-23.372,23.281l34.223,34.18
			l23.306-23.327c14.517,9.826,30.636,15.694,47.269,18.824l-0.035,31.31h23.996l0.288-109.419
			C-2248.627,2275.948-2254.166,2275.771-2259.549,2273.908z"/>
	</g>
</g>
<g>
	<path fill="#1C92A5" d="M-5985.11,1164.257c-5.855-3.47,5.346,4.198-0.715,1.459l19.18,152.188l-96.635,71.98l-115.373-40.15
		l-30.722-158.563c-18.101,13.706-10.816,15.901-23.111,36.638c-50.804,85.691-22.392,196.126,63.3,246.931
		c9.288,5.507,18.882,10.027,28.65,13.7l-7.423,760.849c0.816,48.944,41.155,87.96,90.1,87.144l0.95-0.016
		c48.944-0.816,87.96-41.156,87.144-90.101l-32.637-762.681c32.448-14.758,60.881-39.204,80.429-72.174
		C-5871.168,1325.769-5899.418,1215.062-5985.11,1164.257z M-6058.663,2298.483c-26.963-0.237-48.629-22.288-48.392-49.251
		c0.237-26.963,22.287-48.629,49.25-48.393c26.963,0.237,48.629,22.288,48.392,49.251
		C-6009.649,2277.055-6031.7,2298.721-6058.663,2298.483z"/>
</g>
<g>
	<path fill="#354F5C" d="M-5127.001,1807.394v-227.038h11.596l75.372,112.006l75.488-112.006h11.596v227.038h-34.787l-0.116-131.682
		l-52.181,75.679l-52.18-75.679v131.682H-5127.001z"/>
	<path fill="#354F5C" d="M-4927.439,1807.394l69.574-227.038h34.787l69.458,226.887l-36.99,0.151l-10.437-34.812h-78.85
		l-10.437,34.812H-4927.439z M-4839.544,1640.899l-26.438,86.274h52.181L-4839.544,1640.899z"/>
	<path fill="#354F5C" d="M-4727.646,1580.204h34.671v227.189h-34.671V1580.204z"/>
	<path fill="#354F5C" d="M-4658.072,1807.394v-227.038h11.596l108.999,142.277v-142.277h34.787v227.038h-12.755l-107.839-140.764
		v140.764H-4658.072z"/>
	<path fill="#354F5C" d="M-4324.697,1580.355v42.381h-57.979v184.657h-34.787v-184.657h-57.978v-42.381H-4324.697z"/>
	<path fill="#354F5C" d="M-4299.303,1807.394v-226.887l127.784-0.151v42.381h-92.997v48.435h69.688v42.229h-69.688v51.613h92.765
		v42.381H-4299.303z"/>
	<path fill="#354F5C" d="M-4136.5,1807.394v-227.038h11.596l108.999,142.277v-142.277h34.787v227.038h-12.755l-107.84-140.764
		v140.764H-4136.5z"/>
	<path fill="#354F5C" d="M-3954.216,1807.394l69.573-227.038h34.787l69.458,226.887l-36.99,0.151l-10.436-34.812h-78.851
		l-10.437,34.812H-3954.216z M-3866.321,1640.899l-26.438,86.274h52.18L-3866.321,1640.899z"/>
	<path fill="#354F5C" d="M-3754.423,1807.394v-227.038h11.596l108.999,142.277v-142.277h34.787v227.038h-12.755l-107.84-140.764
		v140.764H-3754.423z"/>
	<path fill="#354F5C" d="M-3546.57,1774.775c-16.66-21.644-24.989-48.761-24.989-81.354c0.076-31.885,8.425-58.701,25.047-80.447
		c16.62-21.744,37.222-32.618,61.805-32.618c24.814,0,46.111,10.092,63.893,30.271l-23.191,33.148
		c-11.828-12.109-25.395-18.163-40.701-18.163c-15.616,0.102-28.197,6.458-37.744,19.07c-9.548,12.615-14.32,28.759-14.32,48.436
		c0.076,21.091,4.908,37.839,14.495,50.251c9.584,12.411,22.186,18.617,37.802,18.617c15.614,0,29.104-6.003,40.469-18.012
		l23.191,33.147c-17.703,20.183-39.002,30.271-63.893,30.271C-3509.291,1807.294-3529.913,1796.42-3546.57,1774.775z"/>
	<path fill="#354F5C" d="M-3383.825,1807.394v-226.887l127.784-0.151v42.381h-92.997v48.435h69.689v42.229h-69.689v51.613h92.766
		v42.381H-3383.825z"/>
</g>
</svg>
