<?xml version="1.0" encoding="utf-8"?>
<!-- Generator: Adobe Illustrator 16.0.0, SVG Export Plug-In . SVG Version: 6.00 Build 0)  -->
<!DOCTYPE svg PUBLIC "-//W3C//DTD SVG 1.1//EN" "http://www.w3.org/Graphics/SVG/1.1/DTD/svg11.dtd">
<svg version="1.1" id="Layer_1" xmlns="http://www.w3.org/2000/svg" xmlns:xlink="http://www.w3.org/1999/xlink" x="0px" y="0px"
	 width="1670.265px" height="1363.755px" viewBox="0 0 1670.265 1363.755" enable-background="new 0 0 1670.265 1363.755"
	 xml:space="preserve">
<g>
	<g>
		<path fill="#1C92A5" d="M446.654,851.253c7.516,25.381,17.137,51.659,28.203,75.919l-98.944,61.115l68.271,110.941l98.153-60.399
			c21.343,27.492,45.104,52.853,70.902,75.811l-65.304,94.096l107.034,74.275l64.932-93.487
			c23.899,12.99,48.856,24.269,74.502,33.739l-26.106,110.383l127.09,30.108l26.901-110.014
			c34.347,4.207,68.291,5.497,106.411,2.721l18.823,104.253l126.593-22.855l-18.826-104.275
			c25.333-7.78,51.379-17.699,75.882-29.187l54.658,90.042l110.941-68.27l-55.531-90.242c27.426-21.75,52.679-45.926,75.483-72.146
			l87.531,60.758l74.279-107.014l-88.13-61.181c12.665-23.943,23.639-48.846,32.795-74.495l104.611,24.885l30.165-126.772
			l-105.485-25.216c3.769-33.837,4.504-68.311,1.917-103.494l115.858-20.918l-23.375-129.471l-116.881,21.103
			c-7.926-25.307-17.655-50.03-29.035-73.991l100.372-60.827l-68.27-110.942l-101.096,62.213
			c-21.314-26.603-44.922-51.132-70.467-73.339l68.187-98.227l-107-74.282l-68.589,98.839
			c-23.358-12.349-47.574-23.093-72.557-32.107l27.988-117.202l-126.553-30.205l-27.667,117.55
			c-32.939-3.783-64.638-5.041-99.853-2.626L932.57,0L805.977,22.857l22.894,126.798c-28.232,8.183-51.747,17.383-75.468,28.348
			L684.691,69.007L573.75,137.275l67.065,108.981c-26.665,20.914-51.298,44.109-73.656,69.241l-104.79-72.744l-74.282,106.997
			l104.187,72.297c-12.667,23.315-23.73,47.496-33.051,72.479l-123.021-29.395L305.99,591.643l121.963,28.636
			c-4.211,33.445-5.215,68.92-3.651,101.318L309.03,742.409l23.375,129.471L446.654,851.253z M553.342,770.104
			C509.445,526.973,670.958,294.29,914.09,250.393c243.132-43.897,475.814,117.616,519.711,360.748
			c43.897,243.133-117.615,475.815-360.748,519.711C829.922,1174.75,597.239,1013.237,553.342,770.104z"/>
	</g>
	<g>
		<g>
			<path fill="#3D6D7A" d="M1265.925,910.316l77.37,40.137l61.24-118.049l-77.599-40.254
				c13.372-45.767,16.844-92.902,11.288-138.631l84.366-26.735l-40.193-126.839l-85.047,26.952
				c-21.636-39.266-50.996-74.623-87.271-103.531l40.254-77.601l-118.05-61.238l-40.133,77.372
				c-45.809-13.583-93.024-17.243-138.844-11.823l-27.392-86.446l-126.839,40.191l27.481,86.725
				c-28.098,15.366-54.198,34.701-77.402,57.666l96.6,79.379c66.269-65.5,159.556-74.824,246.722-29.607
				c108.223,56.141,150.443,189.384,94.302,297.603c-56.14,108.222-189.381,150.442-297.599,94.305
				c-74.753-38.779-117.993-114.343-119.102-193.038l-124.236-5.854c-1.468,20.903,0.349,20.888,2.628,41.504l-84.296,26.714
				l40.189,126.838l83.617-26.495c22.004,40.973,52.358,77.813,90.147,107.683l-41.702,80.387l118.048,61.238l41.819-80.619
				c44.894,13.116,91.104,16.716,136.013,11.605l26.045,82.195l126.837-40.194l-25.957-81.915
				C1199.808,977.983,1236.297,947.803,1265.925,910.316z"/>
		</g>
		<path fill="#A3A3A3" d="M1037.277,824.482l-145.909-47.327l-24.079-118.067l85.381-87.366l156.585,39.59
			c-4.712-22.21-9.796-16.549-23.34-36.492c-55.971-82.41-168.009-103.632-250.419-47.661c-8.933,6.066-17.103,12.83-24.58,20.11
			l0,0l-685.54-330.12c-44.65-20.065-97.112-0.136-117.177,44.515l-0.39,0.867c-20.065,44.649-0.135,97.112,44.515,117.177
			l704.227,294.638c-0.433,35.644,9.609,71.771,31.144,103.479c55.972,82.409,168.188,103.896,250.598,47.924
			C1043.923,821.925,1032.221,828.804,1037.277,824.482z"/>
	</g>
	<polygon fill="#324758" points="925.994,764.156 1033.367,793.756 1100.753,724.231 1078.51,629.998 971.137,600.398 
		908.267,671.168 	"/>
</g>
</svg>
