<?xml version="1.0" encoding="utf-8"?>
<!-- Generator: Adobe Illustrator 16.0.0, SVG Export Plug-In . SVG Version: 6.00 Build 0)  -->
<!DOCTYPE svg PUBLIC "-//W3C//DTD SVG 1.1//EN" "http://www.w3.org/Graphics/SVG/1.1/DTD/svg11.dtd">
<svg version="1.1" id="Layer_1" xmlns="http://www.w3.org/2000/svg" xmlns:xlink="http://www.w3.org/1999/xlink" x="0px" y="0px"
	 width="492.197px" height="1180.923px" viewBox="0 0 492.197 1180.923" enable-background="new 0 0 492.197 1180.923"
	 xml:space="preserve">
<g>
	<path fill="#1C92A5" d="M360.562,0.919c-5.855-3.47,5.346,4.198-0.715,1.459l19.18,152.188l-96.635,71.98l-115.373-40.15
		L136.297,27.833c-18.101,13.706-10.816,15.901-23.111,36.638c-50.804,85.691-22.392,196.126,63.3,246.931
		c9.288,5.507,18.882,10.027,28.65,13.7l-7.423,760.849c0.816,48.944,41.155,87.96,90.1,87.144l0.95-0.016
		c48.944-0.816,87.96-41.156,87.144-90.101l-32.637-762.681c32.448-14.758,60.881-39.204,80.429-72.174
		C474.503,162.431,446.254,51.724,360.562,0.919z M287.009,1135.146c-26.963-0.237-48.629-22.288-48.392-49.251
		c0.237-26.963,22.287-48.629,49.25-48.393c26.963,0.237,48.629,22.288,48.392,49.251
		C336.022,1113.717,313.972,1135.383,287.009,1135.146z"/>
</g>
</svg>
