<?xml version="1.0" encoding="utf-8"?>
<!-- Generator: Adobe Illustrator 16.0.0, SVG Export Plug-In . SVG Version: 6.00 Build 0)  -->
<!DOCTYPE svg PUBLIC "-//W3C//DTD SVG 1.1//EN" "http://www.w3.org/Graphics/SVG/1.1/DTD/svg11.dtd">
<svg version="1.1" id="Layer_1" xmlns="http://www.w3.org/2000/svg" xmlns:xlink="http://www.w3.org/1999/xlink" x="0px" y="0px"
	 width="4162.482px" height="2514.004px" viewBox="0 0 4162.482 2514.004" enable-background="new 0 0 4162.482 2514.004"
	 xml:space="preserve">
<g>
	<path fill="#273942" d="M83.104,2374.15c0,0-87.85,131.311,203.245,131.311c291.095,0,3704.574,8.438,3704.574,8.438
		s200.417,8.621,168.014-129.652L83.104,2374.15z"/>
	<path fill="#E6E6E8" d="M4158.998,2384.463c13.827,48.674-19.744,73.102-69.717,73.102l-3936.959-8.439
		c-49.972,0-80.867-33.902-69.218-74.975l575.246-598.697c46.31-42.355,53.516-62.106,98.598-62.106h2717.779
		c21.692,0,58.781,16.841,102.129,62.106L4158.998,2384.463z"/>
	<g>
		<path fill="#354F5C" d="M801.124,85.087c-45.083,0-81.121,36.91-81.121,83.252v1545.936c0,0,36.039-2.403,81.121-2.403h101.869
			L3363.576,85.087H801.124z"/>
		<path fill="#273942" d="M3414.226,85.087h-50.649L902.993,1711.873h2511.232c45.083,0,82.194,2.403,82.194,2.403V168.34
			C3496.42,121.998,3459.309,85.087,3414.226,85.087z"/>
	</g>
	<path fill="#E2E2F7" d="M2154.646,135.289c0,10.454-8.244,18.928-18.413,18.928h-36.827c-10.17,0-18.413-8.474-18.413-18.928l0,0
		c0-10.454,8.243-18.928,18.413-18.928h36.827C2146.401,116.361,2154.646,124.835,2154.646,135.289L2154.646,135.289z"/>
	<g>
		<polygon fill="#354F5C" points="1558.769,2187.637 1600.373,2084.329 1401.914,2084.329 1344.058,2187.637 		"/>
		<polygon fill="#354F5C" points="1626.005,2050.986 1659.158,1969.622 1474.681,1969.622 1428.471,2050.986 		"/>
		<polygon fill="#354F5C" points="1668.896,1942.482 1699.58,1866.082 1527.93,1866.082 1485.13,1942.482 		"/>
		<polygon fill="#354F5C" points="1403.722,1942.482 1447.408,1866.082 1288.263,1866.082 1233.343,1942.482 		"/>
		<polygon fill="#354F5C" points="1253.64,2187.637 1312.782,2084.329 1128.78,2084.329 1054.57,2187.637 		"/>
		<polygon fill="#354F5C" points="1339.602,2050.986 1386.827,1969.622 1215.789,1969.622 1156.457,2050.986 		"/>
		<polygon fill="#354F5C" points="1902.108,1942.482 1921.678,1866.082 1776.173,1866.082 1746.333,1942.482 		"/>
		<polygon fill="#354F5C" points="1154.912,1942.482 1210.687,1866.082 1040.174,1866.082 972.363,1942.482 		"/>
		<polygon fill="#354F5C" points="1045.725,2084.329 854.802,2084.329 757.028,2187.637 970.316,2187.637 		"/>
		<polygon fill="#354F5C" points="1069.742,2052.7 1133.83,1971.295 954.518,1971.295 881.297,2052.7 		"/>
		<polygon fill="#354F5C" points="1883.148,2050.986 1902.473,1969.622 1729.826,1969.622 1704.582,2050.986 		"/>
		<polygon fill="#354F5C" points="874.697,1971.208 714.521,1971.208 619.12,2046.536 800.942,2046.536 		"/>
		<polygon fill="#354F5C" points="761.065,2081.711 588.002,2081.711 469.278,2180.748 664.886,2180.748 		"/>
		<polygon fill="#354F5C" points="906.64,1937.336 971.651,1866.163 823.095,1866.163 747.954,1937.336 		"/>
		<polygon fill="#354F5C" points="3232.95,2187.637 3446.238,2187.637 3348.077,2084.329 3150.933,2084.329 		"/>
		<polygon fill="#354F5C" points="3057.635,1969.622 3123.269,2050.986 3319.494,2050.986 3240.891,1969.622 		"/>
		<polygon fill="#354F5C" points="3225.367,1942.482 3152.556,1866.082 2982.043,1866.082 3042.818,1942.482 		"/>
		<polygon fill="#354F5C" points="2735.574,2050.986 2684.526,1969.622 2522.039,1969.622 2561.587,2050.986 		"/>
		<polygon fill="#354F5C" points="2817.515,2187.637 2748.562,2084.329 2573.76,2084.329 2623.066,2187.637 		"/>
		<polygon fill="#354F5C" points="2942.478,1942.482 2892.307,1866.082 2726.389,1866.082 2780.618,1942.482 		"/>
		<polygon fill="#354F5C" points="3033.238,2050.986 2968.634,1969.622 2795.151,1969.622 2847.479,2050.986 		"/>
		<polygon fill="#354F5C" points="2927.261,2187.637 3129.174,2187.637 3048.633,2084.329 2862.003,2084.329 		"/>
		<polygon fill="#354F5C" points="2676.48,1942.482 2619.696,1866.082 2458.276,1866.082 2503.668,1942.482 		"/>
		<polygon fill="#354F5C" points="3456.454,2084.329 3556.18,2187.637 3780.844,2187.637 3664.113,2084.329 		"/>
		<polygon fill="#354F5C" points="3515.938,1942.482 3429.377,1866.082 3249.771,1866.082 3323.652,1942.482 		"/>
		<polygon fill="#354F5C" points="3426.053,2050.986 3632.744,2050.986 3539.26,1969.622 3346.231,1969.622 		"/>
		<polygon fill="#354F5C" points="2424.209,1942.482 2388.592,1866.082 2218.078,1866.082 2241.659,1942.482 		"/>
		<polygon fill="#354F5C" points="2463.645,2050.986 2425.216,1969.622 2241.961,1969.622 2267.418,2050.986 		"/>
		<polygon fill="#354F5C" points="2158.128,1942.482 2148.588,1866.082 1990.995,1866.082 1982.753,1942.482 		"/>
		<polygon fill="#354F5C" points="2169.519,2050.986 2155.336,1969.622 1981.854,1969.622 1969.966,2050.986 		"/>
		<polygon fill="#354F5C" points="2474.16,2084.329 2267.976,2084.329 2082.357,2084.329 2081.345,2084.329 1889.566,2084.329 
			1886.527,2084.329 1684.536,2084.329 1652.826,2187.637 1874.229,2187.637 1877.312,2187.637 2085.069,2187.637 
			2086.097,2187.637 2286.982,2187.637 2513.781,2187.637 		"/>
	</g>
	<g>
		<path fill="#273942" d="M1648.21,2329.635l-12.432,7.545c-40.063,42.879-11.112,54.609,77.812,54.609h706.553
			c88.924,0,119.55-17.004,76.405-54.609l-12.312-7.545H1648.21z"/>
		<path fill="#354F5C" d="M2399.395,2256.965c-24.19-16.938-40.713-26.021-89.234-26.021l-489.836-0.775
			c-48.518,0-61.805,9.859-86.264,26.797l-85.789,72.67h836.06L2399.395,2256.965z"/>
	</g>
	<g>
		<path fill="#6FADBC" d="M3328.755,188.466H896.198c-45.083,0-81.723,37.243-81.723,82.658V1595.52
			c0,45.415,36.641,82.603,81.723,82.603h10.628L3331.123,189.015C3330.334,188.992,3329.55,188.466,3328.755,188.466z"/>
		<path fill="#589EA5" d="M3330.84,189.317L906.826,1678.123h2421.929c45.083,0,81.064-37.188,81.064-82.603V271.125
			C3409.819,226.51,3374.824,190.577,3330.84,189.317z"/>
	</g>
</g>
<g>
	<rect x="914.557" y="255.916" fill="#FEC524" width="2401.733" height="1338.116"/>
	<polygon points="1100.408,255.916 914.557,454.151 914.557,255.916 	"/>
	<polygon points="1340.104,255.916 914.557,708.134 914.557,944.028 1539.364,255.916 	"/>
	<polygon points="1813.249,255.916 914.557,1228.271 914.557,1464.165 2012.508,255.916 	"/>
	<polygon points="2286.393,255.916 1045.106,1598.481 1266.312,1598.481 2485.652,255.916 	"/>
	<polygon points="2760.9,255.916 1518.626,1593.831 1743.288,1598.589 2960.16,255.916 	"/>
	<polygon points="3247.68,255.916 2012.508,1594.032 2234.09,1594.032 3316.29,400.184 3316.29,255.916 	"/>
	<polygon points="3318.584,686.271 2484.895,1594.032 2698.59,1594.032 3315.856,914.627 	"/>
	<polygon points="3316.29,1150.464 2901.956,1598.589 3114.289,1598.25 3316.29,1371.63 	"/>
	<rect x="1084.839" y="393.233" fill="#E5E7E9" width="2063.461" height="1036.363"/>
</g>
<g>
	<path fill="#354F5C" d="M1585.294,519.245v186.489c0,24.296,5.19,42.158,15.573,53.589c10.38,11.435,23.359,17.148,38.932,17.148
		s28.549-5.714,38.932-17.148c10.379-11.431,15.573-29.293,15.573-53.589V519.245h46.718v203.638c0,32.87-9.604,60.736-28.81,83.599
		c-19.208,22.865-43.346,34.297-72.413,34.297c-29.07,0-53.208-11.432-72.414-34.297c-19.208-22.862-28.81-50.729-28.81-83.599
		V519.245H1585.294z"/>
	<path fill="#354F5C" d="M1791.478,840.778V519.245h15.573l146.384,201.494V519.245h46.719v321.533h-17.13l-144.827-199.351v199.351
		H1791.478z"/>
	<path fill="#354F5C" d="M2048.585,788.778V467.031h90.011c72.67,0,109.01,53.662,109.01,160.98
		c0,107.178-36.34,160.767-109.01,160.767H2048.585z M2138.597,724.686c41.422-0.142,62.186-32.368,62.291-96.675
		c-0.105-64.307-20.869-96.46-62.291-96.46h-43.293v193.135H2138.597z"/>
	<path fill="#354F5C" d="M2297.127,840.778V519.459l171.613-0.215v60.02h-124.895v68.594h93.593v59.806h-93.593v73.095h124.583
		v60.02H2297.127z"/>
	<path fill="#354F5C" d="M2656.393,700.589l58.242,140.188h-53.57l-55.906-132.9h-42.67v132.9h-46.719V519.245h101.847
		c54.505,0,81.757,30.867,81.757,92.602C2699.373,658.292,2685.047,687.873,2656.393,700.589z M2562.488,647.858h65.406
		c18.789-0.429,28.444-12.218,28.965-35.368c-0.521-21.147-10.02-32.153-28.498-33.011h-65.873V647.858z"/>
</g>
<g>
	<path fill="#354F5C" d="M1182.661,1259.625v-227.038h11.596l75.372,112.006l75.488-112.006h11.596v227.038h-34.787l-0.116-131.682
		l-52.181,75.679l-52.18-75.679v131.682H1182.661z"/>
	<path fill="#354F5C" d="M1382.223,1259.625l69.574-227.038h34.787l69.458,226.887l-36.99,0.151l-10.437-34.812h-78.85
		l-10.437,34.812H1382.223z M1470.118,1093.13l-26.438,86.274h52.181L1470.118,1093.13z"/>
	<path fill="#354F5C" d="M1582.016,1032.435h34.671v227.189h-34.671V1032.435z"/>
	<path fill="#354F5C" d="M1651.59,1259.625v-227.038h11.596l108.999,142.277v-142.277h34.787v227.038h-12.755l-107.839-140.764
		v140.764H1651.59z"/>
	<path fill="#354F5C" d="M1984.965,1032.586v42.381h-57.979v184.657H1892.2v-184.657h-57.978v-42.381H1984.965z"/>
	<path fill="#354F5C" d="M2010.359,1259.625v-226.887l127.784-0.151v42.381h-92.997v48.435h69.688v42.229h-69.688v51.613h92.765
		v42.381H2010.359z"/>
	<path fill="#354F5C" d="M2173.162,1259.625v-227.038h11.596l108.999,142.277v-142.277h34.787v227.038h-12.755l-107.84-140.764
		v140.764H2173.162z"/>
	<path fill="#354F5C" d="M2355.446,1259.625l69.573-227.038h34.787l69.458,226.887l-36.99,0.151l-10.436-34.812h-78.851
		l-10.437,34.812H2355.446z M2443.341,1093.13l-26.438,86.274h52.18L2443.341,1093.13z"/>
	<path fill="#354F5C" d="M2555.239,1259.625v-227.038h11.596l108.999,142.277v-142.277h34.787v227.038h-12.755l-107.84-140.764
		v140.764H2555.239z"/>
	<path fill="#354F5C" d="M2763.092,1227.006c-16.66-21.644-24.989-48.761-24.989-81.354c0.076-31.885,8.425-58.701,25.047-80.447
		c16.62-21.744,37.222-32.618,61.805-32.618c24.814,0,46.111,10.092,63.893,30.271l-23.191,33.148
		c-11.828-12.109-25.395-18.163-40.701-18.163c-15.616,0.102-28.197,6.458-37.744,19.07c-9.548,12.615-14.32,28.759-14.32,48.436
		c0.076,21.091,4.908,37.839,14.495,50.251c9.584,12.411,22.186,18.617,37.802,18.617c15.614,0,29.104-6.003,40.469-18.012
		l23.191,33.147c-17.703,20.183-39.002,30.271-63.893,30.271C2800.371,1259.525,2779.749,1248.651,2763.092,1227.006z"/>
	<path fill="#354F5C" d="M2925.837,1259.625v-226.887l127.784-0.151v42.381h-92.997v48.435h69.689v42.229h-69.689v51.613h92.766
		v42.381H2925.837z"/>
</g>
</svg>
